<svg xmlns="http://www.w3.org/2000/svg" xmlns:xlink="http://www.w3.org/1999/xlink" width="36" height="36" viewBox="0 0 36 36"><defs><path id="9et8a" d="M963.787 659.208c.319.484.505 1.064.505 1.685a3.082 3.082 0 0 1-6.162 0c0-.71.243-1.365.65-1.886l-1.602-1.6c-.529.426-1.2.681-1.932.681a3.07 3.07 0 0 1-1.98-.72l-4.888 5.032c.382.512.608 1.146.608 1.832 0 .912-.396 1.755-1.079 2.335.296.406.628.795.994 1.161a9.734 9.734 0 0 0 6.922 2.863 9.736 9.736 0 0 0 6.923-2.863 9.706 9.706 0 0 0 2.865-6.913c0-.99-.147-1.959-.43-2.88zm-11.13-2.53a3.056 3.056 0 0 1-.492-1.666 3.081 3.081 0 0 1 6.162 0c0 .637-.195 1.23-.529 1.722l1.645 1.642a3.07 3.07 0 0 1 1.77-.558c.744 0 1.429.266 1.962.708l1.667-1.522a9.759 9.759 0 0 0-2.098-3.101 9.73 9.73 0 0 0-6.922-2.864 9.733 9.733 0 0 0-6.92 2.863 9.745 9.745 0 0 0-2.856 7.257 3.066 3.066 0 0 1 1.683.596zm15.767-2.944a3.058 3.058 0 0 1-.592-1.81 3.082 3.082 0 0 1 3.082-3.077c1.697 0 3.08 1.381 3.08 3.076a3.082 3.082 0 0 1-4.925 2.463l-.69.63c1.972 4.267 1.65 9.34-.963 13.344l3.851 3.845 5.888 5.88a2.879 2.879 0 1 1-4.075 4.07l-5.888-5.88-3.856-3.851a13.753 13.753 0 0 1-7.511 2.208h-.001c-3.696 0-7.17-1.437-9.783-4.046-5.395-5.388-5.395-14.154 0-19.54a13.75 13.75 0 0 1 9.781-4.048c3.695 0 7.169 1.437 9.782 4.047.95.948 1.731 2 2.347 3.12zm-13.178-.883c-1.193 0-2.165.97-2.165 2.16a2.166 2.166 0 0 0 4.33 0c0-1.19-.971-2.16-2.165-2.16zm5.966 5.881a2.165 2.165 0 0 0-2.165 2.161c0 1.192.97 2.163 2.165 2.163 1.192 0 2.164-.97 2.164-2.163a2.165 2.165 0 0 0-2.164-2.16zm9.702-8.97c-1.194 0-2.165.97-2.165 2.161a2.164 2.164 0 0 0 4.328 0c0-1.19-.971-2.16-2.163-2.16zm-7.78 21.69a13.165 13.165 0 0 0 1.824-1.513 13.125 13.125 0 0 0 1.486-1.782.454.454 0 0 1 .035-.044c2.539-3.695 2.935-8.427 1.188-12.447l-1.744 1.593c.397 1.127.604 2.326.604 3.556a10.61 10.61 0 0 1-3.133 7.56 10.643 10.643 0 0 1-7.57 3.13c-2.86 0-5.548-1.11-7.57-3.13a10.682 10.682 0 0 1-1.57-1.992 10.698 10.698 0 0 1-1.529-4.716.467.467 0 0 1-.001-.052 10.665 10.665 0 0 1 3.1-8.36 10.638 10.638 0 0 1 7.568-3.13 10.64 10.64 0 0 1 7.569 3.13c.913.912 1.64 1.96 2.164 3.098l1.698-1.55a12.867 12.867 0 0 0-2.297-3.11 12.841 12.841 0 0 0-9.134-3.78c-3.45 0-6.694 1.342-9.133 3.778-5.037 5.03-5.037 13.218 0 18.248a12.84 12.84 0 0 0 9.135 3.778c2.629 0 5.137-.779 7.262-2.226a.384.384 0 0 1 .048-.039zm4.382 3.852l2.368-2.365.411-.411-3.413-3.408a13.87 13.87 0 0 1-1.5 1.685 14 14 0 0 1-1.282 1.086zm.648.647l.572.571 2.779-2.776-.572-.57zm5.563 5.557c.372.371.865.575 1.39.575a1.962 1.962 0 0 0 1.39-3.35l-4.344-4.339-2.779 2.776zm-25.658-17.276a2.164 2.164 0 0 0-1.947-2.149 9.744 9.744 0 0 0 1.276 3.71c.427-.402.671-.96.671-1.56z"/></defs><g><g transform="translate(-942 -647)"><use xlink:href="#9et8a"/></g></g></svg>