<svg xmlns="http://www.w3.org/2000/svg" xmlns:xlink="http://www.w3.org/1999/xlink" width="36" height="35" viewBox="0 0 36 35"><defs><path id="w59ka" d="M948.374 558.371l5.59 3.211v-.926c0-1.601-.63-3.101-1.295-4.69a174.52 174.52 0 0 0-.02-.05zm11.624 6.678l2.406-1.382v-3.01c0-.243.197-.438.44-.438h2.813a1.67 1.67 0 0 0 1.672-1.666V555.4a.44.44 0 0 1 .439-.438h1.462l-1.87-4.656a.444.444 0 0 1-.031-.161c0-3.738-3.718-7.273-7.65-7.273-3.933 0-7.65 3.535-7.65 7.273 0 2.018.736 3.78 1.45 5.482.7 1.674 1.363 3.254 1.363 5.03v1.43zm11.626-6.679l-3.417-1.963v2.146c0 1.4-1.144 2.54-2.55 2.54h-2.374v2.07zm.51-.716l4.547-2.616-8.416-4.837 2.02 5.037a.43.43 0 0 1-.043.406.44.44 0 0 1-.364.193h-.905zm5.645-2.996a.44.44 0 0 1 .001.759l-5.138 2.954 5.137 2.955a.436.436 0 0 1 0 .757l-5.774 3.319v4.505c0 .156-.083.3-.22.378l-11.539 6.636a.44.44 0 0 1-.247.076h-.001a.431.431 0 0 1-.22-.059l-11.566-6.653a.437.437 0 0 1-.22-.378v-4.505l-5.774-3.319a.437.437 0 0 1 0-.757l5.138-2.955-5.137-2.954a.438.438 0 0 1 0-.759l8.962-5.148c.39-3.945 4.335-7.512 8.497-7.512 4.021 0 7.841 3.331 8.447 7.113zm-34.461.38l4.549 2.616 4.444-2.553c-.573-1.412-1.084-2.888-1.153-4.568zm5.553 14.616l10.69 6.148v-9.489l-4.769 2.743a.434.434 0 0 1-.439.001l-5.482-3.15zm22.256 0v-3.748l-5.484 3.151a.445.445 0 0 1-.439-.001l-4.765-2.742v9.487zm-10.25-4.098l4.547 2.617 11.257-6.47-4.548-2.614zm-17.56-3.853l11.255 6.47 4.548-2.617-11.256-6.467z"/></defs><g><g transform="translate(-942 -542)"><use xlink:href="#w59ka"/></g></g></svg>