<svg xmlns="http://www.w3.org/2000/svg" width="64" height="50" viewBox="0 0 64 50">
  <metadata><?xpacket begin="﻿" id="W5M0MpCehiHzreSzNTczkc9d"?>
<x:xmpmeta xmlns:x="adobe:ns:meta/" x:xmptk="Adobe XMP Core 5.6-c142 79.160924, 2017/07/13-01:06:39        ">
   <rdf:RDF xmlns:rdf="http://www.w3.org/1999/02/22-rdf-syntax-ns#">
      <rdf:Description rdf:about=""/>
   </rdf:RDF>
</x:xmpmeta>
                                                                                                    
                                                                                                    
                                                                                                    
                                                                                                    
                                                                                                    
                                                                                                    
                                                                                                    
                                                                                                    
                                                                                                    
                                                                                                    
                                                                                                    
                                                                                                    
                                                                                                    
                                                                                                    
                                                                                                    
                                                                                                    
                                                                                                    
                                                                                                    
                                                                                                    
                                                                                                    
                           
<?xpacket end="w"?></metadata>
<defs>
    
  </defs>
  <path class="cls-1" d="M786,611v50h64V611H786Zm62,48H788v-2h60v2Zm0-4H788V619h60v36Zm0-38H788v-4h60v4Zm-56-3h-2v2h2v-2Zm4,0h-2v2h2v-2Zm4,0h-2v2h2v-2Zm46,0H804v2h42v-2Zm1,6.166h-2V653.83h2V620.164Zm-56,0h-2V653.83h2V620.164Zm42.051,15.772a5.888,5.888,0,1,0-5.889-5.889A5.9,5.9,0,0,0,833.049,635.936Zm0-9.777a3.888,3.888,0,1,1-3.889,3.888A3.891,3.891,0,0,1,833.049,626.159ZM825,633.381a4.016,4.016,0,0,1,.144,1.163,2.908,2.908,0,0,0,3.408,3.409,4.03,4.03,0,0,1,1.163.143,3.822,3.822,0,0,1,.866.688,2.975,2.975,0,0,0,4.935,0,3.8,3.8,0,0,1,.866-0.688,4.015,4.015,0,0,1,1.161-.143,2.91,2.91,0,0,0,3.41-3.412,4,4,0,0,1,.143-1.159,3.915,3.915,0,0,1,.689-0.868,2.973,2.973,0,0,0,0-4.933,3.84,3.84,0,0,1-.688-0.868,3.967,3.967,0,0,1-.144-1.161,2.907,2.907,0,0,0-3.409-3.409,4,4,0,0,1-1.161-.144,3.809,3.809,0,0,1-.867-0.688,2.974,2.974,0,0,0-4.935,0,3.851,3.851,0,0,1-.866.688,4.026,4.026,0,0,1-1.163.144,2.907,2.907,0,0,0-3.408,3.409,4,4,0,0,1-.144,1.161,3.877,3.877,0,0,1-.689.868,2.973,2.973,0,0,0,0,4.933A3.943,3.943,0,0,1,825,633.381Zm0.771-4.432a5.07,5.07,0,0,0,1.076-1.469,5.332,5.332,0,0,0,.294-1.851,1.113,1.113,0,0,1,1.488-1.487,5.378,5.378,0,0,0,1.851-.3,5.1,5.1,0,0,0,1.47-1.075,1.168,1.168,0,0,1,2.2,0,5.067,5.067,0,0,0,1.468,1.075,5.385,5.385,0,0,0,1.851.3,1.112,1.112,0,0,1,1.487,1.487,5.38,5.38,0,0,0,.3,1.851,5.107,5.107,0,0,0,1.076,1.469,1.168,1.168,0,0,1,0,2.2,5.125,5.125,0,0,0-1.077,1.468,5.379,5.379,0,0,0-.294,1.851,2.745,2.745,0,0,1-.214,1.275,2.774,2.774,0,0,1-1.273.213,5.332,5.332,0,0,0-1.851.294,5.089,5.089,0,0,0-1.468,1.076,1.167,1.167,0,0,1-2.2,0,5.125,5.125,0,0,0-1.47-1.076,5.328,5.328,0,0,0-1.851-.294,1.113,1.113,0,0,1-1.488-1.488,5.332,5.332,0,0,0-.294-1.851,5.066,5.066,0,0,0-1.076-1.468A1.168,1.168,0,0,1,825.771,628.949Zm11.863,19.843-4.585-4.012-4.587,4.012v-9.666h-2V653.2l6.587-5.763,6.586,5.763V639.126h-2v9.666ZM821,642H793v2h28v-2Zm0,4H793v2h28v-2Zm-13.549,4H793v2H807.45v-2ZM818,621H793v18h25V621Zm-23,2h2.585L795,625.583V623Zm0,5.414L800.413,623h3.171L795,631.584v-3.173ZM795,637v-2.586L806.412,623h3.171l-14,14H795Zm3.414,0,14-14h3.172l-14,14h-3.172ZM816,634.583L813.584,637h-3.172L816,631.412v3.171Zm0-6L807.584,637h-3.172L816,625.412v3.17Z" transform="translate(-786 -611)"/>
</svg>
