<?xml version="1.0" encoding="UTF-8" standalone="no"?>
<svg xmlns:dc="http://purl.org/dc/elements/1.1/" xmlns:cc="http://creativecommons.org/ns#" xmlns:rdf="http://www.w3.org/1999/02/22-rdf-syntax-ns#" xmlns:svg="http://www.w3.org/2000/svg" xmlns="http://www.w3.org/2000/svg" viewBox="0 0 85.333336 85.335068" height="85.335068" width="85.333336" xml:space="preserve" id="svg2" version="1.1"><metadata id="metadata8"><rdf:RDF><cc:Work rdf:about=""><dc:format>image/svg+xml</dc:format><dc:type rdf:resource="http://purl.org/dc/dcmitype/StillImage"/></cc:Work></rdf:RDF></metadata><defs id="defs6"><clipPath id="clipPath52" clipPathUnits="userSpaceOnUse"><path id="path50" d="M 0,64.001 H 64 V 0 H 0 Z"/></clipPath></defs><g transform="matrix(1.3333333,0,0,-1.3333333,0,85.335067)" id="g10"><g transform="translate(56.9495,57.3138)" id="g12"><path id="path14" d="m 0,0 -2.152,0.699 0.618,1.903 2.152,-0.7 z"/></g><g transform="translate(57.1487,54.5814)" id="g16"><path id="path18" d="M 0,0 -1.618,1.176 -0.288,3.007 1.33,1.831 Z"/></g><g transform="translate(59.5208,54.5814)" id="g20"><path id="path22" d="M 0,0 -1.33,1.831 0.288,3.007 1.618,1.176 Z"/></g><g transform="translate(59.72,57.3138)" id="g24"><path id="path26" d="m 0,0 -0.618,1.902 2.152,0.7 0.618,-1.903 z"/></g><path id="path28" d="m 59.335,59.047 h -2 v 2.263 h 2 z"/><path id="path30" d="M 7,7 H 4 v 2 h 3 z"/><path id="path32" d="m 17,7 h -6 v 2 h 6 z"/><path id="path34" d="M 10,10 H 8 v 3 h 2 z"/><path id="path36" d="M 10,3 H 8 v 3 h 2 z"/><path id="path38" d="m 0,56.001 h 5 v 2 H 0 Z"/><path id="path40" d="M 11,59 H 5 v 2 h 6 z"/><path id="path42" d="m 33,7 h -3 v 2 h 3 z"/><path id="path44" d="m 37,4 h -4 v 2 h 4 z"/><g id="g46"><g clip-path="url(#clipPath52)" id="g48"><g transform="translate(40.3226,28.6751)" id="g54"><path id="path56" d="m 0,0 c -1.793,0 -3.585,-0.683 -4.95,-2.047 -2.729,-2.729 -2.729,-7.171 0,-9.9 2.729,-2.729 7.17,-2.729 9.899,0 C 6.271,-10.625 7,-8.867 7,-6.997 7,-5.128 6.271,-3.369 4.949,-2.047 3.585,-0.683 1.792,0 0,0 m 0,-15.993 c -2.305,0 -4.609,0.877 -6.364,2.632 -3.509,3.508 -3.509,9.218 0,12.728 3.509,3.51 9.218,3.51 12.727,0 C 8.063,-2.333 9,-4.594 9,-6.997 9,-9.401 8.063,-11.662 6.363,-13.361 4.609,-15.116 2.304,-15.993 0,-15.993"/></g><g transform="translate(48.1009,12.4857)" id="g58"><path id="path60" d="M 0,0 -2.829,2.828 -1.415,4.242 1.414,1.414 Z"/></g><g transform="translate(50.929,13.0716)" id="g62"><path id="path64" d="M 0,0 C -0.534,0 -1.036,-0.208 -1.414,-0.586 -1.792,-0.964 -2,-1.466 -2,-2 c 0,-0.534 0.208,-1.036 0.586,-1.414 l 7.07,-7.071 c 0.756,-0.756 2.073,-0.756 2.829,0 0.378,0.378 0.586,0.88 0.586,1.414 0,0.534 -0.208,1.036 -0.586,1.414 L 1.414,-0.586 C 1.036,-0.208 0.534,0 0,0 m 7.071,-13.071 c -1.068,0 -2.073,0.416 -2.829,1.172 l -7.07,7.071 C -3.584,-4.073 -4,-3.069 -4,-2 c 0,1.068 0.416,2.072 1.172,2.828 1.511,1.512 4.145,1.512 5.656,0 l 7.071,-7.071 c 0.756,-0.755 1.172,-1.759 1.172,-2.828 0,-1.069 -0.416,-2.073 -1.172,-2.828 -0.755,-0.756 -1.759,-1.172 -2.828,-1.172"/></g><g transform="translate(51.636,8.9505)" id="g66"><path id="path68" d="M 0,0 -1.414,1.414 0,2.828 1.414,1.414 Z"/></g><g transform="translate(54.4642,6.1214)" id="g70"><path id="path72" d="M 0,0 -1.414,1.414 0,2.828 1.414,1.414 Z"/></g><g transform="translate(57.2933,3.2933)" id="g74"><path id="path76" d="M 0,0 -1.414,1.414 0,2.828 1.414,1.414 Z"/></g><g transform="translate(32.0003,14.0003)" id="g78"><path id="path80" d="M 0,0 H -17 V 50 H 10.414 L 20,40.414 V 3 H 18 V 39.586 L 9.586,48 H -15 V 2 H 0 Z"/></g><g transform="translate(43.0003,55.0003)" id="g82"><path id="path84" d="M 0,0 H 5.586 L 0,5.586 Z m 8,-2 h -9 c -0.553,0 -1,0.447 -1,1 v 9 c 0,0.404 0.243,0.77 0.617,0.924 0.373,0.157 0.803,0.07 1.09,-0.217 l 9,-9 C 8.993,-0.579 9.078,-1.009 8.924,-1.383 8.769,-1.757 8.404,-2 8,-2"/></g><path id="path86" d="m 13,51 h 2 v 2 h -2 z m 4,-2 h -6 v 6 h 6 z"/><path id="path88" d="m 7,42 h 8 v 2 H 7 Z M 17,40 H 5 v 6 h 12 z"/><path id="path90" d="m 2,33 h 13 v 2 H 2 Z M 17,31 H 0 v 6 h 17 z"/><path id="path92" d="m 10,24 h 5 v 2 h -5 z m 7,-2 H 8 v 6 h 9 z"/><g transform="translate(25.0003,36.0003)" id="g94"><path id="path96" d="m 0,0 c -2.757,0 -5,-2.243 -5,-5 0,-2.757 2.243,-5 5,-5 2.757,0 5,2.243 5,5 0,2.757 -2.243,5 -5,5 m 0,-12 c -3.86,0 -7,3.141 -7,7 0,3.859 3.14,7 7,7 3.859,0 7,-3.141 7,-7 0,-3.859 -3.141,-7 -7,-7"/></g><g transform="translate(25.0003,28.5863)" id="g98"><path id="path100" d="M 0,0 -2.707,2.707 -1.293,4.121 0,2.828 2.293,5.121 3.707,3.707 Z"/></g><g transform="translate(25.0003,52.0003)" id="g102"><path id="path104" d="m 0,0 c -2.757,0 -5,-2.243 -5,-5 0,-2.757 2.243,-5 5,-5 2.757,0 5,2.243 5,5 0,2.757 -2.243,5 -5,5 m 0,-12 c -3.86,0 -7,3.141 -7,7 0,3.859 3.14,7 7,7 3.859,0 7,-3.141 7,-7 0,-3.859 -3.141,-7 -7,-7"/></g><g transform="translate(25.0003,44.5863)" id="g106"><path id="path108" d="M 0,0 -2.707,2.707 -1.293,4.121 0,2.828 2.293,5.121 3.707,3.707 Z"/></g><g transform="translate(61.6233,40.0374)" id="g110"><path id="path112" d="m 0,0 -7.614,-7.614 -1.09,1.081 8.189,8.19 C -0.305,1.121 -0.138,0.566 0,0 m -1.01,-8.838 c -0.579,-1.151 -1.328,-2.205 -2.211,-3.136 l -0.464,0.461 z m 1.387,5.801 c 0,-0.581 -0.053,-1.15 -0.128,-1.714 l -5.353,-5.353 -1.09,1.082 6.545,6.544 c 0.007,-0.186 0.026,-0.371 0.026,-0.559 m -10.858,14.849 -0.284,-1.981 c 2.752,-0.393 5.209,-1.657 7.112,-3.484 l -7.677,-7.677 1.414,-1.414 7.594,7.593 c 0.316,-0.413 0.615,-0.841 0.881,-1.29 l -9.889,-9.889 0.209,-0.209 -0.206,-0.208 6.624,-6.572 c -1.725,-1.337 -3.79,-2.262 -6.062,-2.586 l 0.284,-1.981 c 7.33,1.049 12.858,7.433 12.858,14.849 0,7.416 -5.528,13.8 -12.858,14.849"/></g><path id="path114" d="M 39,57 H 18 v 2 h 21 z"/><path id="path116" d="m 39,53 h -9 v 2 h 9 z"/><path id="path118" d="M 48,49 H 33 v 2 h 15 z"/><path id="path120" d="M 48,45 H 33 v 2 h 15 z"/><path id="path122" d="M 48,41 H 33 v 2 h 15 z"/><path id="path124" d="M 48,37 H 33 v 2 h 15 z"/><path id="path126" d="M 48,33 H 33 v 2 h 15 z"/><path id="path128" d="M 30,19 H 19 v 2 h 11 z"/><g transform="translate(37.0003,22.0003)" id="g130"><path id="path132" d="m 0,0 h -2 c 0,2.757 2.243,5 5,5 V 3 C 1.346,3 0,1.654 0,0"/></g></g></g></g></svg>