<svg xmlns="http://www.w3.org/2000/svg" xmlns:xlink="http://www.w3.org/1999/xlink" width="36" height="36" viewBox="0 0 36 36"><defs><path id="raf6a" d="M958.999 403.998c-9.926 0-18-8.076-18-18 0-9.926 8.074-18 18-18H959.045a18.219 18.219 0 0 1 .955.026c5.177.251 9.636 2.502 12.898 6.51.177.219.356.448.531.683.07.081.153.198.272.367a17.836 17.836 0 0 1 3.292 9.897h.004v.193a18.25 18.25 0 0 1 .002.284v.04c0 9.924-8.075 18-18 18zm-17.044-18c0 5.003 2.167 9.51 5.61 12.63l2.956-3.328a12.579 12.579 0 0 1-4.095-9.292c0-5.432 3.454-10.073 8.28-11.841l-1.327-4.261c-6.646 2.327-11.424 8.662-11.424 16.092zM959 403.043c9.167 0 16.667-7.275 17.03-16.355h-.01l.001-.034.006-.13h-.008v-.087h-4.382c-.227 6.753-5.793 12.18-12.603 12.18a12.545 12.545 0 0 1-7.783-2.698l-2.958 3.332A16.962 16.962 0 0 0 959 403.043zm.034-28.685c-6.424 0-11.651 5.227-11.651 11.65 0 6.424 5.227 11.652 11.651 11.652 6.283 0 11.42-4.997 11.647-11.223h-.031v-.479c0-2.47-.767-4.83-2.22-6.823a11.62 11.62 0 0 0-9.396-4.777zm17.002 11.123c-.265-8.856-7.318-16.036-16.123-16.503a19.882 19.882 0 0 0-.895-.024c-1.597.001-2.995.202-4.72.685l1.318 4.226a12.528 12.528 0 0 1 3.421-.473c2.891 0 5.676 1.009 7.89 2.79a12.591 12.591 0 0 1 4.707 9.299zm-16.559-7.747h-.956v-2.165h.956zm4.069 1.347l-.83-.478 1.084-1.875.828.477zm2.847 3.2l-.478-.828 1.878-1.084.477.828zm3.036 4.194h-2.167v-.956h2.167zm-1.636 5.151l-1.878-1.084.478-.827 1.877 1.083zm-3.993 3.643l-1.084-1.876.83-.479 1.082 1.877zm-4.323 1.157h-.956v-2.166h.956zm-5.278-1.157l-.827-.478 1.082-1.877.827.48zm-3.993-3.643l-.477-.828 1.876-1.083.478.828zm.53-5.15h-2.165v-.957h2.165zm.868-4.195l-1.875-1.084.477-.828 1.877 1.084zm2.85-3.2l-1.082-1.876.827-.477 1.082 1.875zm4.98 6.909a.473.473 0 0 1-.269-.083.481.481 0 0 1-.448.313.48.48 0 0 1-.318-.121l-.177-.158a.775.775 0 0 0 .777.836.779.779 0 0 0 .768-.922.477.477 0 0 1-.332.135zm-5.505-3.889a.479.479 0 0 1 .637-.713l3.51 3.14a1.735 1.735 0 0 1 1.68-.094l3.86-4.316a.477.477 0 1 1 .713.637l-3.86 4.316a1.74 1.74 0 0 1-.176 2.085 1.73 1.73 0 0 1-1.294.577 1.739 1.739 0 0 1-1.561-2.494zm5.058 3.24a.474.474 0 0 1 .069-.122.786.786 0 0 0-.056-.002h.057H959a.794.794 0 0 0-.14.012z"/></defs><g><g transform="translate(-941 -368)"><use xlink:href="#raf6a"/></g></g></svg>