<?xml version="1.0" encoding="UTF-8" standalone="no"?>
<svg xmlns:dc="http://purl.org/dc/elements/1.1/" xmlns:cc="http://creativecommons.org/ns#" xmlns:rdf="http://www.w3.org/1999/02/22-rdf-syntax-ns#" xmlns:svg="http://www.w3.org/2000/svg" xmlns="http://www.w3.org/2000/svg" viewBox="0 0 85.369865 85.333336" height="85.333336" width="85.369865" xml:space="preserve" id="svg2" version="1.1"><metadata id="metadata8"><rdf:RDF><cc:Work rdf:about=""><dc:format>image/svg+xml</dc:format><dc:type rdf:resource="http://purl.org/dc/dcmitype/StillImage"/></cc:Work></rdf:RDF></metadata><defs id="defs6"><clipPath id="clipPath58" clipPathUnits="userSpaceOnUse"><path id="path56" d="M 0,64 H 64.027 V 0 H 0 Z"/></clipPath></defs><g transform="matrix(1.3333333,0,0,-1.3333333,0,85.333333)" id="g10"><path id="path12" d="M 7,41 H 4 v -2 h 3 z"/><path id="path14" d="m 11,39 h 6 v 2 h -6 z"/><path id="path16" d="M 10,45 H 8 v -3 h 2 z"/><path id="path18" d="m 8,35 h 2 v 3 H 8 Z"/><path id="path20" d="M 7,29 H 5 v -2 h 2 z"/><path id="path22" d="m 1,27 h 2 v 2 H 1 Z"/><path id="path24" d="M 5,31 H 3 v -2 h 2 z"/><path id="path26" d="M 5,27 H 3 v -2 h 2 z"/><path id="path28" d="m 32,45 h -5 v -2 h 5 z"/><path id="path30" d="m 27,48 h -6 v -2 h 6 z"/><path id="path32" d="m 62,33 h -2 v -2 h 2 z"/><path id="path34" d="m 56,31 h 2 v 2 h -2 z"/><path id="path36" d="m 60,35 h -2 v -2 h 2 z"/><path id="path38" d="m 60,31 h -2 v -2 h 2 z"/><path id="path40" d="m 49,59 h -2 v -2 h 2 z"/><path id="path42" d="m 45,59 h -2 v -2 h 2 z"/><path id="path44" d="m 47,61 h -2 v -2 h 2 z"/><path id="path46" d="m 45,55 h 2 v 2 h -2 z"/><path id="path48" d="m 57,58 h -5 v -2 h 5 z"/><path id="path50" d="m 63,61 h -6 v -2 h 6 z"/><g id="g52"><g clip-path="url(#clipPath58)" id="g54"><g transform="translate(23.3031,17.5022)" id="g60"><path id="path62" d="m 0,0 -0.987,-0.506 c 0.784,4.738 4.898,8.366 9.854,8.366 4.433,0 8.384,-2.974 9.61,-7.232 L 20.398,1.18 C 18.929,6.291 14.187,9.86 8.867,9.86 3.024,9.86 -1.85,5.66 -2.912,0.122 L -3.413,1.1 -5.193,0.188 -3.125,-3.848 0.912,-1.78 Z"/></g><g transform="translate(39.7856,15.2776)" id="g64"><path id="path66" d="m 0,0 0.912,-1.78 0.987,0.506 C 1.115,-6.012 -2.999,-9.64 -7.955,-9.64 c -4.434,0 -8.385,2.973 -9.609,7.232 l -1.922,-0.552 c 1.469,-5.111 6.211,-8.68 11.531,-8.68 5.842,0 10.717,4.2 11.778,9.737 L 4.325,-2.88 6.104,-1.968 4.036,2.069 Z"/></g><g transform="translate(48.7709,2.0002)" id="g68"><path id="path70" d="m 0,0 h -36.082 c -5.894,0 -10.689,4.71 -10.689,10.5 0,5.79 4.795,10.5 10.689,10.5 1.176,0 2.353,-0.198 3.495,-0.587 l 1.633,-0.557 -0.328,1.693 c -0.161,0.83 -0.242,1.654 -0.242,2.451 0,7.065 5.244,12 12.753,12 6.955,0 12.507,-4.037 13.503,-9.818 l 0.194,-1.123 1.089,0.338 C -2.696,25.797 -1.355,26 0,26 7.295,26 13.229,20.168 13.229,13 13.229,5.832 7.295,0 0,0 M 0,28 C -1.192,28 -2.375,27.863 -3.529,27.593 -5.149,33.773 -11.251,38 -18.771,38 c -8.548,0 -14.753,-5.888 -14.753,-14 0,-0.42 0.019,-0.845 0.057,-1.274 -0.864,0.182 -1.739,0.274 -2.615,0.274 -6.997,0 -12.689,-5.607 -12.689,-12.5 0,-6.893 5.692,-12.5 12.689,-12.5 H 0 c 8.397,0 15.23,6.729 15.23,15 0,8.271 -6.833,15 -15.23,15"/></g><path id="path72" d="m 47,22 h 2 v 2 h -2 z"/><path id="path74" d="m 47,18 h 2 v 2 h -2 z"/><path id="path76" d="m 47,14 h 2 v 2 h -2 z"/><path id="path78" d="m 47,10 h 2 v 2 h -2 z"/><path id="path80" d="m 47,6 h 2 v 2 h -2 z"/><path id="path82" d="m 51,18 h 2 v 2 h -2 z"/><path id="path84" d="m 51,14 h 2 v 2 h -2 z"/><path id="path86" d="m 51,10 h 2 v 2 h -2 z"/><path id="path88" d="m 51,6 h 2 v 2 h -2 z"/><path id="path90" d="m 55,14 h 2 v 2 h -2 z"/><path id="path92" d="m 55,10 h 2 v 2 h -2 z"/><path id="path94" d="m 55,6 h 2 v 2 h -2 z"/><path id="path96" d="m 15,18 h 2 v 2 h -2 z"/><path id="path98" d="m 15,14 h 2 v 2 h -2 z"/><path id="path100" d="m 15,10 h 2 v 2 h -2 z"/><path id="path102" d="m 15,6 h 2 v 2 h -2 z"/><path id="path104" d="m 11,14 h 2 v 2 h -2 z"/><path id="path106" d="m 11,10 h 2 v 2 h -2 z"/><path id="path108" d="m 11,6 h 2 v 2 h -2 z"/><path id="path110" d="m 7,10 h 2 v 2 H 7 Z"/><path id="path112" d="M 7,6 H 9 V 8 H 7 Z"/><g transform="translate(3.1078,62.0002)" id="g114"><path id="path116" d="m 0,0 h 19.893 c 0.294,0 0.571,-0.128 0.761,-0.353 0.194,-0.228 0.273,-0.52 0.224,-0.823 C 20.803,-1.638 20.323,-2 19.785,-2 h -0.892 c -1.655,0 -3,-1.346 -3,-3 0,-1.655 1.345,-3 3,-3 h 6.892 c 0.537,0 1.018,-0.362 1.093,-0.825 0.05,-0.303 -0.029,-0.595 -0.223,-0.822 C 26.464,-9.872 26.187,-10 25.893,-10 h -17 C 8.599,-10 8.32,-9.872 8.13,-9.648 7.937,-9.42 7.857,-9.128 7.906,-8.825 7.982,-8.362 8.462,-8 9,-8 h 1.893 c 1.654,0 3,1.345 3,3 0,1.654 -1.346,3 -3,3 h -11 c -0.294,0 -0.573,0.128 -0.763,0.352 -0.193,0.228 -0.273,0.52 -0.224,0.823 C -1.018,-0.362 -0.538,0 0,0 m -0.107,-4 h 11 c 0.55,0 1,-0.449 1,-1 0,-0.552 -0.45,-1 -1,-1 H 9 C 7.483,-6 6.165,-7.077 5.933,-8.503 5.79,-9.382 6.035,-10.272 6.606,-10.943 7.178,-11.615 8.011,-12 8.893,-12 h 17 c 0.88,0 1.714,0.385 2.286,1.057 0.571,0.672 0.816,1.561 0.673,2.44 C 28.619,-7.077 27.301,-6 25.785,-6 h -6.892 c -0.552,0 -1,0.448 -1,1 0,0.551 0.448,1 1,1 h 0.892 c 1.517,0 2.835,1.076 3.067,2.503 0.143,0.879 -0.103,1.768 -0.674,2.44 C 21.606,1.615 20.773,2 19.893,2 H 0 C -1.517,2 -2.835,0.923 -3.067,-0.503 -3.21,-1.382 -2.965,-2.272 -2.394,-2.943 -1.822,-3.615 -0.989,-4 -0.107,-4"/></g><g transform="translate(31.0004,62.0002)" id="g118"><path id="path120" d="M 0,0 H 3 C 3.551,0 4,-0.449 4,-1 4,-1.552 3.551,-2 3,-2 H 0 c -0.552,0 -1,0.448 -1,1 0,0.551 0.448,1 1,1 m 0,-4 h 3 c 1.654,0 3,1.345 3,3 C 6,0.654 4.654,2 3,2 H 0 c -1.654,0 -3,-1.346 -3,-3 0,-1.655 1.346,-3 3,-3"/></g><g transform="translate(49.2377,48.6472)" id="g122"><path id="path124" d="m 0,0 c 0.19,0.225 0.469,0.353 0.763,0.353 h 10.92 c 0.537,0 1.017,-0.362 1.092,-0.824 0.05,-0.303 -0.03,-0.596 -0.223,-0.824 -0.191,-0.224 -0.469,-0.352 -0.762,-0.352 H 9.763 c -1.655,0 -3,-1.346 -3,-3 0,-1.655 1.345,-3 3,-3 h 1.892 c 0.537,0 1.018,-0.362 1.092,-0.825 0.05,-0.303 -0.029,-0.595 -0.223,-0.823 -0.19,-0.224 -0.468,-0.352 -0.761,-0.352 h -17 c -0.294,0 -0.573,0.128 -0.763,0.352 -0.193,0.228 -0.272,0.52 -0.224,0.823 0.077,0.463 0.556,0.825 1.094,0.825 h 6.893 c 1.654,0 3,1.345 3,3 0,1.654 -1.346,3 -3,3 H 0.869 c -0.537,0 -1.017,0.361 -1.092,0.824 C -0.272,-0.52 -0.193,-0.228 0,0 m -2.197,-1.143 c 0.231,-1.427 1.55,-2.504 3.066,-2.504 h 0.894 c 0.551,0 1,-0.449 1,-1 0,-0.552 -0.449,-1 -1,-1 H -5.13 c -1.516,0 -2.835,-1.077 -3.067,-2.503 -0.143,-0.879 0.102,-1.769 0.674,-2.44 0.571,-0.672 1.404,-1.057 2.286,-1.057 h 17 c 0.881,0 1.714,0.385 2.285,1.057 0.571,0.672 0.816,1.561 0.674,2.438 -0.232,1.428 -1.55,2.505 -3.067,2.505 H 9.763 c -0.552,0 -1,0.448 -1,1 0,0.551 0.448,1 1,1 h 2.027 c 0.881,0 1.714,0.385 2.285,1.057 0.571,0.671 0.818,1.56 0.675,2.44 -0.232,1.426 -1.552,2.503 -3.067,2.503 H 0.763 c -0.882,0 -1.715,-0.385 -2.286,-1.058 -0.572,-0.671 -0.817,-1.561 -0.674,-2.438"/></g><g transform="translate(40.0004,49.0002)" id="g126"><path id="path128" d="M 0,0 H 2 C 2.551,0 3,-0.449 3,-1 3,-1.552 2.551,-2 2,-2 H 0 c -0.552,0 -1,0.448 -1,1 0,0.551 0.448,1 1,1 m 0,-4 h 2 c 1.654,0 3,1.345 3,3 C 5,0.654 3.654,2 2,2 H 0 c -1.654,0 -3,-1.346 -3,-3 0,-1.655 1.346,-3 3,-3"/></g></g></g></g></svg>