<?xml version="1.0" encoding="UTF-8" standalone="no"?>
<svg xmlns:dc="http://purl.org/dc/elements/1.1/" xmlns:cc="http://creativecommons.org/ns#" xmlns:rdf="http://www.w3.org/1999/02/22-rdf-syntax-ns#" xmlns:svg="http://www.w3.org/2000/svg" xmlns="http://www.w3.org/2000/svg" viewBox="0 0 86.309998 86.309334" height="86.309334" width="86.309998" xml:space="preserve" id="svg2" version="1.1"><metadata id="metadata8"><rdf:RDF><cc:Work rdf:about=""><dc:format>image/svg+xml</dc:format><dc:type rdf:resource="http://purl.org/dc/dcmitype/StillImage"/></cc:Work></rdf:RDF></metadata><defs id="defs6"><clipPath id="clipPath18" clipPathUnits="userSpaceOnUse"><path id="path16" d="M 0,64.732 H 64.733 V 0 H 0 Z"/></clipPath></defs><g transform="matrix(1.3333333,0,0,-1.3333333,0,86.309333)" id="g10"><g id="g12"><g clip-path="url(#clipPath18)" id="g14"><g transform="translate(2.5004,15.7322)" id="g20"><path id="path22" d="M 0,0 C -0.275,0 -0.5,0.225 -0.5,0.5 -0.5,0.776 -0.275,1 0,1 0.275,1 0.5,0.776 0.5,0.5 0.5,0.225 0.275,0 0,0 M 0,3 C -1.379,3 -2.5,1.879 -2.5,0.5 -2.5,-0.879 -1.379,-2 0,-2 1.379,-2 2.5,-0.879 2.5,0.5 2.5,1.879 1.379,3 0,3"/></g><g transform="translate(8.1635,9.6467)" id="g24"><path id="path26" d="m 0,0 -2.854,0.928 -0.619,-1.903 2.854,-0.927 z"/></g><g transform="translate(5.8266,5.1799)" id="g28"><path id="path30" d="M 0,0 1.617,-1.176 3.381,1.251 1.764,2.427 Z"/></g><g transform="translate(9.3529,6.4309)" id="g32"><path id="path34" d="M 0,0 1.763,-2.427 3.382,-1.251 1.619,1.176 Z"/></g><g transform="translate(13.8695,8.6721)" id="g36"><path id="path38" d="M 0,0 -0.619,1.902 -3.472,0.975 -2.853,-0.928 Z"/></g><path id="path40" d="m 10.281,12.733 h -2 v -3 h 2 z"/><path id="path42" d="m 54,38.733 h 2 v 2 h -2 z"/><path id="path44" d="m 58,38.733 h 2 v 2 h -2 z"/><path id="path46" d="m 58,42.733 h -2 v -2 h 2 z"/><path id="path48" d="m 56,36.733 h 2 v 2 h -2 z"/><path id="path50" d="m 27,0.733 h 2 v 2 h -2 z"/><path id="path52" d="m 31,0.733 h 2 v 2 h -2 z"/><path id="path54" d="m 35,0.733 h 2 v 2 h -2 z"/><path id="path56" d="m 19,5.733 h 5 v 2 h -5 z"/><path id="path58" d="m 24,8.733 h 6 v 2 h -6 z"/><g transform="translate(56.0004,53.7327)" id="g60"><path id="path62" d="m 0,0 c -0.552,0 -1,0.448 -1,1 h -2 c 0,-1.302 0.838,-2.402 2,-2.816 V -2.5 h 2 v 0.684 C 2.161,-1.402 3,-0.302 3,1 3,2.638 1.659,3.297 0.681,3.778 L 0.201,4.016 C -0.787,4.501 -1,4.676 -1,5 -1,5.551 -0.552,6 0,6 0.552,6 1,5.551 1,5 H 3 C 3,6.301 2.161,7.401 1,7.815 V 8.5 H -1 V 7.815 C -2.162,7.401 -3,6.301 -3,5 -3,3.361 -1.659,2.702 -0.681,2.221 l 0.48,-0.238 C 0.787,1.498 1,1.323 1,1 1,0.448 0.552,0 0,0"/></g><g transform="translate(56.0004,62.7322)" id="g64"><path id="path66" d="m 0,0 c 3.309,0 6,-2.692 6,-6 0,-3.308 -2.691,-6 -6,-6 -3.309,0 -6,2.692 -6,6 0,3.308 2.691,6 6,6 m 0,-14 c 4.411,0 8,3.589 8,8 0,4.411 -3.589,8 -8,8 -4.411,0 -8,-3.589 -8,-8 0,-4.411 3.589,-8 8,-8"/></g><g transform="translate(26.0004,26.8123)" id="g68"><path id="path70" d="m 0,0 c 3.386,0.488 6,3.401 6,6.92 0,3.671 -2.969,5.131 -5.84,6.542 l -1.438,0.711 C -4.206,15.613 -6,16.612 -6,18.92 c 0,2.757 2.243,5 5,5 2.757,0 5,-2.243 5,-5 h 2 c 0,3.519 -2.614,6.433 -6,6.92 v 2.08 h -2 v -2.08 c -3.387,-0.487 -6,-3.401 -6,-6.92 0,-3.67 2.969,-5.13 5.84,-6.542 l 1.438,-0.711 C 2.206,10.228 4,9.229 4,6.92 c 0,-2.756 -2.243,-5 -5,-5 -2.757,0 -5,2.244 -5,5 H -8 C -8,3.401 -5.387,0.488 -2,0 v -2.08 h 2 z"/></g><g transform="translate(32.973,18.1506)" id="g72"><path id="path74" d="m 0,0 c -2.546,-0.94 -5.229,-1.418 -7.973,-1.418 -12.682,0 -23,10.317 -23,23 0,12.682 10.318,23 23,23 12.683,0 23,-10.318 23,-23 0,-2.633 -0.44,-5.212 -1.307,-7.668 l 1.884,-0.666 c 0.945,2.67 1.423,5.474 1.423,8.334 0,13.785 -11.215,25 -25,25 -13.785,0 -25,-11.215 -25,-25 0,-13.785 11.215,-25 25,-25 2.982,0 5.898,0.519 8.666,1.543 z"/></g><path id="path76" d="m 26,61.732 h -2 v -2 h 2 z"/><path id="path78" d="m 24,17.733 h 2 v 2 h -2 z"/><g transform="translate(19.1,58.8684)" id="g80"><path id="path82" d="M 0,0 -0.685,1.879 -2.563,1.194 -1.879,-0.685 Z"/></g><g transform="translate(11.6264,57.2278)" id="g84"><path id="path86" d="m 0,0 -1.533,-1.285 1.285,-1.532 1.533,1.285 z"/></g><g transform="translate(6.4486,51.5989)" id="g88"><path id="path90" d="m 0,0 -1,-1.732 1.731,-1 1,1.732 z"/></g><g transform="translate(5.4789,44.1897)" id="g92"><path id="path94" d="m 0,0 -1.97,0.348 -0.347,-1.969 1.969,-0.348 z"/></g><g transform="translate(5.4779,35.2747)" id="g96"><path id="path98" d="M 0,0 -0.347,1.969 -2.315,1.622 -1.97,-0.347 Z"/></g><g transform="translate(46.8402,42.5686)" id="g100"><path id="path102" d="M 0,0 -0.348,1.969 -2.317,1.621 -1.97,-0.348 Z"/></g><g transform="translate(8.1801,28.8665)" id="g104"><path id="path106" d="m 0,0 -1,1.732 -1.731,-1 1,-1.732 z"/></g><g transform="translate(41.8217,50.5989)" id="g108"><path id="path110" d="m 0,0 1,-1.732 1.731,1 -1,1.732 z"/></g><g transform="translate(10.0932,23.5217)" id="g112"><path id="path114" d="M 0,0 1.533,-1.285 2.818,0.247 1.285,1.532 Z"/></g><g transform="translate(39.9086,55.9426)" id="g116"><path id="path118" d="m 0,0 -1.533,1.285 -1.285,-1.532 1.533,-1.285 z"/></g><g transform="translate(18.4154,18.717)" id="g120"><path id="path122" d="M 0,0 0.685,1.88 -1.194,2.563 -1.879,0.684 Z"/></g><g transform="translate(33.4642,60.0637)" id="g124"><path id="path126" d="m 0,0 -1.879,0.684 -0.684,-1.88 1.879,-0.683 z"/></g><g transform="translate(51.1439,10.76)" id="g128"><path id="path130" d="M 0,0 -1.396,-4.368 -7.842,10.671 7.283,4.188 2.964,2.693 10.761,-5.104 7.932,-7.932 Z m 6.638,1.848 6.186,2.141 -24.472,10.489 10.523,-24.559 2.031,6.347 7.026,-7.026 5.657,5.656 z"/></g><g transform="translate(37.8627,28.2844)" id="g132"><path id="path134" d="M 0,0 -4.596,4.596 -6.01,3.182 -1.414,-1.414 Z"/></g><g transform="translate(29.2592,26.9749)" id="g136"><path id="path138" d="m 0,0 -0.518,-1.932 6.28,-1.681 0.517,1.931 z"/></g><g transform="translate(28.7416,19.8577)" id="g140"><path id="path142" d="M 0,0 0.518,-1.932 6.797,-0.249 6.279,1.683 Z"/></g><g transform="translate(55.8226,25.0432)" id="g144"><path id="path146" d="M 0,0 -0.518,1.932 -6.796,0.25 -6.278,-1.682 Z"/></g><g transform="translate(36.4486,18.0315)" id="g148"><path id="path150" d="m 0,0 -4.596,-4.597 1.414,-1.414 4.596,4.597 z"/></g><g transform="translate(46.7016,28.2844)" id="g152"><path id="path154" d="M 0,0 1.414,-1.414 6.011,3.182 4.597,4.596 Z"/></g><g transform="translate(37.7582,9.428)" id="g156"><path id="path158" d="M 0,0 1.932,-0.518 3.613,5.761 1.682,6.278 Z"/></g><g transform="translate(46.807,35.4739)" id="g160"><path id="path162" d="m 0,0 -1.932,0.518 -1.682,-6.28 1.931,-0.517 z"/></g><g transform="translate(41.3715,29.7122)" id="g164"><path id="path166" d="m 0,0 -1.682,6.279 -1.931,-0.517 1.681,-6.28 z"/></g></g></g></g></svg>