<svg xmlns="http://www.w3.org/2000/svg" xmlns:xlink="http://www.w3.org/1999/xlink" width="36" height="35" viewBox="0 0 36 35"><defs><path id="rgxua" d="M942 746.733c0-2.67.717-5.546 2.294-5.546h1.83c.455-.821.999-1.602 1.62-2.323l.903-4.68a1.432 1.432 0 0 1 1.674-1.14l4.83.956c1.915-.641 3.93-.97 5.991-.982.635-2.87 3.17-5.021 6.192-5.021 3.5 0 6.346 2.884 6.346 6.427 0 .984-.22 1.918-.612 2.752 3.043 2.584 4.93 6.155 4.93 10.096 0 5.166-3.257 9.896-8.527 12.423v2.717a.58.58 0 0 1-.576.585h-4.026a.58.58 0 0 1-.576-.585v-1.123c-2.51.391-5.083.291-7.506-.281v1.404c0 .322-.26.585-.577.585h-4.028a.581.581 0 0 1-.576-.585v-3.495c-2.727-1.642-4.844-3.98-6.016-6.638h-1.296c-1.577 0-2.295-2.874-2.295-5.546zm1.153 0c0 2.843.81 4.377 1.14 4.377.331 0 1.14-1.534 1.14-4.377 0-2.844-.809-4.378-1.14-4.378-.33 0-1.14 1.534-1.14 4.378zm10.316-4.567h-1.154c0-.645-.517-1.17-1.155-1.17-.635 0-1.153.525-1.153 1.17h-1.154c0-1.29 1.035-2.339 2.307-2.339 1.273 0 2.309 1.05 2.309 2.339zm7.793-3.405c.486 0 .967.018 1.442.053a6.448 6.448 0 0 1-1.71-4.625c-1.937.029-3.826.35-5.62.967a.55.55 0 0 1-.295.02l-4.981-.984c-.165-.035-.29.069-.32.218l-.932 4.832a.602.602 0 0 1-.135.277 12.764 12.764 0 0 0-1.733 2.524.574.574 0 0 1-.51.312h-.693c.552 1.083.812 2.768.812 4.378 0 1.61-.26 3.294-.812 4.377h.197c.233 0 .445.144.533.363 1.076 2.664 3.193 5.007 5.963 6.599a.59.59 0 0 1 .291.51v3.246h2.874v-1.573a.59.59 0 0 1 .227-.464.57.57 0 0 1 .502-.098c2.688.748 5.601.868 8.4.328a.575.575 0 0 1 .475.124c.132.11.21.276.21.45v1.233h2.87v-2.506c0-.23.133-.44.342-.533 5.049-2.293 8.186-6.707 8.186-11.517 0-3.523-1.67-6.724-4.374-9.078a6.378 6.378 0 0 1-3.15 2.334c.848.399 1.65.859 2.401 1.372v1.425a16.313 16.313 0 0 0-4.75-2.485 6.235 6.235 0 0 1-2.339-.601 18.448 18.448 0 0 0-3.371-.308c-.09 0-.181.003-.273.005v-1.17c.092 0 .182-.005.273-.005zm6.072-9.595c-2.862 0-5.191 2.359-5.191 5.258 0 2.05 1.164 3.83 2.858 4.696a18.78 18.78 0 0 1 2.168.56l.165.002c2.864 0 5.193-2.359 5.193-5.258 0-2.9-2.33-5.258-5.193-5.258z"/></defs><g><g transform="translate(-942 -728)"><use xlink:href="#rgxua"/></g></g></svg>