<svg id="Layer_1" data-name="Layer 1" xmlns="http://www.w3.org/2000/svg" viewBox="0 0 60.2 64"><defs/><title>00</title><rect class="cls-1" x="37" y="859.96" width="2" height="3" transform="translate(-823.2 -193.13) rotate(-72.01)"/><rect class="cls-1" x="37.59" y="863.82" width="3" height="2" transform="translate(-713.64 -436.56) rotate(-54)"/><rect class="cls-1" x="41.62" y="863.32" width="2" height="3" transform="translate(-530.19 -634.53) rotate(-35.99)"/><rect class="cls-1" x="42.21" y="860.46" width="3" height="2" transform="translate(-294.19 -768.98) rotate(-18)"/><rect class="cls-1" x="10" y="33" width="2" height="3"/><rect class="cls-1" x="1" y="45" width="3" height="2"/><rect class="cls-1" x="2" y="48" width="5" height="2"/><rect class="cls-1" x="1" y="55" width="3" height="2"/><rect class="cls-1" x="4" y="58" width="4" height="2"/><rect class="cls-1" x="87.09" y="880.17" width="3" height="2" transform="translate(-298.13 -754.12) rotate(-18)"/><rect class="cls-1" x="86.5" y="883.03" width="2" height="3" transform="translate(-533.34 -604.28) rotate(-36)"/><rect class="cls-1" x="82.47" y="883.53" width="3" height="2" transform="translate(-711.09 -392.13) rotate(-54)"/><rect class="cls-1" x="81.88" y="879.67" width="2" height="3" transform="translate(-810.86 -137.13) rotate(-71.99)"/><rect class="cls-1" x="55" y="53" width="2" height="3"/><rect class="cls-1" x="47.33" y="33.96" width="2" height="2"/><rect class="cls-1" x="43.33" y="33.96" width="2" height="2"/><rect class="cls-1" x="45.33" y="31.96" width="2" height="2"/><rect class="cls-1" x="45.33" y="35.96" width="2" height="2"/><rect class="cls-1" x="51" y="43" width="3" height="2"/><rect class="cls-1" x="47" y="46" width="4" height="2"/><path class="cls-2" d="M66.08,876.65c-1.12-1-3.34-3.11-3.34-5a50.93,50.93,0,0,1,.87-7.25c3.56-1.35,6.73-4.81,9-10,11.34-4.29,17.54-11.49,17.54-20.82v-.93l-13-1c.1-2,0-4,0-6.11v-1h-35v1c0,2.1.37,4.14.47,6.11l-12.47,1v.93c0,9.34,5.8,16.53,17.15,20.82,2.24,5.14,5.12,8.6,8.69,9.94a45,45,0,0,1,.82,7.25c0,1.87-2.28,4-3.4,5H47.13v2h2v8h-2v2h26v-2h-2v-8h2v-2h-7Zm21.64-42.12c-.45,9.21-7.58,14.43-14.31,17.32a70.06,70.06,0,0,0,3.42-18.15Zm-56,0,10.89-.83a69.64,69.64,0,0,0,3.42,18.15C39.34,849,32.21,843.75,31.76,834.53Zm27,37.11a49.62,49.62,0,0,0-1-8.23l-.12-.59-.57-.15c-7.56-2.33-12.5-16-12.66-36H75.11c-.17,20-5.1,33.69-12.67,36l-.57.16-.11.58a56.64,56.64,0,0,0-1,8.22,7.41,7.41,0,0,0,2.43,5H56.28A7.59,7.59,0,0,0,58.74,871.64Zm10.39,15h-18v-8h18Z" transform="translate(-30.13 -824.65)"/><rect class="cls-2" x="24" y="57" width="12" height="2"/><path class="cls-2" d="M56.93,846.17A2.41,2.41,0,0,0,59.5,848c2.76,0,3-3.67,3.11-5.95a3.71,3.71,0,0,1-3.45,1.63,4.59,4.59,0,0,1-4.67-4.94,4.9,4.9,0,0,1,5-5.22c3.89,0,5.22,3,5.22,7.19,0,5-1.08,9-5.41,9-3,0-4.26-1.8-4.55-3.6Zm-.25-7.53c0,2.12,1.18,3.31,2.88,3.31a2.64,2.64,0,0,0,2.92-2.9c0-1.76-.64-3.77-2.94-3.77C57.84,835.28,56.68,836.52,56.68,838.64Z" transform="translate(-30.13 -824.65)"/></svg>