<svg id="Layer_1" data-name="Layer 1" xmlns="http://www.w3.org/2000/svg" viewBox="0 0 46.74 64"><defs/><title>06</title><path class="cls-1" d="M1127.21,2760.65v11.09h-14.46V2781h-14.46v13h45.54v-33.37Zm14.46,27.83h-.45v2.16h.45v1.22h-41.22v-1.22h.82v-2.16h-.82v-5.3h14.46v-9.28h14.46v-11.09h12.3Z" transform="translate(-1097.09 -2730.02)"/><rect class="cls-1" x="15.9" y="58.47" width="2.4" height="2.16"/><rect class="cls-1" x="13.08" y="58.47" width="2.4" height="2.16"/><rect class="cls-1" x="18.72" y="58.47" width="2.4" height="2.16"/><rect class="cls-1" x="7.43" y="58.47" width="2.4" height="2.16"/><rect class="cls-1" x="21.55" y="58.47" width="2.4" height="2.16"/><rect class="cls-1" x="4.61" y="58.47" width="2.4" height="2.16"/><rect class="cls-1" x="10.25" y="58.47" width="2.4" height="2.16"/><rect class="cls-1" x="32.84" y="58.47" width="2.4" height="2.16"/><rect class="cls-1" x="35.66" y="58.47" width="2.4" height="2.16"/><rect class="cls-1" x="24.37" y="58.47" width="2.4" height="2.16"/><rect class="cls-1" x="38.48" y="58.47" width="2.4" height="2.16"/><rect class="cls-1" x="30.01" y="58.47" width="2.4" height="2.16"/><rect class="cls-1" x="27.19" y="58.47" width="2.4" height="2.16"/><rect class="cls-1" x="41.3" y="58.47" width="2.4" height="2.16"/><rect class="cls-1" x="19.69" y="4.9" width="2.4" height="2.16"/><rect class="cls-1" x="16.87" y="4.9" width="2.4" height="2.16"/><rect class="cls-1" x="14.05" y="4.9" width="2.4" height="2.16"/><rect class="cls-1" x="25.34" y="4.9" width="2.4" height="2.16"/><rect class="cls-1" x="30.98" y="4.9" width="2.4" height="2.16"/><rect class="cls-1" x="22.52" y="4.9" width="2.4" height="2.16"/><rect class="cls-1" x="28.16" y="4.9" width="2.4" height="2.16"/><path class="cls-1" d="M1104.88,2748.17a19.59,19.59,0,0,1,3.22,2c.23.18.4.33.55.47v.1a8.21,8.21,0,0,1-.4,2.65c-.38,1-.78,1.28-1.51,1.29a3.39,3.39,0,0,1-.51,0l.14-.2c.1-.12.19-.24.27-.32l.1-.1.36-.34-1.48-1.56-.36.32a6.94,6.94,0,0,0-.62.71,3.08,3.08,0,0,0-.7,1.73,1.76,1.76,0,0,0,.9,1.56,3.84,3.84,0,0,0,1.9.4h0a3.71,3.71,0,0,0,3.5-2.69,8.33,8.33,0,0,0,.33-1.22,15.64,15.64,0,0,0,4.4,2.5c.79.3,1.57.55,2.29.76v13.5h2.16v-12.94c.69.15,1.2.24,1.39.27h0l.1,0,.26,0c.19,0,.69-.12,1.38-.27v12.94h2.16v-13.5c.73-.21,1.5-.46,2.29-.77a15.39,15.39,0,0,0,4.4-2.49,8.21,8.21,0,0,0,.32,1.21,3.72,3.72,0,0,0,3.53,2.7,3.77,3.77,0,0,0,1.89-.4,1.75,1.75,0,0,0,.92-1.55,3.15,3.15,0,0,0-.71-1.75,7.63,7.63,0,0,0-.59-.67l-.36-.37-1.16,1.22-.22.46.36.37a2.41,2.41,0,0,1,.38.5,3.34,3.34,0,0,1-.5,0c-.74,0-1.13-.34-1.51-1.28a8.4,8.4,0,0,1-.41-2.67v-.09a16.71,16.71,0,0,1,3.77-2.45c3.09-1.57,6.39-4.81,6.41-9.21a8.86,8.86,0,0,0-.37-2.53,4.26,4.26,0,0,0-4.42-3.11,12.65,12.65,0,0,0-4.45,1V2730h-26.57v1.07s0,.65,0,1.65v1.59a12.7,12.7,0,0,0-4.44-1,4.31,4.31,0,0,0-4.44,3.11,9.22,9.22,0,0,0-.37,2.53C1098.49,2743.36,1101.8,2746.6,1104.88,2748.17Zm30.53-12a10.49,10.49,0,0,1,3.33-.73h0c1.4,0,2,.45,2.36,1.55a7.26,7.26,0,0,1,.28,1.93c0,3.42-2.8,6.06-5.22,7.28-.9.46-1.64.89-2.26,1.28.12-1.52.21-3.32.27-5.2a.52.52,0,0,0,.13.06,2.07,2.07,0,0,0,.75.12,2.43,2.43,0,0,0,1.82-.87l.44-.4-1.4-1.08-.34.38-.35-.29a.45.45,0,0,1-.24.09,2,2,0,0,1-.49-.57,3.58,3.58,0,0,1-.25-.44c0-.9,0-1.79,0-2.64C1134.58,2736.54,1135,2736.38,1135.41,2736.21Zm-25.53-4h22.27v.53c0,.52,0,1.28,0,2.21h-1.24v2.16h1.22l0,2.65h0c-.07,3.23-.2,6.72-.45,9a2.73,2.73,0,0,1-.21.84l-.16.19v.15c-1,1.81-3.72,3-5,3.52a28.63,28.63,0,0,1-3.73,1.14c-.71.17-1.24.27-1.5.31s-.79-.14-1.49-.31a25.19,25.19,0,0,1-5.72-2,7.58,7.58,0,0,1-3-2.64v-.13l-.1-.12a2.65,2.65,0,0,1-.27-.92c-.28-2.5-.41-6.58-.47-10.09v-.15c0-.47,0-.93,0-1.37h.8v-2.16h-.82c0-.91,0-1.66,0-2.18Zm-9,4.85c.34-1.1,1-1.51,2.36-1.54h0a10.58,10.58,0,0,1,3.34.72c.44.17.82.33,1.12.47v.53q0,1,0,2.1v0a4,4,0,0,1-.66,1l-.13,0s-.07,0-.18-.1l-.3-.39-1.33,1-.49.34.44.39a2.44,2.44,0,0,0,1.86.9,2,2,0,0,0,.74-.12l.13-.07c.06,1.88.15,3.69.27,5.22a24.79,24.79,0,0,0-2.27-1.29c-2.42-1.22-5.23-3.86-5.22-7.28A7.26,7.26,0,0,1,1100.91,2737Z" transform="translate(-1097.09 -2730.02)"/><polygon class="cls-1" points="19.93 56.8 22.09 56.8 22.09 48.21 35.96 48.21 35.96 36.92 40.86 36.92 40.86 56.8 43.02 56.8 43.02 34.76 33.8 34.76 33.8 46.05 19.93 46.05 19.93 56.8"/><rect class="cls-1" x="24.04" y="49.58" width="11.8" height="2.16"/><rect class="cls-1" x="24.04" y="53.35" width="11.8" height="2.16"/><rect class="cls-2" x="1106.66" y="2765.54" width="2" height="3" transform="translate(-2963.32 235.48) rotate(-72)"/><rect class="cls-2" x="1105.07" y="2762.69" width="3" height="2" transform="translate(-2876.76 -695.76) rotate(-54)"/><rect class="cls-2" x="1102.05" y="2762.19" width="2" height="3" transform="translate(-2511.11 -1553.49) rotate(-36.01)"/><rect class="cls-2" x="1100.46" y="2766.04" width="3" height="2" transform="translate(-1897.14 -2254.96) rotate(-17.97)"/><rect class="cls-2" x="6.72" y="37.6" width="2" height="3"/><rect class="cls-2" x="44.7" y="19.85" width="2" height="2"/><rect class="cls-2" x="40.7" y="19.85" width="2" height="2"/><rect class="cls-2" x="42.7" y="21.85" width="2" height="2"/><rect class="cls-2" x="42.7" y="17.85" width="2" height="2"/><rect class="cls-2" x="8" y="43.46" width="2" height="2"/><rect class="cls-2" x="4" y="43.46" width="2" height="2"/><rect class="cls-2" y="43.46" width="2" height="2"/><text class="cls-3" transform="translate(15.25 19.19)">5<tspan class="cls-4" x="8.76" y="0">0</tspan></text></svg>