<svg id="Layer_1" data-name="Layer 1" xmlns="http://www.w3.org/2000/svg" viewBox="0 0 46.74 64"><defs/><title>03</title><path class="cls-1" d="M1202.69,2760.65v11.09h-14.46V2781h-14.46v13h45.54v-33.37Zm14.46,27.83h-.46v2.16h.46v1.22h-41.22v-1.22h.82v-2.16h-.82v-5.3h14.46v-9.28h14.46v-11.09h12.3Z" transform="translate(-1172.57 -2730.02)"/><rect class="cls-1" x="15.9" y="58.47" width="2.4" height="2.16"/><rect class="cls-1" x="13.08" y="58.47" width="2.4" height="2.16"/><rect class="cls-1" x="18.72" y="58.47" width="2.4" height="2.16"/><rect class="cls-1" x="7.43" y="58.47" width="2.4" height="2.16"/><rect class="cls-1" x="21.55" y="58.47" width="2.4" height="2.16"/><rect class="cls-1" x="4.61" y="58.47" width="2.4" height="2.16"/><rect class="cls-1" x="10.25" y="58.47" width="2.4" height="2.16"/><rect class="cls-1" x="32.84" y="58.47" width="2.4" height="2.16"/><rect class="cls-1" x="35.66" y="58.47" width="2.4" height="2.16"/><rect class="cls-1" x="24.37" y="58.47" width="2.4" height="2.16"/><rect class="cls-1" x="38.48" y="58.47" width="2.4" height="2.16"/><rect class="cls-1" x="30.01" y="58.47" width="2.4" height="2.16"/><rect class="cls-1" x="27.19" y="58.47" width="2.4" height="2.16"/><rect class="cls-1" x="41.3" y="58.47" width="2.4" height="2.16"/><rect class="cls-1" x="19.69" y="4.9" width="2.4" height="2.16"/><rect class="cls-1" x="16.87" y="4.9" width="2.4" height="2.16"/><rect class="cls-1" x="14.05" y="4.9" width="2.4" height="2.16"/><rect class="cls-1" x="25.34" y="4.9" width="2.4" height="2.16"/><rect class="cls-1" x="30.98" y="4.9" width="2.4" height="2.16"/><rect class="cls-1" x="22.52" y="4.9" width="2.4" height="2.16"/><rect class="cls-1" x="28.16" y="4.9" width="2.4" height="2.16"/><path class="cls-1" d="M1180.36,2748.17a20.54,20.54,0,0,1,3.22,2c.23.18.4.33.55.47v.1a8.51,8.51,0,0,1-.4,2.65c-.39,1-.78,1.28-1.51,1.29a3.3,3.3,0,0,1-.51,0,1.86,1.86,0,0,1,.14-.2,3.21,3.21,0,0,1,.27-.32l.1-.1.36-.34-1.48-1.56-.36.32a6.94,6.94,0,0,0-.62.71,3.08,3.08,0,0,0-.7,1.73,1.76,1.76,0,0,0,.9,1.56,3.84,3.84,0,0,0,1.9.4h0a3.71,3.71,0,0,0,3.5-2.69,9.81,9.81,0,0,0,.33-1.22,15.64,15.64,0,0,0,4.4,2.5c.79.3,1.56.55,2.28.76v13.5h2.16v-12.94c.7.15,1.21.24,1.4.27h0l.1,0,.26,0c.19,0,.69-.12,1.38-.27v12.94h2.16v-13.5c.73-.21,1.5-.46,2.29-.77a15.33,15.33,0,0,0,4.39-2.49,8.2,8.2,0,0,0,.33,1.21,3.72,3.72,0,0,0,3.53,2.7,3.77,3.77,0,0,0,1.89-.4,1.74,1.74,0,0,0,.91-1.55,3.15,3.15,0,0,0-.7-1.75,7.63,7.63,0,0,0-.59-.67l-.36-.37-1.17,1.22-.21.46.36.37a2.81,2.81,0,0,1,.38.5,3.41,3.41,0,0,1-.5,0c-.74,0-1.14-.34-1.51-1.28a8.4,8.4,0,0,1-.41-2.67v-.09a16.71,16.71,0,0,1,3.77-2.45c3.09-1.57,6.39-4.81,6.41-9.21a9.22,9.22,0,0,0-.37-2.53,4.26,4.26,0,0,0-4.43-3.11,12.7,12.7,0,0,0-4.45,1c0-.58,0-1.13,0-1.62V2730h-26.57v4.31a12.7,12.7,0,0,0-4.45-1,4.3,4.3,0,0,0-4.43,3.11,8.86,8.86,0,0,0-.37,2.53C1174,2743.36,1177.27,2746.6,1180.36,2748.17Zm30.53-12a10.49,10.49,0,0,1,3.32-.73h0c1.41,0,2,.45,2.36,1.55a6.9,6.9,0,0,1,.29,1.93c0,3.42-2.8,6.06-5.22,7.28a25.69,25.69,0,0,0-2.26,1.28c.12-1.52.2-3.32.26-5.2a.84.84,0,0,0,.14.06,2,2,0,0,0,.74.12,2.43,2.43,0,0,0,1.83-.87l.44-.4-1.4-1.08-.34.38-.36-.29a.38.38,0,0,1-.23.09,2,2,0,0,1-.5-.57c-.1-.16-.18-.32-.24-.44,0-.9,0-1.79,0-2.64C1210.06,2736.54,1210.44,2736.38,1210.89,2736.21Zm-25.53-4h22.27v.53c0,.52,0,1.28,0,2.21h-1.24v2.16h1.22l0,2.65h0c-.07,3.23-.2,6.72-.45,9a2.49,2.49,0,0,1-.22.84l-.15.19v.15c-1,1.81-3.72,3-5,3.52a29.1,29.1,0,0,1-3.73,1.14c-.71.17-1.24.27-1.5.31s-.79-.14-1.49-.31a25.25,25.25,0,0,1-5.73-2,7.55,7.55,0,0,1-3-2.64v-.13l-.1-.12a3.16,3.16,0,0,1-.27-.92c-.28-2.5-.4-6.58-.46-10.09v-.15c0-.47,0-.93,0-1.37h.8v-2.16h-.82c0-.91,0-1.66,0-2.18Zm-9,4.85c.34-1.1,1-1.51,2.35-1.54h0a10.58,10.58,0,0,1,3.35.72c.44.17.82.33,1.12.47v.53q0,1,0,2.1v0a4,4,0,0,1-.66,1l-.13,0s-.07,0-.18-.1l-.3-.39-1.33,1-.49.34.44.39a2.44,2.44,0,0,0,1.86.9,2,2,0,0,0,.74-.12l.13-.07c.06,1.88.15,3.69.27,5.22a24.79,24.79,0,0,0-2.27-1.29c-2.42-1.22-5.24-3.86-5.22-7.28A7.26,7.26,0,0,1,1176.39,2737Z" transform="translate(-1172.57 -2730.02)"/><polygon class="cls-1" points="19.93 56.8 22.09 56.8 22.09 48.21 35.96 48.21 35.96 36.92 40.86 36.92 40.86 56.8 43.02 56.8 43.02 34.76 33.8 34.76 33.8 46.05 19.93 46.05 19.93 56.8"/><rect class="cls-1" x="24.04" y="49.58" width="11.8" height="2.16"/><rect class="cls-1" x="24.04" y="53.35" width="11.8" height="2.16"/><rect class="cls-2" x="1182.14" y="2765.54" width="2" height="3" transform="translate(-2986.64 307.26) rotate(-72)"/><rect class="cls-2" x="1180.55" y="2762.69" width="3" height="2" transform="translate(-2921.13 -634.7) rotate(-54)"/><rect class="cls-2" x="1177.53" y="2762.19" width="2" height="3" transform="translate(-2572.16 -1509.11) rotate(-36.01)"/><rect class="cls-2" x="1175.94" y="2766.04" width="3" height="2" transform="translate(-1968.93 -2231.67) rotate(-17.97)"/><rect class="cls-2" x="6.72" y="37.6" width="2" height="3"/><rect class="cls-2" x="44.7" y="19.85" width="2" height="2"/><rect class="cls-2" x="40.7" y="19.85" width="2" height="2"/><rect class="cls-2" x="42.7" y="21.85" width="2" height="2"/><rect class="cls-2" x="42.7" y="17.85" width="2" height="2"/><rect class="cls-2" x="8" y="43.46" width="2" height="2"/><rect class="cls-2" x="4" y="43.46" width="2" height="2"/><rect class="cls-2" y="43.46" width="2" height="2"/><text class="cls-3" transform="translate(15.25 19.19)"><tspan class="cls-4">2</tspan><tspan x="8.19" y="0">0</tspan></text></svg>