<?xml version="1.0" encoding="UTF-8" standalone="no"?>
<svg xmlns:dc="http://purl.org/dc/elements/1.1/" xmlns:cc="http://creativecommons.org/ns#" xmlns:rdf="http://www.w3.org/1999/02/22-rdf-syntax-ns#" xmlns:svg="http://www.w3.org/2000/svg" xmlns="http://www.w3.org/2000/svg" viewBox="0 0 85.546669 85.333336" height="85.333336" width="85.546669" xml:space="preserve" id="svg2" version="1.1"><metadata id="metadata8"><rdf:RDF><cc:Work rdf:about=""><dc:format>image/svg+xml</dc:format><dc:type rdf:resource="http://purl.org/dc/dcmitype/StillImage"/></cc:Work></rdf:RDF></metadata><defs id="defs6"><clipPath id="clipPath18" clipPathUnits="userSpaceOnUse"><path id="path16" d="M 0,64 H 64.16 V 0 H 0 Z"/></clipPath></defs><g transform="matrix(1.3333333,0,0,-1.3333333,0,85.333333)" id="g10"><g id="g12"><g clip-path="url(#clipPath18)" id="g14"><g transform="translate(59.0002,5.4335)" id="g20"><path id="path22" d="M 0,0 V 6.409 C 0,6.48 0.901,6.461 1.25,6.468 1.97,6.483 2.513,6.483 2.706,6.295 2.896,6.11 3.1,5.476 3.119,3.309 3.129,2.186 2,0.882 0,0 m -2,-3.434 h -9 v 12 h 1 v -6 h 2 v 6 h 1 v -3 h 2 v 3 h 3 V 7.785 -3.242 Z M 1.367,8.467 C 1.198,8.464 0.863,8.46 0.683,8.46 0.506,8.46 0,8.425 0,8.405 v 2.161 h -13 v -16 H 0 v 3.131 C 2,-1.535 5.185,0.598 5.159,3.327 5.138,5.658 4.877,6.976 4.099,7.73 3.295,8.51 2.354,8.485 1.367,8.467"/></g><path id="path24" d="m 3,13 h 11 v 2 H 3 Z"/><path id="path26" d="M 11,11 H 0 V 9 h 11 z"/><path id="path28" d="M 3,2 H 41 V 4 H 3 Z"/><path id="path30" d="m 10,6 h 5 v 2 h -5 z"/><g transform="translate(62.0002,22.6678)" id="g32"><path id="path34" d="m 0,0 c 0,-1.608 -0.989,-2.668 -2.598,-2.668 h -20.339 -13.488 -20.34 C -58.373,-2.668 -60,-1.608 -60,0 v 36.166 c 0,1.608 1.627,3.166 3.235,3.166 H -2.598 C -0.989,39.332 0,37.774 0,36.166 Z m -22.025,-12.668 h -15.312 l 2.4,8 h 10.512 z m 19.427,54 H -56.765 C -59.476,41.332 -62,38.878 -62,36.166 V 0 c 0,-2.711 2.524,-4.668 5.235,-4.668 h 19.74 l -2.4,-8 H -43 v -2 h 2.975 20.688 2.337 v 2 h -2.937 l -2.4,8 H -2.598 C 0.113,-4.668 2,-2.711 2,0 v 36.166 c 0,2.712 -1.887,5.166 -4.598,5.166"/></g><path id="path36" d="m 3,26 h 58 v 2 H 3 Z"/><path id="path38" d="m 30,22 h 4 v 2 h -4 z"/><g transform="translate(60.0002,31.9999)" id="g40"><path id="path42" d="m 0,0 h -54 v 28 h -2 V -2 H 0 Z"/></g><g transform="translate(9.0822,33.2284)" id="g44"><path id="path46" d="m 0,0 c 0.048,0.057 4.842,5.771 9.188,5.771 h 0.041 c 2.409,0 3.717,-1.493 4.982,-2.797 1.116,-1.152 2.288,-2.426 4.034,-2.389 3.036,0.025 4.961,3.143 6.82,6.067 1.573,2.472 3.198,5.119 5.139,5.119 h 0.023 c 1.528,0 2.924,-2.107 4.274,-4.13 1.598,-2.395 3.248,-4.87 5.718,-4.87 h 0.025 c 6.608,0 11.429,16.698 11.957,18.61 l -1.928,0.595 C 48.433,15.313 44.078,4.771 40.23,4.771 h -0.01 c -1.401,0 -2.75,2.023 -4.055,3.979 -1.639,2.456 -3.333,5.021 -5.917,5.021 H 30.2 c -3.035,0 -4.961,-3.025 -6.822,-5.953 -1.573,-2.472 -3.2,-5.047 -5.149,-5.047 h -0.014 c -0.859,0 -1.536,0.655 -2.569,1.719 -1.405,1.45 -3.155,3.281 -6.401,3.281 H 9.189 c -2.803,0 -5.59,-1.852 -7.624,-3.507 1.726,4.245 5.04,10.382 9.664,10.321 3.649,-0.028 6.578,-3.866 9.409,-7.548 L 20.71,6.929 22.295,8.141 22.223,8.354 C 19.1,12.415 15.869,16.771 11.245,16.771 H 11.188 C 2.682,16.771 -1.551,1.556 -1.727,0.911 l 0.964,-0.265 z"/></g><g transform="translate(46.9963,44.6503)" id="g48"><path id="path50" d="m 0,0 c 0.872,3.386 1.774,6.888 3.21,9.639 2.05,3.928 5.491,5.535 7.324,4.652 l -0.82,1.824 C 7.747,16.938 3.819,15.131 1.437,10.563 -0.105,7.609 -1.036,3.994 -1.937,0.499 l -0.296,-1.146 1.935,-0.504 z"/></g><g transform="translate(39.3195,34.7509)" id="g52"><path id="path54" d="M 0,0 C -1.465,0 -2.963,0.855 -4.714,2.691 L -6.161,1.311 C -4.806,-0.11 -2.692,-2 0,-2 3.423,-2 4.933,1.462 5.43,2.6 L 3.596,3.399 C 2.281,0.387 0.983,0 0,0"/></g></g></g></g></svg>