<svg height="511pt" viewBox="1 -84 511.999 511" width="511pt" xmlns="http://www.w3.org/2000/svg"><path d="m461.316406 35.691406c-2.890625 2.96875-2.824218 7.714844.144532 10.605469 2.96875 2.894531 7.71875 2.824219 10.605468-.144531l24.03125-24.6875c2.886719-2.964844 2.824219-7.714844-.144531-10.605469-2.96875-2.886719-7.71875-2.824219-10.605469.144531zm0 0"/><path d="m495.953125 200.304688c2.96875-2.886719 3.03125-7.636719.144531-10.605469l-24.03125-24.6875c-2.886718-2.964844-7.636718-3.03125-10.605468-.140625-2.96875 2.886718-3.03125 7.636718-.144532 10.605468l24.03125 24.6875c2.890625 2.964844 7.636719 3.03125 10.605469.140626zm0 0"/><path d="m472.96875 105.582031c0 4.144531 3.355469 7.503907 7.5 7.503907h24.03125c4.140625 0 7.5-3.359376 7.5-7.503907 0-4.140625-3.359375-7.5-7.5-7.5h-24.03125c-4.144531 0-7.5 3.359375-7.5 7.5zm0 0"/><path d="m39.949219 46.15625c2.886719 2.96875 7.636719 3.03125 10.605469.140625s3.03125-7.636719.140624-10.605469l-24.039062-24.6875c-2.890625-2.96875-7.640625-3.03125-10.605469-.140625-2.96875 2.890625-3.03125 7.640625-.144531 10.605469zm0 0"/><path d="m39.949219 165.011719-24.042969 24.6875c-2.886719 2.96875-2.824219 7.71875.144531 10.605469 2.96875 2.890624 7.714844 2.828124 10.605469-.140626l24.039062-24.6875c2.890626-2.964843 2.828126-7.714843-.140624-10.605468s-7.714844-2.828125-10.605469.140625zm0 0"/><path d="m7.5 113.085938h24.042969c4.140625 0 7.5-3.359376 7.5-7.5 0-4.144532-3.359375-7.5-7.5-7.5h-24.042969c-4.144531 0-7.5 3.355468-7.5 7.5 0 4.140624 3.355469 7.5 7.5 7.5zm0 0"/><path d="m57.195312 110.316406 183.257813 225.441406c3.824219 4.699219 9.488281 7.394532 15.546875 7.394532 5.96875 0 11.667969-2.628906 15.546875-7.398438 0 0 .003906-.003906.003906-.003906l99.8125-122.789062c2.613281-3.214844 2.125-7.9375-1.089843-10.550782-3.214844-2.617187-7.941407-2.125-10.550782 1.085938l-79.667968 98.007812 42.390624-188.421875h110.773438l-51.410156 63.25c-2.613282 3.210938-2.128906 7.9375 1.085937 10.550781 3.214844 2.613282 7.941407 2.125 10.550781-1.089843l61.3125-75.421875c2.566407-3.171875 2.070313-7.519532-.441406-10.0625l-90.734375-91.757813c-5.324219-5.382812-12.5-8.050781-19.28125-8.050781h-19.183593c-4.144532 0-7.503907 3.359375-7.503907 7.5s3.359375 7.5 7.503907 7.5h16.164062l-26.394531 72.445312-42.003907-72.445312h17.230469c4.144531 0 7.5-3.359375 7.5-7.5s-3.355469-7.5-7.5-7.5c-28.703125 0-92.328125 0-122.414062 0-7.335938 0-14.34375 3.054688-19.285157 8.050781l-90.730468 91.757813c-2.546875 2.578125-2.972656 6.945312-.488282 10.007812zm99.679688-88.984375 27.964844 76.75h-103.859375zm32.679688 91.753907 42.390624 188.421874-153.167968-188.421874zm69.332031 214.164062c-1.710938 1.234375-4.25 1.140625-5.773438 0l-48.179687-214.164062h102.136718zm96.238281-305.917969 75.894531 76.753907h-103.859375zm-146.550781 76.75 47.425781-81.796875 47.425781 81.796875zm-11.460938-10.136719-26.394531-72.445312h68.394531zm0 0"/></svg>