<svg xmlns="http://www.w3.org/2000/svg" xmlns:xlink="http://www.w3.org/1999/xlink" width="36" height="36" viewBox="0 0 36 36"><defs><path id="96e2a" d="M946.714 313.996a4.7 4.7 0 0 1-3.343-1.383 4.743 4.743 0 0 1 0-6.69l5.004-5.007a4.703 4.703 0 0 1 3.34-1.381c.292 0 .582.027.868.08l.47-.469-.657-.655a.511.511 0 0 1 0-.723l1.73-1.73c.2-.2.523-.2.723 0l1.533 1.534 1.033-1.034-6.663-6.663c-.68.25-1.392.378-2.12.378a6.075 6.075 0 0 1-4.325-1.792 6.124 6.124 0 0 1-1.348-6.635.51.51 0 0 1 .836-.169l3.291 3.298 2.379-2.378-3.295-3.298a.506.506 0 0 1-.139-.462.507.507 0 0 1 .308-.372 6.075 6.075 0 0 1 2.3-.448c1.634 0 3.172.638 4.33 1.796a6.095 6.095 0 0 1 1.413 6.453l6.659 6.664 9.322-9.326-.208-.967a.516.516 0 0 1 .064-.376l1.358-2.224a.514.514 0 0 1 .247-.207l3.694-1.473a.51.51 0 0 1 .55.114l1.352 1.352c.14.141.185.35.118.538l-1.382 3.785a.511.511 0 0 1-.215.26l-2.222 1.359a.51.51 0 0 1-.372.065l-.968-.206-9.32 9.326 6.7 6.705a6.066 6.066 0 0 1 2.125-.38c1.631 0 3.167.636 4.323 1.793a6.127 6.127 0 0 1 1.345 6.636.51.51 0 0 1-.834.169l-3.292-3.298-2.38 2.378 3.296 3.297a.511.511 0 0 1-.17.835 6.11 6.11 0 0 1-2.296.445 6.097 6.097 0 0 1-4.334-1.793 6.096 6.096 0 0 1-1.41-6.454l-6.699-6.704-1.032 1.033 1.7 1.701c.2.2.2.525 0 .724l-1.73 1.73c-.199.2-.522.2-.722 0l-.715-.714-.543.546a4.706 4.706 0 0 1-1.332 4.025l-5.005 5.009a4.687 4.687 0 0 1-3.34 1.383zm25.138-29.31a.513.513 0 0 1 .468-.139l1.04.22 1.898-1.16 1.209-3.311-.883-.884-3.225 1.284-1.163 1.906.222 1.04a.511.511 0 0 1-.137.47l-9.878 9.881-.001.001-2.904 2.905-1.372 1.373.574.576 1.371-1.372.002-.001 2.904-2.907.001-.001zm-20.137 15.872a3.68 3.68 0 0 0-2.618 1.08l-5.005 5.008a3.72 3.72 0 0 0 .001 5.244c.7.698 1.631 1.084 2.621 1.084.989 0 1.919-.386 2.617-1.085l5.006-5.007a3.692 3.692 0 0 0 1.004-3.373.515.515 0 0 1 .138-.463l1.094-1.098a.508.508 0 0 1 .722 0l.716.716 1.007-1.009-4.53-4.534-1.01 1.009.658.656a.507.507 0 0 1 0 .723l-1.03 1.026a.511.511 0 0 1-.483.135 3.749 3.749 0 0 0-.908-.113zm-5.98 8.467l-.723-.723 6.281-6.285.722.722zm1.942 1.944l-.72-.721 6.28-6.286.721.722zm3.197-22.205c.134 0 .264.051.361.15l6.902 6.901 2.181-2.182-6.897-6.903a.512.512 0 0 1-.108-.565 5.081 5.081 0 0 0-1.067-5.648 5.061 5.061 0 0 0-3.608-1.499c-.392 0-.777.044-1.153.132l3.063 3.065a.516.516 0 0 1 0 .723l-3.102 3.1c-.2.2-.522.2-.722 0l-3.06-3.064a5.104 5.104 0 0 0 1.365 4.764 5.06 5.06 0 0 0 3.602 1.493c.707 0 1.394-.144 2.04-.426a.533.533 0 0 1 .203-.041zm9.282 9.072l6.938 6.943c.148.149.19.372.106.566a5.084 5.084 0 0 0 1.065 5.649 5.077 5.077 0 0 0 3.61 1.494c.39 0 .775-.043 1.15-.13l-3.062-3.065a.513.513 0 0 1 0-.722l3.102-3.1c.2-.2.522-.2.721 0l3.06 3.065a5.097 5.097 0 0 0-1.362-4.764 5.047 5.047 0 0 0-3.6-1.495c-.709 0-1.396.143-2.044.426a.511.511 0 0 1-.565-.106l-6.938-6.944z"/></defs><g><g transform="translate(-942 -278)"><use xlink:href="#96e2a"/></g></g></svg>