<?xml version="1.0" encoding="UTF-8" standalone="no"?>
<svg xmlns:dc="http://purl.org/dc/elements/1.1/" xmlns:cc="http://creativecommons.org/ns#" xmlns:rdf="http://www.w3.org/1999/02/22-rdf-syntax-ns#" xmlns:svg="http://www.w3.org/2000/svg" xmlns="http://www.w3.org/2000/svg" viewBox="0 0 86.666664 76.707603" height="76.707603" width="86.666664" xml:space="preserve" id="svg2" version="1.1"><metadata id="metadata8"><rdf:RDF><cc:Work rdf:about=""><dc:format>image/svg+xml</dc:format><dc:type rdf:resource="http://purl.org/dc/dcmitype/StillImage"/></cc:Work></rdf:RDF></metadata><defs id="defs6"><clipPath id="clipPath56" clipPathUnits="userSpaceOnUse"><path id="path54" d="M 0,57.531 H 65 V 0 H 0 Z"/></clipPath></defs><g transform="matrix(1.3333333,0,0,-1.3333333,0,76.7076)" id="g10"><path id="path12" d="m 2.097,6.736 h 5 v 2 h -5 z"/><path id="path14" d="m 13.097,11.736 h -6 v -2 h 6 z"/><g transform="translate(58.0954,5.5882)" id="g16"><path id="path18" d="M 0,0 0.699,2.152 2.602,1.534 1.902,-0.618 Z"/></g><g transform="translate(55.3629,5.3899)" id="g20"><path id="path22" d="M 0,0 1.176,1.618 3.007,0.287 1.831,-1.331 Z"/></g><g transform="translate(55.3629,3.0169)" id="g24"><path id="path26" d="M 0,0 1.831,1.33 3.007,-0.288 1.176,-1.618 Z"/></g><g transform="translate(58.095,2.8188)" id="g28"><path id="path30" d="M 0,0 0.699,-2.153 2.602,-1.535 1.903,0.618 Z"/></g><path id="path32" d="m 59.829,5.203 h 2.263 v -2 h -2.263 z"/><path id="path34" d="m 63,17.76 h 2 v 2.001 h -2 z"/><path id="path36" d="m 63,13.76 h 2 v 2 h -2 z"/><path id="path38" d="m 63,9.76 h 2 v 2.001 h -2 z"/><path id="path40" d="m 1.768,0.399 h 2 v 2 h -2 z"/><path id="path42" d="m 5.768,0.399 h 2 v 2 h -2 z"/><path id="path44" d="m 9.768,0.399 h 2 v 2 h -2 z"/><g transform="translate(23.5341,14.2965)" id="g46"><path id="path48" d="m 0,0 v -5.772 h -8.194 v -8.524 h 33.319 v 8.524 H 16.934 V 0 Z m -6.079,-7.886 h 8.192 v 5.773 h 12.705 l 0.002,-5.773 h 8.191 v -4.297 h -29.09 z"/></g><g id="g50"><g clip-path="url(#clipPath56)" id="g52"><g transform="translate(40.049,49.4661)" id="g58"><path id="path60" d="m 0,0 h -6.908 l -0.317,-0.409 c -2.133,-2.75 -5.193,-4.525 -9.356,-5.422 l -0.835,-0.182 v -6.137 h 1.956 c 2.145,-0.018 3.317,-0.194 3.575,-0.329 0.383,-0.193 0.488,-0.355 0.548,-0.593 0.067,-0.256 0.178,-1.559 0.172,-4.811 v -14.855 h 2.114 v 14.856 c -0.005,3.104 -0.07,4.591 -0.23,5.302 -0.193,0.862 -0.806,1.593 -1.688,2.006 -0.811,0.371 -1.993,0.517 -4.332,0.536 v 2.333 c 4.002,1.003 7.168,2.883 9.418,5.592 h 3.768 l 0.001,-30.625 h 2.115 z"/></g><g transform="translate(15.9137,52.1819)" id="g62"><path id="path64" d="m 0,0 c -0.002,0.603 -0.059,1.189 -0.166,1.729 -0.364,2.155 -1.784,3.608 -3.535,3.619 -0.66,0 -1.327,-0.203 -1.984,-0.603 -1.614,-0.997 -2.623,-2.953 -2.631,-5.105 0,-0.911 0.2,-1.791 0.579,-2.546 0.477,-1.007 1.237,-1.822 2.139,-2.294 l 0.436,-0.228 0.982,1.872 -0.436,0.229 c -0.5,0.261 -0.932,0.738 -1.225,1.354 -0.237,0.47 -0.362,1.028 -0.362,1.614 -0.006,1.35 0.673,2.737 1.62,3.299 0.321,0.196 0.618,0.294 0.888,0.294 h 0.01 c 0.671,0 1.222,-0.721 1.44,-1.894 0.086,-0.426 0.13,-0.879 0.131,-1.345 l 10e-4,-0.492 2.115,0.004 z"/></g><g transform="translate(9.1696,42.8821)" id="g66"><path id="path68" d="M 0,0 C -0.305,0.521 -0.649,1.007 -1.02,1.439 -2.107,2.742 -3.414,3.465 -4.697,3.476 H -4.73 c -1.046,0 -2.028,-0.56 -2.628,-1.497 -0.445,-0.672 -0.681,-1.517 -0.682,-2.444 0.008,-1.94 0.983,-3.883 2.543,-5.071 0.907,-0.708 1.927,-1.133 2.949,-1.228 l 0.491,-0.046 0.194,2.109 -0.491,0.044 c -0.609,0.054 -1.266,0.337 -1.859,0.803 -1.015,0.755 -1.719,2.149 -1.713,3.391 0,0.51 0.114,0.951 0.329,1.274 0.304,0.448 0.581,0.544 0.902,0.55 h 0.014 c 0.458,0 1.262,-0.334 2.048,-1.288 0.297,-0.344 0.568,-0.727 0.806,-1.136 l 0.247,-0.427 1.829,1.063 z"/></g><g transform="translate(8.2335,27.136)" id="g70"><path id="path72" d="m 0,0 -0.471,-0.14 c -0.573,-0.172 -1.319,-0.157 -2.098,0.057 -1.926,0.461 -3.59,2.408 -3.551,3.635 0,0.052 0.001,0.099 0.007,0.136 0.087,0.582 0.269,0.795 1.1,0.834 h 0.003 c 0.554,0 1.235,-0.183 1.926,-0.522 0.434,-0.202 0.867,-0.453 1.287,-0.743 l 0.404,-0.279 1.204,1.738 -0.406,0.281 C -1.111,5.353 -1.644,5.66 -2.173,5.907 -3.152,6.384 -4.135,6.636 -4.997,6.637 -6.71,6.681 -8.069,5.562 -8.21,3.959 -8.227,3.827 -8.233,3.687 -8.233,3.541 c 0.051,-2.424 2.305,-4.914 5.131,-5.67 0.59,-0.162 1.179,-0.244 1.75,-0.244 0.526,0 1.026,0.069 1.487,0.207 l 0.473,0.142 z"/></g><g transform="translate(14.5377,17.2307)" id="g74"><path id="path76" d="m 0,0 -0.375,-0.321 c -0.417,-0.357 -1.105,-0.608 -1.901,-0.691 -0.205,-0.024 -0.407,-0.035 -0.619,-0.035 -2.114,-0.027 -4.344,1.28 -4.742,2.392 -0.063,0.157 -0.095,0.296 -0.095,0.401 0.003,0.171 0.033,0.309 0.369,0.518 0.38,0.225 1.026,0.359 1.732,0.359 0.168,0 0.331,-0.006 0.512,-0.019 0.506,-0.03 1.03,-0.104 1.558,-0.219 L -3.08,2.279 -2.628,4.345 -3.109,4.45 C -3.747,4.591 -4.378,4.679 -4.976,4.712 -5.188,4.728 -5.407,4.736 -5.62,4.736 -6.749,4.734 -7.696,4.516 -8.427,4.091 -9.326,3.581 -9.856,2.708 -9.846,1.758 c 0,-0.388 0.083,-0.791 0.247,-1.2 l 0.004,-0.01 c 0.896,-2.114 3.715,-3.675 6.707,-3.709 0.288,0 0.575,0.015 0.851,0.05 1.225,0.129 2.274,0.537 3.033,1.18 l 0.376,0.319 z"/></g><g transform="translate(10.1569,34.3235)" id="g78"><path id="path80" d="m 0,0 c 0.003,8.036 4.679,15.354 12.507,19.576 l 0.434,0.236 -1.004,1.858 -0.433,-0.233 C 2.972,16.846 -2.119,8.832 -2.115,0 -2.119,-8.832 2.972,-16.847 11.504,-21.438 l 0.433,-0.233 1.004,1.859 -0.434,0.235 C 4.679,-15.355 0.003,-8.037 0,0"/></g><g transform="translate(15.5031,42.635)" id="g82"><path id="path84" d="M 0,0 C -1.015,0.601 -2.359,0.858 -3.934,0.653 -4.417,0.587 -4.881,0.462 -5.333,0.307 c 0.125,-0.699 0.161,-1.448 0.092,-2.221 l 0.281,0.118 c 0.409,0.171 0.85,0.292 1.305,0.356 0.247,0.031 0.512,0.059 0.726,0.044 0.73,0 1.402,-0.153 1.846,-0.42 0.318,-0.191 0.401,-0.359 0.407,-0.435 -0.008,-0.069 -0.158,-0.418 -0.751,-0.853 -0.62,-0.462 -1.529,-0.905 -2.552,-1.243 -0.731,-0.229 -1.406,-0.329 -1.957,-0.313 -0.237,-0.545 -0.522,-1.046 -0.849,-1.489 l -0.055,-0.559 0.487,-0.05 c 0.175,-0.018 0.353,-0.027 0.537,-0.027 0.747,0.001 1.58,0.143 2.485,0.426 1.283,0.424 2.349,0.951 3.172,1.564 0.662,0.502 1.549,1.31 1.596,2.588 C 1.424,-1.339 0.9,-0.535 0,0"/></g><g transform="translate(18.2199,51.8372)" id="g86"><path id="path88" d="m 0,0 c -0.549,0.131 -1.114,0.196 -1.68,0.205 -0.094,-0.644 -0.31,-1.31 -0.645,-1.971 l 0.033,-0.154 0.491,0.019 c 0.438,0 0.877,-0.051 1.301,-0.152 1.582,-0.387 2.232,-1.276 2.211,-1.586 0,-0.047 -0.007,-0.075 -0.05,-0.152 -0.148,-0.307 -1.47,-0.882 -3.398,-0.882 -0.292,0 -0.593,0.006 -0.886,0.023 -0.071,0.004 -0.142,0.01 -0.211,0.016 0.003,0.009 0.002,0.02 0.006,0.029 -0.348,0.012 -0.672,0.065 -0.947,0.155 0,-0.012 10e-4,-0.023 0.002,-0.034 -0.223,0.051 -0.42,0.115 -0.602,0.184 -0.478,-0.386 -0.976,-0.698 -1.482,-0.923 l -0.298,-0.556 0.435,-0.233 c 0.766,-0.409 1.76,-0.66 2.954,-0.749 h 0.009 c 0.299,-0.016 0.586,-0.024 0.877,-0.024 h 0.002 c 2.822,0.038 4.527,0.653 5.378,1.955 0.214,0.36 0.326,0.772 0.326,1.206 C 3.779,-1.982 2.316,-0.594 0,0"/></g><g transform="translate(15.8375,32.7581)" id="g90"><path id="path92" d="M 0,0 C -0.499,0.952 -1.54,1.479 -2.934,1.484 -3.982,1.483 -5.085,1.173 -6.133,0.584 -6.226,0.53 -6.307,0.465 -6.396,0.407 c 0.224,-0.373 0.364,-0.84 0.364,-1.353 0,-0.545 -0.156,-1.037 -0.405,-1.42 l 0.015,-0.015 0.341,0.355 c 0.287,0.296 0.625,0.559 0.998,0.777 0.709,0.398 1.471,0.619 2.147,0.619 0.006,0.001 0.012,0 0.017,0 0.643,0 0.975,-0.222 1.032,-0.321 0.015,-0.03 0.023,-0.081 0.023,-0.167 0.021,-0.44 -0.598,-1.659 -1.991,-2.873 -0.61,-0.527 -1.244,-0.902 -1.784,-1.056 l -0.475,-0.136 0.588,-2.032 0.474,0.138 c 0.848,0.247 1.718,0.748 2.593,1.5 1.79,1.624 2.676,3.086 2.709,4.482 C 0.25,-0.701 0.168,-0.336 0,0"/></g><g transform="translate(18.5026,25.3196)" id="g94"><path id="path96" d="m 0,0 c -0.478,0.373 -1.086,0.569 -1.759,0.569 h -0.007 c -1.482,-0.008 -3,-0.894 -4.068,-2.379 -0.337,-0.489 -0.586,-1.01 -0.757,-1.545 0.796,-0.009 1.507,-0.258 2.008,-0.65 0.108,0.342 0.268,0.675 0.48,0.983 0.723,1.017 1.707,1.477 2.328,1.477 0.206,-0.009 0.369,-0.041 0.476,-0.124 0.154,-0.117 0.335,-0.5 0.333,-1.195 0.001,-0.693 -0.178,-1.555 -0.499,-2.42 -0.27,-0.687 -0.632,-1.241 -1.02,-1.563 l -0.381,-0.314 1.355,-1.626 0.379,0.316 c 0.671,0.562 1.222,1.376 1.642,2.432 0.423,1.146 0.637,2.215 0.637,3.177 C 1.146,-1.577 0.762,-0.617 0,0"/></g><g transform="translate(53.7692,56.928)" id="g98"><path id="path100" d="m 0,0 c -0.654,0.399 -1.321,0.603 -1.985,0.603 -1.751,-0.012 -3.171,-1.472 -3.53,-3.619 -0.109,-0.54 -0.165,-1.123 -0.166,-1.731 l -0.001,-0.492 2.115,-0.004 v 0.493 c 0,0.462 0.043,0.911 0.129,1.34 0.217,1.173 0.769,1.898 1.446,1.898 0.248,0.02 0.568,-0.095 0.895,-0.296 0.943,-0.56 1.622,-1.948 1.616,-3.3 0.001,-0.585 -0.122,-1.137 -0.36,-1.609 -0.371,-0.784 -0.871,-1.171 -1.225,-1.357 l -0.435,-0.229 0.981,-1.871 0.437,0.229 c 0.904,0.473 1.666,1.295 2.141,2.3 0.377,0.746 0.575,1.624 0.575,2.54 C 2.625,-2.955 1.616,-0.999 0,0"/></g><g transform="translate(62.1925,44.8557)" id="g102"><path id="path104" d="M 0,0 C -0.604,0.942 -1.585,1.502 -2.63,1.502 H -2.663 C -3.95,1.491 -5.258,0.766 -6.342,-0.537 -6.713,-0.967 -7.056,-1.45 -7.361,-1.975 l -0.247,-0.425 1.826,-1.064 0.248,0.426 c 0.24,0.411 0.509,0.792 0.807,1.138 0.79,0.961 1.599,1.33 2.058,1.289 0.323,-0.007 0.601,-0.104 0.9,-0.546 0.217,-0.328 0.332,-0.771 0.332,-1.282 0.006,-1.239 -0.693,-2.631 -1.711,-3.392 -0.591,-0.461 -1.25,-0.745 -1.857,-0.8 l -0.491,-0.044 0.192,-2.105 0.491,0.044 c 1.021,0.092 2.045,0.52 2.954,1.231 1.556,1.183 2.528,3.124 2.537,5.069 C 0.677,-1.515 0.441,-0.67 0,0"/></g><g transform="translate(63.9782,31.0755)" id="g106"><path id="path108" d="M 0,0 C -0.144,1.623 -1.495,2.756 -3.198,2.696 -4.083,2.695 -5.067,2.441 -6.039,1.968 -6.571,1.718 -7.102,1.411 -7.616,1.056 l -0.404,-0.282 1.203,-1.738 0.405,0.28 c 0.415,0.289 0.845,0.539 1.286,0.746 0.688,0.336 1.371,0.522 1.901,0.522 h 0.005 c 0.852,-0.039 1.034,-0.25 1.118,-0.799 0.005,-0.057 0.009,-0.116 0.01,-0.19 0.039,-1.21 -1.62,-3.156 -3.555,-3.619 -0.77,-0.209 -1.523,-0.226 -2.093,-0.055 l -0.471,0.14 -0.606,-2.025 0.471,-0.141 c 0.46,-0.137 0.96,-0.207 1.486,-0.207 0.57,0 1.162,0.083 1.758,0.245 2.822,0.755 5.072,3.244 5.124,5.682 C 0.021,-0.25 0.013,-0.117 0,0"/></g><g transform="translate(57.8947,21.3186)" id="g110"><path id="path112" d="m 0,0 c -0.738,0.429 -1.685,0.646 -2.815,0.648 -0.21,0 -0.428,-0.007 -0.643,-0.023 C -4.059,0.589 -4.686,0.501 -5.321,0.362 l -0.481,-0.105 0.451,-2.065 0.48,0.106 c 0.533,0.115 1.053,0.188 1.556,0.217 0.181,0.013 0.353,0.042 0.514,0.019 0.706,0 1.352,-0.134 1.723,-0.352 0.345,-0.214 0.374,-0.353 0.377,-0.516 0,-0.08 -0.015,-0.216 -0.1,-0.426 -0.388,-1.082 -2.605,-2.376 -4.675,-2.376 -0.023,0 -0.046,0.001 -0.069,0.001 -0.186,0.011 -0.406,0.012 -0.611,0.035 -0.792,0.083 -1.484,0.334 -1.899,0.69 l -0.375,0.321 -1.373,-1.61 0.376,-0.32 c 0.758,-0.642 1.808,-1.051 3.039,-1.182 0.273,-0.032 0.558,-0.048 0.849,-0.048 h 10e-4 c 2.985,0.034 5.804,1.595 6.706,3.721 0.163,0.406 0.246,0.808 0.246,1.191 C 1.424,-1.381 0.894,-0.507 0,0"/></g><g transform="translate(42.34,55.76)" id="g114"><path id="path116" d="M 0,0 -0.433,0.233 -1.437,-1.626 -1.003,-1.86 C 6.825,-6.081 11.501,-13.4 11.505,-21.437 11.501,-29.473 6.825,-36.791 -1.003,-41.014 l -0.434,-0.235 1.006,-1.859 0.432,0.233 c 8.533,4.593 13.623,12.607 13.618,21.438 C 13.624,-12.604 8.533,-4.59 0,0"/></g><g transform="translate(52.0119,28.7718)" id="g118"><path id="path120" d="m 0,0 c -1.329,1.16 -2.006,2.411 -1.984,2.892 0,0.044 0.004,0.104 0.032,0.162 0.048,0.081 0.379,0.302 1.027,0.302 h 0.009 c 0.675,0 1.442,-0.222 2.152,-0.621 C 1.579,2.536 1.896,2.287 2.167,2.018 2.179,2.844 2.46,3.591 2.913,4.146 2.712,4.295 2.508,4.44 2.286,4.569 1.239,5.158 0.131,5.47 -0.917,5.47 -2.308,5.466 -3.349,4.94 -3.851,3.983 -4.017,3.654 -4.101,3.286 -4.099,2.88 -4.067,1.516 -3.158,0.014 -1.397,-1.584 l 0.01,-0.01 c 0.871,-0.747 1.742,-1.251 2.591,-1.498 l 0.473,-0.137 0.59,2.033 -0.475,0.134 C 1.25,-0.906 0.614,-0.528 0,0"/></g><g transform="translate(51.8585,22.5608)" id="g122"><path id="path124" d="m 0,0 c -0.146,0.324 -0.315,0.644 -0.527,0.949 -1.066,1.481 -2.587,2.37 -4.071,2.379 h -0.006 c -0.671,0 -1.277,-0.196 -1.758,-0.573 -0.759,-0.609 -1.145,-1.569 -1.147,-2.86 0.001,-0.947 0.22,-2.041 0.634,-3.164 L -6.87,-3.28 c 0.418,-1.052 0.971,-1.869 1.642,-2.432 l 0.378,-0.316 1.355,1.626 -0.38,0.314 c -0.386,0.319 -0.75,0.879 -1.021,1.565 -0.323,0.868 -0.5,1.726 -0.499,2.419 -0.001,0.694 0.18,1.077 0.344,1.201 0.056,0.044 0.188,0.129 0.469,0.117 0.616,0 1.603,-0.463 2.327,-1.48 0.222,-0.324 0.395,-0.682 0.499,-1.035 l 0.139,-0.474 0.507,0.15 C -0.934,-0.976 -0.539,-0.414 0,0"/></g><g transform="translate(54.6408,37.9798)" id="g126"><path id="path128" d="m 0,0 c -0.583,-0.06 -1.346,0.051 -2.165,0.309 -1.025,0.338 -1.931,0.78 -2.555,1.246 -0.596,0.436 -0.741,0.787 -0.748,0.88 0.004,0.043 0.086,0.211 0.406,0.405 0.446,0.266 1.116,0.42 1.84,0.42 0.222,0.038 0.484,-0.015 0.736,-0.045 0.441,-0.061 0.883,-0.182 1.283,-0.347 -0.073,0.26 -0.125,0.528 -0.125,0.812 0,0.486 0.126,0.939 0.331,1.346 C -1.39,5.149 -1.791,5.252 -2.208,5.31 -3.795,5.516 -5.132,5.258 -6.146,4.654 -7.053,4.116 -7.576,3.305 -7.579,2.346 c 0.064,-1.194 0.941,-1.991 1.599,-2.489 0.808,-0.601 1.9,-1.14 3.158,-1.558 l 0.008,-0.003 c 0.902,-0.281 1.74,-0.425 2.488,-0.425 0.18,0 0.356,0.009 0.53,0.025 L 0.698,-2.06 0.49,0.047 Z"/></g><g transform="translate(50.5031,47.6878)" id="g130"><path id="path132" d="m 0,0 c -0.479,-0.259 -1.247,-0.441 -2.098,-0.502 -0.248,-0.013 -0.492,-0.022 -0.75,-0.02 -0.945,0 -1.83,0.112 -2.497,0.317 C -6.03,0 -6.334,0.273 -6.404,0.396 c -0.023,0.041 -0.031,0.07 -0.033,0.151 -0.019,0.272 0.634,1.162 2.219,1.551 0.411,0.098 0.898,0.131 1.384,0.148 l 0.491,-0.017 0.004,0.114 C -3.09,2.744 -3.65,3.451 -3.832,4.308 -4.13,4.272 -4.428,4.221 -4.723,4.15 -7.036,3.555 -8.502,2.166 -8.549,0.511 c 0,-0.422 0.113,-0.834 0.33,-1.196 0.425,-0.697 1.163,-1.201 2.256,-1.543 l 0.003,-10e-4 c 0.881,-0.268 1.932,-0.406 3.124,-0.407 0.283,0 0.572,0.008 0.872,0.025 1.199,0.088 2.196,0.34 2.964,0.749 l 0.435,0.232 -1,1.865 z"/></g><path id="path134" d="m 27.075,9.236 h 5.869 v 2.114 h -5.869 z"/><path id="path136" d="m 27.075,6.237 h 9.85 V 8.35 h -9.85 z"/><path id="path138" d="m 27.075,3.237 h 9.85 V 5.35 h -9.85 z"/><path id="path140" d="m 34.572,24.879 h 2.114 v 2.34 h -2.114 z"/><path id="path142" d="m 34.572,30.3 h 2.114 v 2.339 h -2.114 z"/><path id="path144" d="m 34.572,19.459 h 2.114 v 2.34 h -2.114 z"/><path id="path146" d="m 34.572,22.169 h 2.114 v 2.34 h -2.114 z"/><path id="path148" d="m 34.572,17.214 h 2.114 v 1.874 h -2.114 z"/><path id="path150" d="m 34.572,27.589 h 2.114 v 2.341 h -2.114 z"/><path id="path152" d="m 34.572,33.01 h 2.114 v 2.34 h -2.114 z"/><path id="path154" d="m 34.572,41.14 h 2.114 v 2.341 h -2.114 z"/><path id="path156" d="m 34.572,46.562 h 2.114 v 2.34 h -2.114 z"/><path id="path158" d="m 34.572,43.851 h 2.114 v 2.341 h -2.114 z"/><path id="path160" d="m 34.572,35.721 h 2.114 v 2.34 h -2.114 z"/><path id="path162" d="m 34.572,38.432 h 2.114 v 2.338 h -2.114 z"/></g></g></g></svg>