<?xml version="1.0" encoding="UTF-8" standalone="no"?>
<svg xmlns:dc="http://purl.org/dc/elements/1.1/" xmlns:cc="http://creativecommons.org/ns#" xmlns:rdf="http://www.w3.org/1999/02/22-rdf-syntax-ns#" xmlns:svg="http://www.w3.org/2000/svg" xmlns="http://www.w3.org/2000/svg" viewBox="0 0 85.333336 85.333336" height="85.333336" width="85.333336" xml:space="preserve" id="svg2" version="1.1"><metadata id="metadata8"><rdf:RDF><cc:Work rdf:about=""><dc:format>image/svg+xml</dc:format><dc:type rdf:resource="http://purl.org/dc/dcmitype/StillImage"/></cc:Work></rdf:RDF></metadata><defs id="defs6"><clipPath id="clipPath78" clipPathUnits="userSpaceOnUse"><path id="path76" d="M 0,64 H 64 V 0 H 0 Z"/></clipPath></defs><g transform="matrix(1.3333333,0,0,-1.3333333,0,85.333333)" id="g10"><g transform="translate(45.9999,51.0003)" id="g12"><path id="path14" d="M 0,0 V -14 H 18 V -2.001 H 10.618 L 9.618,0 Z m 2,-2.001 h 6.382 l 1,-2 H 16 v -8 H 2 Z"/></g><path id="path16" d="m 52,42 h -2 v 2 h 2 z"/><path id="path18" d="m 56,42 h -2 v 2 h 2 z"/><path id="path20" d="m 60,42 h -2 v 2 h 2 z"/><g transform="translate(0,50.9796)" id="g22"><path id="path24" d="m 0,0 v -14 h 18 v 12 h -7.382 l -1,2 z m 2,-2 h 6.382 l 1,-2.001 H 16 V -12 H 2 Z"/></g><path id="path26" d="M 6,41.979 H 4 v 2 h 2 z"/><path id="path28" d="M 10,41.979 H 8 v 2 h 2 z"/><path id="path30" d="m 14,41.979 h -2 v 2 h 2 z"/><g transform="translate(45.9999,26.9379)" id="g32"><path id="path34" d="M 0,0 V -14 H 18 V -2.001 H 10.618 L 9.618,0 Z m 2,-2.001 h 6.382 l 1,-2 H 16 v -8 H 2 Z"/></g><path id="path36" d="m 52,17.937 h -2 v 2 h 2 z"/><path id="path38" d="m 56,17.937 h -2 v 2 h 2 z"/><path id="path40" d="m 60,17.937 h -2 v 2 h 2 z"/><g transform="translate(0,27.0207)" id="g42"><path id="path44" d="m 0,0 v -14 h 18 v 12 h -7.382 l -1,2 z m 2,-2 h 6.382 l 1,-2.001 H 16 v -8 H 2 Z"/></g><path id="path46" d="M 6,18.02 H 4 v 2 h 2 z"/><path id="path48" d="M 10,18.02 H 8 v 2 h 2 z"/><path id="path50" d="m 14,18.02 h -2 v 2 h 2 z"/><g transform="translate(24.0003,14.0004)" id="g52"><path id="path54" d="M 0,0 V -14 H 18 V -2.001 H 10.618 L 9.617,0 Z m 2,-2.001 h 6.382 l 1,-2 h 6.617 v -8 H 2 Z"/></g><path id="path56" d="m 30,5 h -2 v 2 h 2 z"/><path id="path58" d="m 34,5 h -2 v 2 h 2 z"/><path id="path60" d="m 38,5 h -2 v 2 h 2 z"/><g transform="translate(23.0004,63.9999)" id="g62"><path id="path64" d="m 0,0 v -14 h 18 v 12 h -7.383 l -1,2 z m 2,-2 h 6.382 l 1,-2 h 6.617 v -8 H 2 Z"/></g><path id="path66" d="m 29,55 h -2 v 2 h 2 z"/><path id="path68" d="m 33,55 h -2 v 2 h 2 z"/><path id="path70" d="m 37,55 h -2 v 2 h 2 z"/><g id="g72"><g clip-path="url(#clipPath78)" id="g74"><g transform="translate(32,21)" id="g80"><path id="path82" d="m 0,0 c -6.065,0 -11,4.935 -11,11 0,6.065 4.935,11 11,11 C 6.065,22 11,17.065 11,11 11,4.935 6.065,0 0,0 m 13,11 c 0,2.713 -0.838,5.233 -2.266,7.32 l 4.973,4.973 -1.414,1.414 -4.826,-4.826 C 7.309,22.181 4.331,23.694 1,23.949 V 29 h -2 v -5.051 c -3.331,-0.255 -6.309,-1.768 -8.467,-4.068 l -4.826,4.826 -1.414,-1.414 4.973,-4.973 C -12.162,16.233 -13,13.713 -13,11 c 0,-3.225 1.187,-6.173 3.139,-8.447 l -5.846,-5.846 1.414,-1.414 5.846,5.846 C -6.411,-0.608 -3.833,-1.732 -1,-1.949 V -7 h 2 v 5.051 c 2.833,0.217 5.411,1.341 7.447,3.088 l 5.846,-5.846 1.414,1.414 -5.846,5.845 C 11.813,4.827 13,7.775 13,11"/></g><g transform="translate(27.8164,25.7548)" id="g84"><path id="path86" d="M 0,0 0.866,-0.5 2.1,1.637 2.846,1.43 C 3.717,1.187 4.64,1.189 5.518,1.433 L 6.265,1.641 7.5,-0.5 8.367,0 7.131,2.141 7.684,2.684 C 8.333,3.321 8.796,4.12 9.022,4.995 l 0.194,0.75 h 2.467 v 1 H 9.213 L 9.02,7.495 C 8.903,7.944 8.733,8.365 8.514,8.745 H 8.513 C 8.293,9.126 8.015,9.483 7.684,9.808 L 7.131,10.351 8.367,12.49 7.5,12.99 6.266,10.854 5.52,11.061 C 4.649,11.304 3.727,11.301 2.849,11.058 L 2.102,10.85 0.866,12.99 0,12.49 1.236,10.35 0.683,9.807 C 0.033,9.169 -0.429,8.37 -0.655,7.495 l -0.194,-0.75 h -2.468 v -1 h 2.47 l 0.194,-0.75 c 0.116,-0.449 0.287,-0.87 0.506,-1.25 0.22,-0.381 0.499,-0.738 0.83,-1.062 L 1.235,2.14 Z m 6.768,-3.232 -1.483,2.57 C 4.553,-0.78 3.808,-0.781 3.081,-0.665 l -1.482,-2.567 -4.33,2.5 1.481,2.568 c -0.235,0.289 -0.446,0.593 -0.629,0.909 -0.183,0.317 -0.341,0.651 -0.473,1 h -2.965 v 5 h 2.965 c 0.264,0.69 0.637,1.333 1.104,1.907 l -1.483,2.571 4.33,2.5 1.483,-2.571 c 0.731,0.119 1.474,0.12 2.204,0.003 l 1.483,2.568 4.329,-2.5 -1.482,-2.569 c 0.236,-0.288 0.447,-0.592 0.629,-0.909 0.183,-0.315 0.341,-0.65 0.473,-1 h 2.965 v -5 H 10.719 C 10.455,3.056 10.082,2.412 9.615,1.838 l 1.483,-2.57 z"/></g><g transform="translate(31.9966,34.0009)" id="g88"><path id="path90" d="m 0,0 c -0.346,0 -0.688,-0.091 -0.996,-0.27 -0.463,-0.266 -0.795,-0.698 -0.933,-1.213 -0.138,-0.517 -0.067,-1.055 0.2,-1.518 0.268,-0.463 0.699,-0.794 1.214,-0.932 0.517,-0.138 1.056,-0.068 1.518,0.201 0.463,0.266 0.794,0.698 0.932,1.213 0.138,0.516 0.067,1.055 -0.2,1.518 v 0 C 1.468,-0.538 1.037,-0.207 0.521,-0.069 0.349,-0.023 0.174,0 0,0 m 0.01,-6.003 c -0.348,0 -0.697,0.046 -1.042,0.139 -1.032,0.276 -1.895,0.938 -2.429,1.863 -0.534,0.925 -0.676,2.003 -0.399,3.035 0.276,1.032 0.938,1.895 1.863,2.429 C -1.071,1.996 0.007,2.14 1.039,1.862 2.07,1.586 2.933,0.925 3.467,-0.001 4.001,-0.926 4.144,-2.004 3.867,-3.036 3.59,-4.068 2.929,-4.931 2.003,-5.465 1.387,-5.82 0.703,-6.003 0.01,-6.003"/></g><g transform="translate(2.8427,3.3134)" id="g92"><path id="path94" d="m 0,0 -2.152,0.699 0.618,1.903 2.152,-0.7 z"/></g><g transform="translate(3.042,0.581)" id="g96"><path id="path98" d="M 0,0 -1.618,1.176 -0.288,3.007 1.33,1.831 Z"/></g><g transform="translate(5.414,0.581)" id="g100"><path id="path102" d="M 0,0 -1.33,1.831 0.288,3.007 1.618,1.176 Z"/></g><g transform="translate(5.6133,3.3134)" id="g104"><path id="path106" d="m 0,0 -0.618,1.902 2.152,0.7 0.618,-1.903 z"/></g><path id="path108" d="m 5.228,5.047 h -2 V 7.31 h 2 z"/><path id="path110" d="m 16,5 h -5 v 2 h 5 z"/><path id="path112" d="m 22,8 h -6 v 2 h 6 z"/><path id="path114" d="M 10,59.125 H 1 v 2 h 9 z"/><path id="path116" d="M 15,54 H 6 v 2 h 9 z"/><path id="path118" d="m 56,3 h -8 v 2 h 8 z"/><path id="path120" d="m 64,7 h -9 v 2 h 9 z"/><path id="path122" d="m 54,58 h -3 v 2 h 3 z"/><path id="path124" d="m 61,58 h -3 v 2 h 3 z"/><path id="path126" d="m 57,54 h -2 v 3 h 2 z"/><path id="path128" d="m 57,61 h -2 v 3 h 2 z"/></g></g></g></svg>