<?xml version="1.0" encoding="UTF-8" standalone="no"?>
<svg xmlns:dc="http://purl.org/dc/elements/1.1/" xmlns:cc="http://creativecommons.org/ns#" xmlns:rdf="http://www.w3.org/1999/02/22-rdf-syntax-ns#" xmlns:svg="http://www.w3.org/2000/svg" xmlns="http://www.w3.org/2000/svg" viewBox="0 0 81.333336 85.333336" height="85.333336" width="81.333336" xml:space="preserve" id="svg2" version="1.1"><metadata id="metadata8"><rdf:RDF><cc:Work rdf:about=""><dc:format>image/svg+xml</dc:format><dc:type rdf:resource="http://purl.org/dc/dcmitype/StillImage"/></cc:Work></rdf:RDF></metadata><defs id="defs6"><clipPath id="clipPath18" clipPathUnits="userSpaceOnUse"><path id="path16" d="M 0,64 H 61 V 0 H 0 Z"/></clipPath></defs><g transform="matrix(1.3333333,0,0,-1.3333333,0,85.333333)" id="g10"><g id="g12"><g clip-path="url(#clipPath18)" id="g14"><g transform="translate(31.0001,12)" id="g20"><path id="path22" d="M 0,0 C 0.551,0 1,-0.449 1,-1 H 3 C 3,0.302 2.162,1.401 1,1.815 V 2.5 H -1 V 1.815 C -2.162,1.401 -3,0.302 -3,-1 c 0,-1.639 1.34,-2.298 2.319,-2.779 l 0.479,-0.237 C 0.787,-4.502 1,-4.676 1,-5 1,-5.551 0.551,-6 0,-6 c -0.551,0 -1,0.449 -1,1 h -2 c 0,-1.302 0.838,-2.402 2,-2.816 V -8.5 h 2 v 0.684 C 2.162,-7.402 3,-6.302 3,-5 3,-3.361 1.66,-2.702 0.681,-2.221 L 0.202,-1.984 C -0.787,-1.498 -1,-1.324 -1,-1 c 0,0.551 0.449,1 1,1"/></g><g transform="translate(31.0001,2)" id="g24"><path id="path26" d="m 0,0 c -3.86,0 -7,3.14 -7,7 0,3.86 3.14,7 7,7 C 3.86,14 7,10.86 7,7 7,3.14 3.86,0 0,0 m 0,16 c -4.962,0 -9,-4.038 -9,-9 0,-4.962 4.038,-9 9,-9 4.962,0 9,4.038 9,9 0,4.962 -4.038,9 -9,9"/></g><path id="path28" d="m 35,8 h 2 v 2 h -2 z"/><path id="path30" d="m 25,8 h 2 v 2 h -2 z"/><g transform="translate(24.5001,62)" id="g32"><path id="path34" d="M 0,0 C -0.276,0 -0.5,-0.224 -0.5,-0.5 -0.5,-0.776 -0.276,-1 0,-1 0.276,-1 0.5,-0.776 0.5,-0.5 0.5,-0.224 0.276,0 0,0 m 0,-3 c -1.378,0 -2.5,1.122 -2.5,2.5 C -2.5,0.878 -1.378,2 0,2 1.378,2 2.5,0.878 2.5,-0.5 2.5,-1.878 1.378,-3 0,-3"/></g><g transform="translate(37.5001,62)" id="g36"><path id="path38" d="M 0,0 C -0.276,0 -0.5,-0.224 -0.5,-0.5 -0.5,-0.776 -0.276,-1 0,-1 0.276,-1 0.5,-0.776 0.5,-0.5 0.5,-0.224 0.276,0 0,0 m 0,-3 c -1.378,0 -2.5,1.122 -2.5,2.5 C -2.5,0.878 -1.378,2 0,2 1.378,2 2.5,0.878 2.5,-0.5 2.5,-1.878 1.378,-3 0,-3"/></g><g transform="translate(17.0001,58)" id="g40"><path id="path42" d="m 0,0 c -0.551,0 -1,-0.449 -1,-1 0,-0.551 0.449,-1 1,-1 0.551,0 1,0.449 1,1 0,0.551 -0.449,1 -1,1 m 0,-4 c -1.654,0 -3,1.346 -3,3 0,1.654 1.346,3 3,3 C 1.654,2 3,0.654 3,-1 3,-2.654 1.654,-4 0,-4"/></g><g transform="translate(31.0001,58)" id="g44"><path id="path46" d="m 0,0 c -0.551,0 -1,-0.449 -1,-1 0,-0.551 0.449,-1 1,-1 0.551,0 1,0.449 1,1 0,0.551 -0.449,1 -1,1 m 0,-4 c -1.654,0 -3,1.346 -3,3 0,1.654 1.346,3 3,3 C 1.654,2 3,0.654 3,-1 3,-2.654 1.654,-4 0,-4"/></g><g transform="translate(45.0001,58)" id="g48"><path id="path50" d="m 0,0 c -0.551,0 -1,-0.449 -1,-1 0,-0.551 0.449,-1 1,-1 0.551,0 1,0.449 1,1 0,0.551 -0.449,1 -1,1 m 0,-4 c -1.654,0 -3,1.346 -3,3 0,1.654 1.346,3 3,3 C 1.654,2 3,0.654 3,-1 3,-2.654 1.654,-4 0,-4"/></g><g transform="translate(32.0001,25.4141)" id="g52"><path id="path54" d="M 0,0 V 27.586 H -2 V 0 L -3.293,1.293 -4.707,-0.121 -1,-3.828 2.707,-0.121 1.293,1.293 Z"/></g><g transform="translate(41.7071,47.293)" id="g56"><path id="path58" d="M 0,0 -1.414,1.414 -2.707,0.121 v 5.586 h -2 V 0.121 L -6,1.414 -7.414,0 -3.707,-3.707 Z"/></g><g transform="translate(27.7071,47.293)" id="g60"><path id="path62" d="M 0,0 -1.414,1.414 -2.707,0.121 v 5.586 h -2 V 0.121 L -6,1.414 -7.414,0 -3.707,-3.707 Z"/></g><g transform="translate(45.0001,53)" id="g64"><path id="path66" d="m 0,0 v -4.687 c 0,-1.914 -1.144,-3.666 -3.601,-5.514 -0.302,-0.227 -0.886,-0.532 -1.505,-0.856 -2.077,-1.086 -4.921,-2.573 -4.894,-4.955 0.006,-0.518 0.008,-1.063 0.009,-1.583 l -1.302,1.302 -1.414,-1.414 3.707,-3.707 3.707,3.707 -1.414,1.414 -1.284,-1.284 c -0.001,0.521 -0.003,1.069 -0.009,1.589 -0.013,1.154 2.387,2.409 3.82,3.159 0.724,0.378 1.348,0.704 1.781,1.03 C 0.561,-9.573 2,-7.247 2,-4.687 V 0 Z"/></g><g transform="translate(28.293,36.7071)" id="g68"><path id="path70" d="m 0,0 -1.302,-1.302 c 0.001,0.52 0.003,1.065 0.009,1.583 0.027,2.382 -2.817,3.869 -4.894,4.955 -0.619,0.324 -1.203,0.629 -1.505,0.856 -2.457,1.848 -3.601,3.6 -3.601,5.514 v 4.687 h -2 v -4.687 c 0,-2.56 1.439,-4.886 4.399,-7.112 0.433,-0.326 1.057,-0.652 1.781,-1.03 1.433,-0.75 3.833,-2.005 3.82,-3.16 -0.006,-0.52 -0.008,-1.067 -0.009,-1.588 L -4.586,0 -6,-1.414 l 3.707,-3.707 3.707,3.707 z"/></g><g transform="translate(54.0001,33)" id="g72"><path id="path74" d="M 0,0 H -11.139 L 0.096,9.99 C 2.808,9.938 5,7.724 5,5 5,2.243 2.757,0 0,0 M 1,11.92 V 20 H 0 -1 -5 v -2 h 4 V 11.691 L -17.522,-3 H -21 v -2 h 2.552 v -7 h -9.104 v 7 H -25 v 2 h -3.478 L -45,11.691 V 18 h 4 v 2 h -4 -1 -1 V 10.794 L -29.552,-4.721 V -14 h 13.104 v 9.279 L -13.388,-2 H 0 c 3.86,0 7,3.14 7,7 0,3.52 -2.613,6.432 -6,6.92"/></g><path id="path76" d="m 21,53 h -2 v -2 h 2 z"/><path id="path78" d="m 29,53 h -3 v -2 h 3 z"/><path id="path80" d="m 36,53 h -3 v -2 h 3 z"/><path id="path82" d="m 43,53 h -2 v -2 h 2 z"/><g transform="translate(5.2642,26.0122)" id="g84"><path id="path86" d="M 0,0 -2.853,0.927 -2.235,2.83 0.618,1.902 Z"/></g><g transform="translate(5.1641,22.2715)" id="g88"><path id="path90" d="M 0,0 -1.618,1.176 0.145,3.603 1.763,2.427 Z"/></g><g transform="translate(8.836,22.2715)" id="g92"><path id="path94" d="M 0,0 -1.763,2.427 -0.145,3.603 1.618,1.176 Z"/></g><g transform="translate(8.7359,26.0122)" id="g96"><path id="path98" d="M 0,0 -0.618,1.902 2.235,2.83 2.853,0.927 Z"/></g><path id="path100" d="M 8,28 H 6 v 3 h 2 z"/><g transform="translate(54.9922,59.0039)" id="g102"><path id="path104" d="m 0,0 -2.152,0.7 0.618,1.902 2.152,-0.7 z"/></g><g transform="translate(55.191,56.2715)" id="g106"><path id="path108" d="M 0,0 -1.618,1.176 -0.288,3.007 1.33,1.831 Z"/></g><g transform="translate(57.5635,56.2715)" id="g110"><path id="path112" d="M 0,0 -1.33,1.831 0.288,3.007 1.618,1.176 Z"/></g><g transform="translate(57.7623,59.0039)" id="g114"><path id="path116" d="M 0,0 -0.618,1.902 1.534,2.602 2.152,0.7 Z"/></g><path id="path118" d="m 57.377,60.737 h -2 V 63 h 2 z"/><path id="path120" d="m 48,16 h -3 v 2 h 3 z"/><path id="path122" d="m 58,16 h -6 v 2 h 6 z"/><path id="path124" d="m 51,19 h -2 v 3 h 2 z"/><path id="path126" d="m 51,12 h -2 v 3 h 2 z"/><path id="path128" d="m 15,14 h -2 v 2 h 2 z"/><path id="path130" d="m 19,14 h -2 v 2 h 2 z"/><path id="path132" d="m 17,16 h -2 v 2 h 2 z"/><path id="path134" d="m 17,12 h -2 v 2 h 2 z"/><path id="path136" d="m 48,3 h -2 v 2 h 2 z"/><path id="path138" d="m 52,3 h -2 v 2 h 2 z"/><path id="path140" d="m 56,3 h -2 v 2 h 2 z"/><path id="path142" d="M 7,3 H 2 v 2 h 5 z"/><path id="path144" d="M 13,6 H 7 v 2 h 6 z"/><path id="path146" d="M 3,58 H 0 v 2 h 3 z"/><path id="path148" d="M 7,55 H 3 v 2 h 4 z"/></g></g></g></svg>