<svg id="Layer_1" data-name="Layer 1" xmlns="http://www.w3.org/2000/svg" viewBox="0 0 64 64"><defs/><title>01</title><path class="cls-1" d="M95.13,290.68c0,.34,0,.67.05,1H58.13v2h1v3h2v-3h1v5h2v-5h1v4h2v-4h1v5h2v-5H95.52a12,12,0,1,0,0-6H55.13v2H95.18C95.15,290,95.13,290.35,95.13,290.68Zm12-10a10,10,0,1,1-10,10A10,10,0,0,1,107.13,280.68Z" transform="translate(-55.13 -278.68)"/><path class="cls-1" d="M111.63,295.18a4.5,4.5,0,1,0-4.5-4.5A4.5,4.5,0,0,0,111.63,295.18Zm0-7a2.5,2.5,0,1,1-2.5,2.5A2.51,2.51,0,0,1,111.63,288.18Z" transform="translate(-55.13 -278.68)"/><path class="cls-1" d="M96.13,304.68h-41v6h41Zm-2,4h-37v-2h37Z" transform="translate(-55.13 -278.68)"/><path class="cls-1" d="M88.13,320.68h-33v6h33Zm-2,4h-29v-2h29Z" transform="translate(-55.13 -278.68)"/><path class="cls-1" d="M92.13,326.68h27v-6h-27Zm2-4h23v2h-23Z" transform="translate(-55.13 -278.68)"/><path class="cls-1" d="M68.13,328.68h-13v6h13Zm-2,4h-9v-2h9Z" transform="translate(-55.13 -278.68)"/><path class="cls-1" d="M72.13,334.68h23v-6h-23Zm2-4h19v2h-19Z" transform="translate(-55.13 -278.68)"/><path class="cls-1" d="M99.13,334.68h20v-6h-20Zm2-4h16v2h-16Z" transform="translate(-55.13 -278.68)"/><path class="cls-1" d="M55.13,342.68h27v-6h-27Zm2-4h23v2h-23Z" transform="translate(-55.13 -278.68)"/><path class="cls-1" d="M85.13,342.68h34v-6h-34Zm2-4h30v2h-30Z" transform="translate(-55.13 -278.68)"/><path class="cls-1" d="M82.13,312.68h-27v6h27Zm-2,4h-23v-2h23Z" transform="translate(-55.13 -278.68)"/><path class="cls-1" d="M86.13,318.68h25v-6h-25Zm2-4h21v2h-21Z" transform="translate(-55.13 -278.68)"/><rect class="cls-2" x="3" y="3" width="2" height="2"/><rect class="cls-2" x="7" y="3" width="2" height="2"/><rect class="cls-2" x="11" y="3" width="2" height="2"/><rect class="cls-2" x="15" y="3" width="2" height="2"/><rect class="cls-2" x="19" y="3" width="2" height="2"/><rect class="cls-2" x="26" y="20" width="2" height="2"/><rect class="cls-2" x="30" y="20" width="2" height="2"/><rect class="cls-2" x="34" y="20" width="2" height="2"/></svg>