<?xml version="1.0" encoding="UTF-8" standalone="no"?>
<svg xmlns:dc="http://purl.org/dc/elements/1.1/" xmlns:cc="http://creativecommons.org/ns#" xmlns:rdf="http://www.w3.org/1999/02/22-rdf-syntax-ns#" xmlns:svg="http://www.w3.org/2000/svg" xmlns="http://www.w3.org/2000/svg" viewBox="0 0 85.333336 66.666664" height="66.666664" width="85.333336" xml:space="preserve" id="svg2" version="1.1"><metadata id="metadata8"><rdf:RDF><cc:Work rdf:about=""><dc:format>image/svg+xml</dc:format><dc:type rdf:resource="http://purl.org/dc/dcmitype/StillImage"/></cc:Work></rdf:RDF></metadata><defs id="defs6"/><g transform="matrix(1.3333333,0,0,-1.3333333,0,66.666667)" id="g10"><g transform="translate(0,50.0004)" id="g12"><path id="path14" d="M 0,0 V -6 -8 -44 -46.001 -50 H 64 V 0 Z M 2.001,-2.001 H 62 v -4 H 2.001 Z M 2.001,-8 H 62 V -44 H 2.001 Z m 0,-38.001 H 62 v -2 H 2.001 Z"/></g><path id="path16" d="m 4,45 h 2 v 2 H 4 Z"/><path id="path18" d="m 8,45 h 2 v 2 H 8 Z"/><path id="path20" d="m 12,45 h 2 v 2 h -2 z"/><path id="path22" d="m 18,45 h 42 v 2 H 18 Z"/><path id="path24" d="M 61,41 H 59 V 7 h 2 z"/><path id="path26" d="M 5,41 H 3 V 7 h 2 z"/><g transform="translate(27.1859,24.9288)" id="g28"><path id="path30" d="M 0,0 4.862,8.193 10.314,0 l 6.099,5.471 -2.46,-16.4 H -4.324 L -6.809,5.634 Z m 15.676,-12.929 3.54,23.601 -8.517,-7.64 -5.933,8.917 -5.292,-8.918 -9.037,7.477 3.516,-23.437 z"/></g><path id="path32" d="m 27,21 h -2 v -2 h 2 z"/><path id="path34" d="m 31,21 h -2 v -2 h 2 z"/><path id="path36" d="m 35,21 h -2 v -2 h 2 z"/><path id="path38" d="m 39,21 h -2 v -2 h 2 z"/><path id="path40" d="m 21,9 h 22 v 2 H 21 Z"/><path id="path42" d="M 17,24 H 7 v -2 h 10 z"/><g transform="translate(17.2748,28.9615)" id="g44"><path id="path46" d="m 0,0 -7,2 -0.55,-1.923 7,-2 z"/></g><g transform="translate(9.725,16.9615)" id="g48"><path id="path50" d="m 0,0 0.55,-1.923 7,2 L 7,2 Z"/></g><path id="path52" d="m 47,22 h 10 v 2 H 47 Z"/><g transform="translate(54.2748,29.0386)" id="g54"><path id="path56" d="m 0,0 -0.55,1.923 -7,-2 L -7,-2 Z"/></g><g transform="translate(54.2748,16.9615)" id="g58"><path id="path60" d="m 0,0 -7,2 -0.55,-1.923 7,-2 z"/></g></g></svg>