<svg xmlns="http://www.w3.org/2000/svg" xmlns:xlink="http://www.w3.org/1999/xlink" width="36" height="32" viewBox="0 0 36 32"><defs><path id="kbpda" d="M977.528 413.998h-35.064a.456.456 0 0 1-.37-.192.485.485 0 0 1-.076-.419c1.883-6.654 7.14-11.673 13.5-13.302l-2.7-15.91-.173-1.012a.491.491 0 0 1-.005-.04l-.096-.563a.476.476 0 0 1 .377-.552.465.465 0 0 1 .537.389l.035.207h9.13c.225 0 .417.166.456.394l.083.482h6.025c.144 0 .28.07.368.187.088.118.117.27.08.414l-.951 3.658 2.219 3.679a.489.489 0 0 1 .01.484.46.46 0 0 1-.404.245h-8.925a.47.47 0 0 1-.464-.477.48.48 0 0 1 .208-.398h-6.364l1.46 8.605a18.002 18.002 0 0 1 3.572-.358c8.274 0 15.666 5.702 17.977 13.868a.483.483 0 0 1-.074.419.457.457 0 0 1-.37.192zm-34.434-.956h14.607a3.478 3.478 0 0 1-.068-.685c0-1.895 1.526-3.436 3.401-3.436 1.304 0 2.472.734 3.052 1.915l-.83.429a2.458 2.458 0 0 0-2.222-1.389 2.48 2.48 0 0 0-2.377 3.166h18.24c-2.382-7.432-9.246-12.569-16.9-12.569-1.16 0-2.302.118-3.413.344l.61 3.592a.478.478 0 0 1-.457.56.466.466 0 0 1-.456-.395l-.602-3.548c-5.821 1.515-10.661 6.018-12.585 12.016zm12.69-5.477c-1.982 0-3.535-1.026-3.535-2.333 0-.737.493-1.41 1.35-1.846l.413.855c-.523.267-.836.636-.836.991 0 .652 1.072 1.378 2.608 1.378s2.607-.726 2.607-1.378a.8.8 0 0 0-.2-.504l.717-.606c.268.334.41.72.41 1.11 0 1.307-1.551 2.333-3.534 2.333zm8.811-2.126c-.382 0-.78-.094-1.159-.292-1.113-.585-1.628-1.853-1.145-2.825.183-.37.486-.654.876-.827l.365.878a.83.83 0 0 0-.415.382c-.245.496.093 1.202.74 1.541.658.344 1.396.215 1.647-.288a.81.81 0 0 0 .07-.217l.913.161c-.028.17-.08.334-.157.488-.318.643-.993.999-1.735.999zm5.87 5.598c-1.378 0-2.501-1.054-2.501-2.351 0-1.296 1.123-2.35 2.502-2.35.622 0 1.218.215 1.678.606l-.59.736a1.683 1.683 0 0 0-1.088-.388c-.868 0-1.574.626-1.574 1.396 0 .77.706 1.396 1.574 1.396.278 0 .55-.065.787-.189l.417.854c-.366.189-.783.29-1.204.29zm-21.478.597c-.71 0-1.363-.343-1.7-.895l.783-.509c.168.272.527.448.917.448.545 0 1.007-.347 1.007-.76 0-.38-.393-.713-.894-.756l.078-.952c.994.087 1.743.821 1.743 1.708 0 .945-.868 1.716-1.934 1.716zm20.689-20.441l-1.887-3.126a.492.492 0 0 1-.054-.376l.847-3.256h-5.256l1.062 6.202a.48.48 0 0 1-.18.556zm-14.862-.876h8.578l-1.159-6.759h-8.578l.01.055z"/></defs><g><g transform="translate(-942 -382)"><use xlink:href="#kbpda"/></g></g></svg>