<?xml version="1.0" encoding="UTF-8" standalone="no"?>
<svg xmlns:dc="http://purl.org/dc/elements/1.1/" xmlns:cc="http://creativecommons.org/ns#" xmlns:rdf="http://www.w3.org/1999/02/22-rdf-syntax-ns#" xmlns:svg="http://www.w3.org/2000/svg" xmlns="http://www.w3.org/2000/svg" viewBox="0 0 85.333336 85.334" height="85.334" width="85.333336" xml:space="preserve" id="svg2" version="1.1"><metadata id="metadata8"><rdf:RDF><cc:Work rdf:about=""><dc:format>image/svg+xml</dc:format><dc:type rdf:resource="http://purl.org/dc/dcmitype/StillImage"/></cc:Work></rdf:RDF></metadata><defs id="defs6"><clipPath id="clipPath48" clipPathUnits="userSpaceOnUse"><path id="path46" d="M 0,64 H 64 V 0 H 0 Z"/></clipPath></defs><g transform="matrix(1.3333333,0,0,-1.3333333,0,85.334)" id="g10"><g transform="translate(4.8826,59.9153)" id="g12"><path id="path14" d="m 0,0 -2.854,0.927 -0.618,-1.903 2.854,-0.926 z"/></g><g transform="translate(2.5457,55.4475)" id="g16"><path id="path18" d="M 0,0 1.618,-1.176 3.382,1.251 1.764,2.427 Z"/></g><g transform="translate(6.073,56.6985)" id="g20"><path id="path22" d="M 0,0 1.763,-2.427 3.381,-1.251 1.618,1.176 Z"/></g><g transform="translate(10.5887,58.9397)" id="g24"><path id="path26" d="M 0,0 -0.618,1.903 -3.471,0.976 -2.853,-0.927 Z"/></g><path id="path28" d="M 7,63.001 H 5 v -3 h 2 z"/><g transform="translate(5.3347,25.5168)" id="g30"><path id="path32" d="M 0,0 -1.33,0.967 -0.822,2.53 H 0.822 L 1.33,0.967 Z M 2.919,3.399 1,2.775 V 4.793 H -1 V 2.775 L -2.919,3.399 -3.537,1.497 -1.617,0.873 -2.804,-0.759 -1.186,-1.935 0,-0.303 1.187,-1.935 2.805,-0.759 1.618,0.873 3.537,1.497 Z"/></g><path id="path34" d="m 25,3 h 2 v 2 h -2 z"/><path id="path36" d="m 29,3 h 2 v 2 h -2 z"/><path id="path38" d="M 29,7 H 27 V 5 h 2 z"/><path id="path40" d="m 27,1 h 2 v 2 h -2 z"/><g id="g42"><g clip-path="url(#clipPath48)" id="g44"><g transform="translate(29.4441,17.0002)" id="g50"><path id="path52" d="m 0,0 h 5.146 l 1.112,-4 h -7.369 z m -13.527,2 c -1.609,0 -2.917,1.309 -2.917,2.917 V 6 h 38 V 4.917 C 21.556,3.309 20.247,2 18.639,2 H 6.667 -1.521 Z m 0,27 h 32.166 c 1.608,0 2.917,-1.308 2.917,-2.917 V 8 h -38 v 18.083 c 0,1.609 1.308,2.917 2.917,2.917 m 8.6,-33 v -2 h 1.184 12.632 1.184 v 2 h -1.74 l -1.11,4 h 11.416 c 2.711,0 4.917,2.206 4.917,4.917 V 26.083 C 23.556,28.795 21.35,31 18.639,31 h -32.166 c -2.711,0 -4.917,-2.205 -4.917,-4.917 V 4.917 C -18.444,2.206 -16.238,0 -13.527,0 h 11.451 l -1.112,-4 z"/></g><path id="path54" d="m 31,20 h 2 v 2 h -2 z"/><g transform="translate(48.9998,28.0002)" id="g56"><path id="path58" d="m 0,0 h -33 v 16 h -2 V -2 H 0 Z"/></g><g transform="translate(33.9998,33.0002)" id="g60"><path id="path62" d="m 0,0 c 0.552,0 1,-0.449 1,-1 0,-0.552 -0.448,-1 -1,-1 -0.551,0 -1,0.448 -1,1 0,0.551 0.449,1 1,1 m 0,-4 c 1.654,0 3,1.346 3,3 0,1.654 -1.346,3 -3,3 -1.654,0 -3,-1.346 -3,-3 0,-1.654 1.346,-3 3,-3"/></g><g transform="translate(43.9998,40.0007)" id="g64"><path id="path66" d="m 0,0 c 0.552,0 1,-0.449 1,-1 0,-0.551 -0.448,-1 -1,-1 -0.551,0 -1,0.449 -1,1 0,0.551 0.449,1 1,1 m 0,-4 c 1.654,0 3,1.346 3,3 0,1.654 -1.346,3 -3,3 -1.654,0 -3,-1.346 -3,-3 0,-1.654 1.346,-3 3,-3"/></g><g transform="translate(23.9998,42.0007)" id="g68"><path id="path70" d="m 0,0 c 0.552,0 1,-0.449 1,-1 0,-0.551 -0.448,-1 -1,-1 -0.551,0 -1,0.449 -1,1 0,0.551 0.449,1 1,1 m 0,-4 c 1.654,0 3,1.346 3,3 0,1.654 -1.346,3 -3,3 -1.654,0 -3,-1.346 -3,-3 0,-1.654 1.346,-3 3,-3"/></g><g transform="translate(48.2928,34.2927)" id="g72"><path id="path74" d="m 0,0 1.414,1.415 -2,2 L -2,2 Z"/></g><g transform="translate(41.6004,36.2004)" id="g76"><path id="path78" d="m 0,0 -1.2,1.6 -4,-3 L -4,-3 Z"/></g><g transform="translate(30.2928,34.2927)" id="g80"><path id="path82" d="m 0,0 1.414,1.415 -4,4 L -4,4 Z"/></g><g transform="translate(22.8738,37.5144)" id="g84"><path id="path86" d="m 0,0 -1.748,0.972 -5,-9.001 L -5,-9 Z"/></g><path id="path88" d="m 22,29 h 2 v 6 h -2 z"/><path id="path90" d="m 21,30 h -2 v -1 h 2 z"/><path id="path92" d="m 25,29 h 2 v 8 h -2 z"/><path id="path94" d="m 30,34 h -2 v -5 h 2 z"/><path id="path96" d="m 40,33 h -2 v -4 h 2 z"/><path id="path98" d="m 41,29 h 2 v 6 h -2 z"/><path id="path100" d="m 44,29 h 2 v 6 h -2 z"/><path id="path102" d="m 47,29 h 2 v 4 h -2 z"/><path id="path104" d="M 10,35 H 0 v -2 h 10 z"/><g transform="translate(1.9998,43.0007)" id="g106"><path id="path108" d="M 0,0 H 2 V -7 H 4 V 2 H -2 V -7 H 0 Z"/></g><g transform="translate(13.9998,50.0007)" id="g110"><path id="path112" d="m 0,0 v 3 h -6 v -17 h 2 V 1 h 2 V 0 Z"/></g><g transform="translate(17.9998,56.0007)" id="g114"><path id="path116" d="M 0,0 H 2 V -6 H 4 V 2 H -2 V -6 H 0 Z"/></g><g transform="translate(25.9998,62.0007)" id="g118"><path id="path120" d="M 0,0 H 2 V -12 H 4 V 2 h -6 v -14 h 2 z"/></g><path id="path122" d="M 33,0 H 64 V 2 H 33 Z"/><g transform="translate(55.0408,19.0388)" id="g124"><path id="path126" d="m 0,0 -4.056,-11.152 -2.734,7.292 -4.251,-6.376 -2.044,3.066 -3.154,-5.256 -1.957,1.956 -2.677,-4.014 1.664,-1.109 1.323,1.985 2.044,-2.043 2.846,4.743 1.955,-2.934 3.749,5.625 3.266,-8.709 3.944,10.848 2.216,-6.648 2.616,11.337 2.22,-14.798 1.978,0.296 L 5.168,9.312 1.784,-5.351 Z"/></g><g transform="translate(42.2908,60.7629)" id="g128"><path id="path130" d="M 0,0 2.4,-6.593 C 1.112,-7.282 0.062,-8.361 -0.585,-9.695 l -7.014,1.237 C -6.371,-4.672 -3.577,-1.609 0,0 m 11.787,-8.099 4.49,4.491 c 0.363,-0.418 0.709,-0.85 1.021,-1.309 z m -1.893,0.935 c -0.423,0.316 -0.879,0.589 -1.368,0.805 l 5.119,5.118 c 0.425,-0.294 0.829,-0.615 1.218,-0.953 z M 4.28,-5.913 4.198,-5.687 10.325,0.439 C 10.851,0.255 11.36,0.041 11.854,-0.203 L 6.267,-5.791 c -0.185,0.015 -0.37,0.029 -0.558,0.029 -0.489,0 -0.966,-0.055 -1.429,-0.151 M 2.109,0.052 1.875,0.695 C 2.257,0.804 2.644,0.903 3.037,0.979 Z M 6.104,1.218 C 6.775,1.199 7.434,1.132 8.079,1.021 L 3.443,-3.614 2.864,-2.021 Z m -14.193,-11.621 7.624,-1.344 0.005,0.026 1.238,-0.207 c 0.405,2.413 2.479,4.166 4.931,4.166 2.757,0 5,-2.243 5,-5 0,-0.574 -0.096,-1.134 -0.284,-1.667 l 1.885,-0.668 c 0.264,0.747 0.399,1.533 0.399,2.335 0,0.917 -0.182,1.791 -0.504,2.595 l 6.082,3.512 c 0.901,-1.849 1.422,-3.916 1.422,-6.107 0,-3.86 -1.587,-7.463 -4.259,-10.055 l -2.972,3.543 -1.532,-1.285 2.974,-3.544 c -0.804,-0.583 -1.677,-1.087 -2.611,-1.496 l 0.8,-1.832 c 5.832,2.549 9.6,8.306 9.6,14.669 0,8.822 -7.178,16 -16,16 -8.401,0 -15.414,-6.56 -15.965,-14.935 l 1.996,-0.132 c 0.031,0.483 0.091,0.958 0.171,1.426"/></g><g transform="translate(15.4949,3.2121)" id="g132"><path id="path134" d="m 0,0 c -2.45,-1.419 -5.521,-1.585 -8.098,-0.453 l 2.849,4.935 1.12,1.939 1.853,-1.069 5.019,-2.898 C 2.009,1.459 1.074,0.622 0,0 m -11.954,2.788 h 3.418 L -9.829,0.55 c -0.832,0.615 -1.547,1.377 -2.125,2.238 m 2.841,11 h -2.077 c 0.41,0.458 0.866,0.873 1.361,1.239 z m -3.842,-9 c -0.117,0.328 -0.218,0.661 -0.296,1 h 6.446 l -0.577,-1 z m 4.996,7 0.577,-1 h -5.573 c 0.13,0.364 0.283,0.719 0.46,1.066 v -0.066 z m -5.47,-3 h 7.202 l 0.578,-1 h -7.846 c 0,0.335 0.029,0.668 0.066,1 M 3.746,4.185 0.265,6.194 -0.763,6.788 H 4.448 C 4.347,5.893 4.109,5.014 3.746,4.185 M 5.024,2.291 C 5.025,2.292 5.026,2.294 5.027,2.296 L 5.526,3.157 5.469,3.19 c 0.527,1.14 0.854,2.354 0.969,3.598 h 0.067 v 1 c 0,1.921 -0.512,3.823 -1.481,5.497 L 3.293,12.283 C 3.917,11.205 4.31,10.013 4.448,8.788 h -8.365 l -4.182,7.242 c 0.861,0.38 1.767,0.618 2.704,0.713 l -0.2,1.99 C -6.816,18.61 -7.989,18.28 -9.099,17.764 l -0.026,0.046 -0.867,-0.502 c -10e-4,-0.001 -0.002,-0.002 -0.003,-0.003 l -0.861,-0.497 0.032,-0.058 c -1.293,-0.915 -2.393,-2.088 -3.19,-3.465 -0.968,-1.674 -1.481,-3.575 -1.481,-5.497 0,-1.922 0.513,-3.823 1.481,-5.497 0.797,-1.377 1.897,-2.549 3.191,-3.465 l -0.033,-0.057 0.864,-0.5 0.867,-0.501 0.032,0.056 c 1.445,-0.668 3.01,-1.036 4.598,-1.036 1.922,0 3.823,0.512 5.497,1.481 1.664,0.963 3.054,2.353 4.019,4.017 0.001,0.002 0.002,0.003 0.003,0.005"/></g></g></g></g></svg>