<?xml version="1.0" encoding="UTF-8" standalone="no"?>
<svg xmlns:dc="http://purl.org/dc/elements/1.1/" xmlns:cc="http://creativecommons.org/ns#" xmlns:rdf="http://www.w3.org/1999/02/22-rdf-syntax-ns#" xmlns:svg="http://www.w3.org/2000/svg" xmlns="http://www.w3.org/2000/svg" viewBox="0 0 87.094933 85.268402" height="85.268402" width="87.094933" xml:space="preserve" id="svg2" version="1.1"><metadata id="metadata8"><rdf:RDF><cc:Work rdf:about=""><dc:format>image/svg+xml</dc:format><dc:type rdf:resource="http://purl.org/dc/dcmitype/StillImage"/></cc:Work></rdf:RDF></metadata><defs id="defs6"><clipPath id="clipPath104" clipPathUnits="userSpaceOnUse"><path id="path102" d="M 0,63.951 H 65.321 V 0 H 0 Z"/></clipPath></defs><g transform="matrix(1.3333333,0,0,-1.3333333,0,85.2684)" id="g10"><g transform="translate(4.2134,36.1044)" id="g12"><path id="path14" d="M 0,0 -2.853,0.927 -2.235,2.829 0.618,1.902 Z"/></g><g transform="translate(4.1133,32.3632)" id="g16"><path id="path18" d="M 0,0 -1.618,1.176 0.145,3.603 1.763,2.427 Z"/></g><g transform="translate(7.7852,32.3632)" id="g20"><path id="path22" d="M 0,0 -1.763,2.427 -0.145,3.603 1.618,1.176 Z"/></g><g transform="translate(7.6851,36.1044)" id="g24"><path id="path26" d="M 0,0 -0.618,1.902 2.235,2.829 2.853,0.927 Z"/></g><path id="path28" d="m 6.949,38.092 h -2 v 3 h 2 z"/><g transform="translate(57.0562,41.3007)" id="g30"><path id="path32" d="m 0,0 -2.152,0.699 0.618,1.903 2.152,-0.7 z"/></g><g transform="translate(57.2549,38.5682)" id="g34"><path id="path36" d="M 0,0 -1.618,1.176 -0.288,3.007 1.33,1.831 Z"/></g><g transform="translate(59.6275,38.5682)" id="g38"><path id="path40" d="M 0,0 -1.33,1.831 0.288,3.007 1.618,1.176 Z"/></g><g transform="translate(59.8262,41.3007)" id="g42"><path id="path44" d="m 0,0 -0.618,1.902 2.152,0.7 0.618,-1.903 z"/></g><path id="path46" d="m 59.441,43.034 h -2 v 2.263 h 2 z"/><path id="path48" d="m 31.669,53.951 h -2 v 2 h 2 z"/><path id="path50" d="m 35.669,53.951 h -2 v 2 h 2 z"/><path id="path52" d="m 33.669,55.951 h -2 v 2 h 2 z"/><path id="path54" d="m 33.669,51.951 h -2 v 2 h 2 z"/><path id="path56" d="m 25.669,33.951 h -2 v 2 h 2 z"/><path id="path58" d="m 29.669,33.951 h -2 v 2 h 2 z"/><path id="path60" d="m 27.669,35.951 h -2 v 2 h 2 z"/><path id="path62" d="m 27.669,31.951 h -2 v 2 h 2 z"/><path id="path64" d="m 60.669,58.951 h -2 v 2 h 2 z"/><path id="path66" d="m 64.669,58.951 h -2 v 2 h 2 z"/><path id="path68" d="m 62.669,60.951 h -2 v 2 h 2 z"/><path id="path70" d="m 62.669,56.951 h -2 v 2 h 2 z"/><path id="path72" d="m 58.669,26.951 h -2 v 2 h 2 z"/><path id="path74" d="m 62.669,26.951 h -2 v 2 h 2 z"/><path id="path76" d="m 60.669,28.951 h -2 v 2 h 2 z"/><path id="path78" d="m 60.669,24.951 h -2 v 2 h 2 z"/><path id="path80" d="m 7.669,59.951 h -2 v 2 h 2 z"/><path id="path82" d="m 11.669,59.951 h -2 v 2 h 2 z"/><path id="path84" d="m 7.67,61.951 h 2 v 2.001 h -2 z"/><path id="path86" d="m 9.669,57.951 h -2 v 2 h 2 z"/><path id="path88" d="m 40.669,36.951 h -2 v 9 h 2 z"/><g transform="translate(46.6695,57.3651)" id="g90"><path id="path92" d="M 0,0 -1.293,1.293 -2.707,-0.121 0,-2.828 3.707,0.879 2.293,2.293 Z"/></g><g transform="translate(40.1607,52.9999)" id="g94"><path id="path96" d="M 0,0 V 5.951 8 h 12.028 l 3.2,-4 -3.2,-4 z m 17.79,4 -4.801,6 H -2 v -4.049 -8 V -6 h 2 v 4 h 12.989 z"/></g><g id="g98"><g clip-path="url(#clipPath104)" id="g100"><g transform="translate(47.6695,17.951)" id="g106"><path id="path108" d="M 0,0 C -0.551,0 -1,0.449 -1,1 -1,1.552 -0.551,2 0,2 0.551,2 1,1.552 1,1 1,0.449 0.551,0 0,0 m -9,-12 c -0.551,0 -1,0.449 -1,1 0,0.552 0.449,1 1,1 0.551,0 1,-0.448 1,-1 0,-0.551 -0.449,-1 -1,-1 m -5,19 c 0,0.552 0.449,1 1,1 0.551,0 1,-0.448 1,-1 0,-0.551 -0.449,-1 -1,-1 -0.551,0 -1,0.449 -1,1 m 6,11 c 0.551,0 1,-0.448 1,-1 0,-0.551 -0.449,-1 -1,-1 -0.551,0 -1,0.449 -1,1 0,0.552 0.449,1 1,1 M 0,4 C -0.825,4 -1.573,3.665 -2.116,3.124 l -7.971,3.188 C -10.035,6.534 -10,6.763 -10,7 c 0,0.807 -0.324,1.537 -0.844,2.077 l 2.48,4.96 C -8.243,14.022 -8.125,14 -8,14 c 1.654,0 3,1.346 3,3 0,1.654 -1.346,3 -3,3 -1.654,0 -3,-1.346 -3,-3 0,-0.807 0.324,-1.537 0.843,-2.076 l -2.48,-4.96 C -12.757,9.979 -12.875,10 -13,10 c -1.654,0 -3,-1.346 -3,-3 0,-1.654 1.346,-3 3,-3 0.673,0 1.289,0.231 1.79,0.607 L -2.969,1.311 C -2.979,1.207 -3,1.106 -3,1 c 0,-0.757 0.292,-1.441 0.756,-1.971 l -5.639,-7.25 C -8.229,-8.081 -8.605,-8 -9,-8 c -1.654,0 -3,-1.346 -3,-3 0,-1.654 1.346,-3 3,-3 1.654,0 3,1.346 3,3 0,0.526 -0.148,1.015 -0.387,1.445 l 5.913,7.603 C -0.318,-1.977 -0.162,-2 0,-2 1.654,-2 3,-0.654 3,1 3,2.654 1.654,4 0,4"/></g><g transform="translate(34.1607,1.9999)" id="g110"><path id="path112" d="M 0,0 V -2 H 31.161 L 5.509,47.002 -9.377,18.539 -7.605,17.605 -1.311,29.633 0.954,28.121 2.063,29.784 -0.378,31.412 5.509,42.663 11.45,31.308 7.509,27.365 6.216,28.658 4.802,27.244 7.509,24.537 12.422,29.475 27.857,0 Z"/></g><g transform="translate(13.2837,23.3963)" id="g114"><path id="path116" d="m 0,0 0.925,-3.714 3.461,4.609 2.891,-3.86 2.577,2.6 9.953,-21.031 H -10.126 Z M 8.946,1.529 7.494,0.077 4.386,4.222 1.846,0.836 1.356,2.798 1.331,2.791 4.84,10.215 Z M 4.84,14.943 -13.284,-23.396 h 36.248 z"/></g><path id="path118" d="m 10.669,2.951 h -7 v 2 h 7 z"/><path id="path120" d="m 12.669,6.951 h -8 v 2 h 8 z"/><path id="path122" d="m 14.669,10.951 h -8 v 2 h 8 z"/><path id="path124" d="m 16.669,14.951 h -8 v 2 h 8 z"/><g transform="translate(11.6695,46.951)" id="g126"><path id="path128" d="m 0,0 c -0.551,0 -1,-0.448 -1,-1 0,-0.551 0.449,-1 1,-1 h 20 c 0.551,0 1,0.449 1,1 0,0.552 -0.449,1 -1,1 H 9 C 7.346,0 6,1.346 6,3 6,4.654 7.346,6 9,6 h 2 c 0.551,0 1,0.449 1,1 0,0.552 -0.449,1 -1,1 H -8 C -8.551,8 -9,7.552 -9,7 -9,6.449 -8.551,6 -8,6 H 1 C 2.654,6 4,4.654 4,3 4,1.346 2.654,0 1,0 Z M 20,-4 H 0 c -1.654,0 -3,1.346 -3,3 0,1.654 1.346,3 3,3 H 1 C 1.551,2 2,2.449 2,3 2,3.552 1.551,4 1,4 h -9 c -1.654,0 -3,1.346 -3,3 0,1.654 1.346,3 3,3 H 11 C 12.654,10 14,8.654 14,7 14,5.346 12.654,4 11,4 H 9 C 8.449,4 8,3.552 8,3 8,2.449 8.449,2 9,2 h 11 c 1.654,0 3,-1.346 3,-3 0,-1.654 -1.346,-3 -3,-3"/></g></g></g></g></svg>