<?xml version="1.0" encoding="UTF-8" standalone="no"?>
<svg xmlns:dc="http://purl.org/dc/elements/1.1/" xmlns:cc="http://creativecommons.org/ns#" xmlns:rdf="http://www.w3.org/1999/02/22-rdf-syntax-ns#" xmlns:svg="http://www.w3.org/2000/svg" xmlns="http://www.w3.org/2000/svg" viewBox="0 0 85.334 82.666664" height="82.666664" width="85.334" xml:space="preserve" id="svg2" version="1.1"><metadata id="metadata8"><rdf:RDF><cc:Work rdf:about=""><dc:format>image/svg+xml</dc:format><dc:type rdf:resource="http://purl.org/dc/dcmitype/StillImage"/></cc:Work></rdf:RDF></metadata><defs id="defs6"><clipPath id="clipPath18" clipPathUnits="userSpaceOnUse"><path id="path16" d="M 0,62 H 64 V 0 H 0 Z"/></clipPath></defs><g transform="matrix(1.3333333,0,0,-1.3333333,0,82.666667)" id="g10"><g id="g12"><g clip-path="url(#clipPath18)" id="g14"><g transform="translate(5.4998,42.5004)" id="g20"><path id="path22" d="M 0,0 C -0.276,0 -0.5,-0.225 -0.5,-0.5 -0.5,-0.775 -0.276,-1 0,-1 0.276,-1 0.5,-0.775 0.5,-0.5 0.5,-0.225 0.276,0 0,0 m 0,-3 c -1.378,0 -2.5,1.121 -2.5,2.5 C -2.5,0.879 -1.378,2 0,2 1.378,2 2.5,0.879 2.5,-0.5 2.5,-1.879 1.378,-3 0,-3"/></g><g transform="translate(6.5443,56.0131)" id="g24"><path id="path26" d="M 0,0 -2.854,0.927 -2.235,2.829 0.618,1.902 Z"/></g><g transform="translate(6.4437,52.2719)" id="g28"><path id="path30" d="M 0,0 -1.618,1.176 0.146,3.603 1.764,2.427 Z"/></g><g transform="translate(10.1156,52.2719)" id="g32"><path id="path34" d="M 0,0 -1.763,2.427 -0.145,3.603 1.618,1.176 Z"/></g><g transform="translate(10.0155,56.0131)" id="g36"><path id="path38" d="M 0,0 -0.618,1.902 2.235,2.829 2.853,0.927 Z"/></g><path id="path40" d="m 9.28,58 h -2 v 3 h 2 z"/><g transform="translate(41.8421,57.0043)" id="g42"><path id="path44" d="m 0,0 -2.151,0.699 0.619,1.903 2.151,-0.7 z"/></g><g transform="translate(42.0413,54.2719)" id="g46"><path id="path48" d="M 0,0 -1.617,1.176 -0.287,3.007 1.33,1.831 Z"/></g><g transform="translate(44.4144,54.2719)" id="g50"><path id="path52" d="M 0,0 -1.33,1.831 0.287,3.007 1.617,1.176 Z"/></g><g transform="translate(44.6126,57.0043)" id="g54"><path id="path56" d="m 0,0 -0.617,1.902 2.152,0.7 0.617,-1.903 z"/></g><path id="path58" d="m 44.228,58.738 h -2 v 2.263 h 2 z"/><path id="path60" d="m 56,44 h -2 v 2 h 2 z"/><path id="path62" d="m 60,44 h -2 v 2 h 2 z"/><path id="path64" d="m 58,46 h -2 v 2 h 2 z"/><path id="path66" d="m 58,42 h -2 v 2 h 2 z"/><path id="path68" d="m 20,60 h -2 v 2 h 2 z"/><path id="path70" d="m 24,60 h -2 v 2 h 2 z"/><path id="path72" d="m 28,60 h -2 v 2 h 2 z"/><path id="path74" d="m 30,52 h -2 v 2 h 2 z"/><path id="path76" d="m 34,52 h -2 v 2 h 2 z"/><path id="path78" d="m 38,52 h -2 v 2 h 2 z"/><path id="path80" d="m 57,60 h -3 v 2 h 3 z"/><path id="path82" d="m 61,57 h -4 v 2 h 4 z"/><g transform="translate(49.0003,2.0004)" id="g84"><path id="path86" d="m 0,0 h -34 v 46 h 23 V 36 c 0,-0.553 0.447,-1 1,-1 H 0 Z M -9.001,44.586 -1.414,37 H -9.001 Z M 1.988,36.06 C 1.982,36.151 1.964,36.239 1.935,36.325 1.923,36.357 1.915,36.39 1.901,36.42 1.854,36.521 1.793,36.617 1.712,36.7 1.709,36.703 1.708,36.706 1.706,36.708 L -9.293,47.707 c -0.084,0.084 -0.184,0.146 -0.288,0.193 -0.03,0.015 -0.061,0.023 -0.092,0.034 -0.087,0.03 -0.175,0.047 -0.267,0.053 C -9.961,47.988 -9.979,48 -10,48 h -25 c -0.553,0 -1,-0.448 -1,-1 V -1 c 0,-0.553 0.447,-1 1,-1 H 1 c 0.553,0 1,0.447 1,1 v 37 c 0,0.021 -0.011,0.039 -0.012,0.06"/></g><g transform="translate(29.9847,26.0004)" id="g88"><path id="path90" d="M 0,0 -10.985,-6.277 V 6.276 Z M 2.016,1.151 -8.219,7 H 12.25 Z M 12.25,-7 H -8.219 L 2.016,-1.152 Z M 4.031,0 15.016,6.276 V -6.277 Z m -17.016,-9 h 30 V 9 h -30 z"/></g><path id="path92" d="M 37,47 H 16 v -2 h 21 z"/><path id="path94" d="M 37,43 H 16 v -2 h 21 z"/><path id="path96" d="M 37,39 H 16 v -2 h 21 z"/><path id="path98" d="m 17,13 h 30 v 2 H 17 Z"/><path id="path100" d="m 17,9 h 30 v 2 H 17 Z"/><path id="path102" d="M 17,5 H 47 V 7 H 17 Z"/><g transform="translate(62.0003,9.0004)" id="g104"><path id="path106" d="m 0,0 h -11 v 26 h 4.583 v -5.417 c 0,-0.553 0.447,-1 1,-1 H 0 Z m -1.414,21.583 h -3.003 v 3.003 z m 3.402,-0.94 C 1.982,20.734 1.964,20.822 1.935,20.908 1.923,20.94 1.915,20.973 1.901,21.003 1.854,21.104 1.793,21.2 1.712,21.283 1.709,21.286 1.708,21.289 1.706,21.291 l -6.414,6.414 c -0.003,0.002 -0.006,0.004 -0.008,0.006 -0.083,0.082 -0.179,0.142 -0.281,0.189 -0.03,0.014 -0.061,0.023 -0.093,0.034 -0.087,0.03 -0.175,0.047 -0.266,0.053 C -5.377,27.988 -5.396,28 -5.417,28 H -12 c -0.553,0 -1,-0.447 -1,-1 V -1 c 0,-0.553 0.447,-1 1,-1 H 1 c 0.553,0 1,0.447 1,1 v 21.583 c 0,0.021 -0.011,0.039 -0.012,0.06"/></g><path id="path108" d="m 55,34 h -3 v -2 h 3 z"/><path id="path110" d="m 55,31 h -3 v -2 h 3 z"/><path id="path112" d="m 52,26 h 9 v 2 h -9 z"/><path id="path114" d="m 52,23 h 9 v 2 h -9 z"/><path id="path116" d="m 52,20 h 9 v 2 h -9 z"/><path id="path118" d="m 52,17 h 9 v 2 h -9 z"/><path id="path120" d="m 52,14 h 9 v 2 h -9 z"/><path id="path122" d="m 52,11 h 9 v 2 h -9 z"/><path id="path124" d="M 2,9 H 13 V 35 H 2 Z M 14,7 H 1 C 0.448,7 0,7.448 0,8 v 28 c 0,0.553 0.448,1 1,1 h 13 c 0.552,0 1,-0.447 1,-1 V 8 C 15,7.448 14.552,7 14,7"/><path id="path126" d="M 12,32 H 3 v 2 h 9 z"/><path id="path128" d="M 12,29 H 3 v 2 h 9 z"/><path id="path130" d="M 12,26 H 3 v 2 h 9 z"/><path id="path132" d="M 12,23 H 3 v 2 h 9 z"/><path id="path134" d="M 12,20 H 3 v 2 h 9 z"/><path id="path136" d="M 12,17 H 3 v 2 h 9 z"/><path id="path138" d="M 12,14 H 3 v 2 h 9 z"/><path id="path140" d="M 12,11 H 3 v 2 h 9 z"/></g></g></g></svg>