<svg id="Layer_1" data-name="Layer 1" xmlns="http://www.w3.org/2000/svg" viewBox="0 0 58.12 60.83"><defs/><title>09</title><rect class="cls-1" x="27.18" y="55.83" width="6" height="2"/><rect class="cls-1" x="31.18" y="58.83" width="8" height="2"/><rect class="cls-1" x="46.48" y="55.6" width="8" height="2"/><rect class="cls-1" x="44.48" y="58.6" width="5" height="2"/><path class="cls-2" d="M94.39,2645a1.14,1.14,0,0,0,1.14-1.14V2643h41.86v.89a1.14,1.14,0,1,0,2.27,0v-2a1.14,1.14,0,0,0-1.13-1.14H94.39a1.14,1.14,0,0,0-1.14,1.14v2A1.14,1.14,0,0,0,94.39,2645Z" transform="translate(-88 -2634.38)"/><path class="cls-2" d="M132.52,2661.7a5.34,5.34,0,1,0,5.34,5.34A5.35,5.35,0,0,0,132.52,2661.7Zm0,8.41a3.07,3.07,0,1,1,3.07-3.07A3.07,3.07,0,0,1,132.52,2670.11Z" transform="translate(-88 -2634.38)"/><path class="cls-2" d="M145,2657.49h-.06v-22a1.14,1.14,0,0,0-1.14-1.13H95.44a7.45,7.45,0,0,0-7.44,7.44v37.83a7.47,7.47,0,0,0,7.29,7.44,11.53,11.53,0,0,0,19.22,0h30.41v-10.51H145a1.14,1.14,0,0,0,1.14-1.13v-16.82A1.14,1.14,0,0,0,145,2657.49Zm-54.71,22.16v-32.48a7.49,7.49,0,0,0,5.17,2.09h47.2v8.23H132.52a9.55,9.55,0,0,0,0,19.09h10.12v8.24H115.69a11.76,11.76,0,0,0,.7-3h1.36v-2.28h-1.36a11.55,11.55,0,0,0-23,1.14,11.36,11.36,0,0,0,.69,3.92A5.18,5.18,0,0,1,90.27,2679.65Zm5.17-43h47.2V2647H95.44a5.17,5.17,0,0,1,0-10.34ZM125.25,2667a7.28,7.28,0,0,1,7.27-7.27h11.33v14.54H132.52A7.28,7.28,0,0,1,125.25,2667Zm-20.35,4.39a9.27,9.27,0,1,1-9.27,9.27A9.28,9.28,0,0,1,104.9,2671.43Z" transform="translate(-88 -2634.38)"/><rect class="cls-2" x="48.19" y="17.86" width="2.57" height="2.27"/><rect class="cls-2" x="43.99" y="17.86" width="2.57" height="2.27"/><rect class="cls-2" x="39.78" y="17.86" width="2.57" height="2.27"/><rect class="cls-2" x="35.58" y="17.86" width="2.57" height="2.27"/><rect class="cls-2" x="31.38" y="17.86" width="2.57" height="2.27"/><rect class="cls-2" x="27.17" y="17.86" width="2.57" height="2.27"/><rect class="cls-2" x="22.97" y="17.86" width="2.57" height="2.27"/><rect class="cls-2" x="18.77" y="17.86" width="2.57" height="2.27"/><rect class="cls-2" x="14.56" y="17.86" width="2.57" height="2.27"/><rect class="cls-2" x="10.36" y="17.86" width="2.57" height="2.27"/><rect class="cls-2" x="6.16" y="17.86" width="2.57" height="2.27"/><rect class="cls-2" x="48.19" y="45.19" width="2.57" height="2.27"/><rect class="cls-2" x="43.99" y="45.19" width="2.57" height="2.27"/><rect class="cls-2" x="39.78" y="45.19" width="2.57" height="2.27"/><rect class="cls-2" x="35.58" y="45.19" width="2.57" height="2.27"/><rect class="cls-2" x="31.38" y="45.19" width="2.57" height="2.27"/><path class="cls-2" d="M102.14,2680.46a1.12,1.12,0,0,0,.82-.35l1.35-1.39v5.61h-1.13a1.14,1.14,0,0,0,0,2.28h2l.26,0a1.15,1.15,0,0,0,.26,0h2a1.14,1.14,0,0,0,0-2.28h-1.08v-8.43a1.14,1.14,0,0,0-.71-1.06,1.26,1.26,0,0,0-.43-.08,1.18,1.18,0,0,0-.82.35l-3.3,3.42a1.12,1.12,0,0,0-.31.82,1.08,1.08,0,0,0,.34.79A1.14,1.14,0,0,0,102.14,2680.46Z" transform="translate(-88 -2634.38)"/></svg>