<svg id="Layer_1" data-name="Layer 1" xmlns="http://www.w3.org/2000/svg" viewBox="0 0 64 50.47"><defs/><title>04</title><rect class="cls-1" x="0.72" y="17.26" width="2" height="2"/><rect class="cls-1" x="0.72" y="13.26" width="2" height="2"/><rect class="cls-1" x="0.72" y="9.26" width="2" height="2"/><rect class="cls-1" x="6.44" width="6" height="2"/><rect class="cls-1" x="9.44" y="3" width="9" height="2"/><rect class="cls-2" x="61.9" y="44.68" width="2.1" height="2.32"/><path class="cls-2" d="M113.15,2554.73a2.46,2.46,0,0,0-2.46-2.45H96.83v-2.21h1.51v-6.84H73.23v6.84h1.51v2.21H60.89a2.45,2.45,0,0,0-2.45,2.45v6.57h2.1v-6.57a.35.35,0,0,1,.35-.35h6.65v10.92h2.1v-10.92H73v10.92h2.1v-10.92H96.65v12.2h-.52v5H75.34v-5.39H73.48v-.56H71.15v2.11h2.09V2591h-22v-23.2H52v-2.11H49.71v.56h-.56v26.85H75.34v-19.36h5.9v3.14a2.45,2.45,0,0,0,2.45,2.45H87.9a2.45,2.45,0,0,0,2.45-2.45v-3.14h5.78v5h.52V2591H95.12v.05h-.36V2591H92.44v.05h-.36V2591H89.76v.05H89.4V2591H87.08v.05h-.36V2591H84.4v.05H84V2591H81.72v.05h-.36V2591H79v.05h-.36V2591H76.36v2.1h2.32V2593H79v.05h2.32V2593h.36v.05H84V2593h.36v.05h2.32V2593h.36v.05H89.4V2593h.36v.05h2.32V2593h.36v.05h2.32V2593h.36v.05h10.37V2593h.35v.05h2.33V2593h.35v.05h2.33v-1.53l1.08,1.25.37-.32a2.45,2.45,0,0,0,.85-1.86V2590h-2.09v.63a.35.35,0,0,1-.13.27l-.09.09h-2.31v.05h-.35V2591h-2.33v.05h-.35V2591H104.2v-12.21h.52v-5h2.49l.06.09.11-.09h.14v-.1l3.53-2.67v14.65h0v1.34h2.1v-1.34h0Zm-35.78-2.45h-.53v-2.21h.53Zm14.73,0H79.47v-2.21H92.1Zm2.63,0H94.2v-2.21h.53Zm1.51-4.32H75.33v-2.63H96.24Zm-8,28.89a.35.35,0,0,1-.35.35H83.69a.35.35,0,0,1-.35-.35v-3.14h4.91Zm10.51-22.47h3.34v12.2H98.76Zm-.53,14.3h4.39v8H98.23Zm3.87,10.06V2591H98.76v-12.21Zm9-10.43-4.37,3.3h-2v-5h-.52v-12.2h6.49a.36.36,0,0,1,.36.35Z" transform="translate(-49.15 -2542.6)"/><rect class="cls-2" x="5.92" y="23.06" width="2.33" height="2.1"/><rect class="cls-2" x="8.6" y="23.06" width="2.33" height="2.1"/><rect class="cls-2" x="3.24" y="23.06" width="2.32" height="2.1"/><rect class="cls-2" x="11.28" y="23.06" width="2.32" height="2.1"/><rect class="cls-2" x="19.32" y="23.06" width="2.33" height="2.1"/><rect class="cls-2" x="13.96" y="23.06" width="2.32" height="2.1"/><rect class="cls-2" x="16.64" y="23.06" width="2.32" height="2.1"/><polygon class="cls-2" points="10.6 36.15 7.28 36.15 7.28 39.07 4.15 39.07 4.15 46.88 6.25 46.88 6.25 40.83 7.28 40.83 7.28 46.88 9.38 46.88 9.38 46.88 9.38 39.07 9.38 38.03 10.42 38.03 10.42 46.88 10.6 46.88 12.52 46.88 12.7 46.88 12.7 34.08 13.74 34.08 13.74 46.88 13.74 46.88 15.84 46.88 15.84 46.88 15.84 32.15 15.84 32.15 15.84 28.73 16.88 28.73 16.88 30.2 16.88 46.88 18.98 46.88 18.98 32.18 20.01 32.18 20.01 46.88 22.11 46.88 22.11 30.2 18.98 30.2 18.98 26.74 13.74 26.74 13.74 32.15 10.6 32.15 10.6 36.15"/><rect class="cls-2" x="28.09" y="14.26" width="9.4" height="2.1"/><rect class="cls-2" x="28.09" y="17.99" width="15.54" height="2.1"/><rect class="cls-2" x="28.09" y="21.71" width="15.54" height="2.1"/><rect class="cls-2" x="28.09" y="39.88" width="15.54" height="2.1"/><rect class="cls-2" x="28.09" y="43.6" width="15.54" height="2.1"/></svg>