<svg xmlns="http://www.w3.org/2000/svg" xmlns:xlink="http://www.w3.org/1999/xlink" preserveAspectRatio="xMidYMid" width="25" height="25" viewBox="0 0 25 25">
  <defs>
    
  </defs>
  <path d="M12.500,25.000 C5.596,25.000 -0.000,19.403 -0.000,12.500 C-0.000,5.596 5.596,-0.000 12.500,-0.000 C19.403,-0.000 25.000,5.596 25.000,12.500 C25.000,19.403 19.403,25.000 12.500,25.000 ZM12.526,5.723 C12.517,5.723 12.509,5.723 12.500,5.722 C12.491,5.723 12.483,5.723 12.474,5.723 C10.368,5.756 8.654,7.497 8.654,9.604 C8.654,12.005 11.045,14.433 12.255,15.508 C12.256,15.510 12.258,15.511 12.259,15.512 C12.346,15.589 12.427,15.660 12.500,15.722 C13.594,14.788 16.346,12.179 16.346,9.604 C16.346,7.497 14.632,5.756 12.526,5.723 ZM14.471,15.663 C14.182,15.954 13.908,16.210 13.668,16.425 C15.341,16.595 16.329,17.119 16.329,17.429 C16.329,17.803 14.896,18.489 12.554,18.489 C10.213,18.489 8.780,17.803 8.780,17.429 C8.780,17.125 9.728,16.614 11.342,16.434 C11.104,16.222 10.832,15.968 10.546,15.680 C9.064,15.953 7.915,16.543 7.915,17.429 C7.915,18.693 10.249,19.354 12.554,19.354 C14.860,19.354 17.194,18.693 17.194,17.429 C17.194,16.524 15.997,15.929 14.471,15.663 ZM10.524,9.214 C10.524,8.103 11.425,7.202 12.536,7.202 C13.648,7.202 14.549,8.103 14.549,9.214 C14.549,10.326 13.648,11.227 12.536,11.227 C11.425,11.227 10.524,10.326 10.524,9.214 Z" class="cls-1"/>
</svg>
