<svg xmlns="http://www.w3.org/2000/svg" xmlns:xlink="http://www.w3.org/1999/xlink" preserveAspectRatio="xMidYMid" width="32" height="26" viewBox="0 0 32 26">
  <defs>
    
  </defs>
  <path d="M19.417,26.000 C18.640,26.000 17.880,25.926 17.141,25.787 C23.004,24.681 27.449,19.377 27.449,13.000 C27.449,6.623 23.004,1.319 17.141,0.212 C17.879,0.073 18.640,-0.000 19.417,-0.000 C26.366,-0.000 32.000,5.820 32.000,13.000 C32.000,20.180 26.366,26.000 19.417,26.000 ZM24.364,13.000 C24.364,19.951 18.909,25.586 12.182,25.586 C5.454,25.586 -0.000,19.951 -0.000,13.000 C-0.000,6.049 5.454,0.414 12.182,0.414 C18.910,0.414 24.364,6.049 24.364,13.000 ZM14.627,19.814 L14.627,6.185 C14.627,5.670 14.223,5.253 13.725,5.253 L12.240,5.253 C12.091,5.253 11.945,5.291 11.814,5.363 L8.950,6.948 C8.584,7.150 8.399,7.583 8.501,7.998 L8.829,9.335 C8.898,9.614 9.087,9.844 9.341,9.960 C9.596,10.076 9.888,10.063 10.133,9.927 L11.161,9.353 L11.161,19.814 C11.161,20.329 11.565,20.747 12.063,20.747 L13.725,20.747 C14.223,20.747 14.627,20.329 14.627,19.814 L14.627,19.814 Z" class="cls-1"/>
</svg>
