<svg xmlns="http://www.w3.org/2000/svg" xmlns:xlink="http://www.w3.org/1999/xlink" preserveAspectRatio="xMidYMid" width="25" height="25" viewBox="0 0 25 25">
  <defs>
    
  </defs>
  <path d="M12.500,-0.000 C5.596,-0.000 -0.000,5.596 -0.000,12.500 C-0.000,19.403 5.596,25.000 12.500,25.000 C19.403,25.000 25.000,19.403 25.000,12.500 C25.000,5.596 19.403,-0.000 12.500,-0.000 ZM12.500,4.390 L19.897,9.003 L5.103,9.003 L12.500,4.390 ZM19.989,16.369 L19.988,16.369 C19.988,17.108 19.389,17.708 18.649,17.708 L6.351,17.708 C5.611,17.708 5.011,17.108 5.011,16.369 L5.011,9.296 C5.011,9.218 5.019,9.142 5.033,9.067 L12.100,13.474 C12.109,13.480 12.118,13.483 12.127,13.488 C12.136,13.494 12.146,13.499 12.155,13.503 C12.205,13.529 12.256,13.550 12.309,13.563 C12.314,13.565 12.320,13.566 12.325,13.567 C12.383,13.581 12.441,13.589 12.500,13.589 L12.500,13.589 C12.500,13.589 12.501,13.589 12.501,13.589 C12.559,13.589 12.618,13.581 12.675,13.567 C12.681,13.566 12.686,13.565 12.692,13.563 C12.744,13.550 12.795,13.529 12.846,13.503 C12.855,13.499 12.865,13.494 12.874,13.488 C12.883,13.483 12.892,13.480 12.901,13.474 L19.968,9.067 C19.981,9.142 19.989,9.218 19.989,9.296 L19.989,16.369 L19.989,16.369 Z" class="cls-1"/>
</svg>
