<svg id="Layer_1" data-name="Layer 1" xmlns="http://www.w3.org/2000/svg" viewBox="0 0 64 65"><defs/><title>07</title><rect class="cls-1" x="47" y="28" width="2" height="2"/><rect class="cls-1" x="51" y="28" width="2" height="2"/><rect class="cls-1" x="55" y="28" width="2" height="2"/><rect class="cls-1" x="9" y="52" width="5" height="2"/><rect class="cls-1" x="14" y="49" width="6" height="2"/><rect class="cls-1" x="53" y="41" width="5" height="2"/><rect class="cls-1" x="58" y="38" width="6" height="2"/><rect class="cls-1" x="52" y="3" width="5" height="2"/><rect class="cls-1" x="57" width="6" height="2"/><rect class="cls-1" x="30" y="2" width="3" height="2"/><rect class="cls-1" x="33" y="5" width="4" height="2"/><rect class="cls-1" x="26" y="957.94" width="2" height="3" transform="translate(-915.99 -227.1) rotate(-72.01)"/><rect class="cls-1" x="26.59" y="961.79" width="3" height="2" transform="translate(-789.31 -496.5) rotate(-53.98)"/><rect class="cls-1" x="30.61" y="961.29" width="2" height="3" transform="translate(-581.78 -713.59) rotate(-35.98)"/><rect class="cls-1" x="31.2" y="958.44" width="3" height="2" transform="translate(-316.58 -858.96) rotate(-17.97)"/><rect class="cls-1" x="6.72" y="40" width="2" height="3"/><rect class="cls-1" x="1" y="59" width="2" height="2"/><rect class="cls-1" x="5" y="59" width="2" height="2"/><rect class="cls-1" x="3" y="57" width="2" height="2"/><rect class="cls-1" x="3" y="61" width="2" height="2"/><rect class="cls-1" x="56" y="59" width="3" height="2"/><rect class="cls-1" x="61" y="59" width="3" height="2"/><rect class="cls-1" x="59" y="61" width="2" height="3"/><rect class="cls-1" x="59" y="56" width="2" height="3"/><rect class="cls-1" x="18" y="59" width="3" height="2"/><rect class="cls-1" x="25" y="59" width="3" height="2"/><rect class="cls-1" x="22" y="55" width="2" height="3"/><rect class="cls-1" x="22" y="62" width="2" height="3"/><path class="cls-2" d="M51.33,959.34c1.21,1.2,2.66,1.37,3.61.42,1.21-1.2.49-2.56,0-3.46s-.56-1.21-.32-1.46.67.07,1,.41a2.45,2.45,0,0,1,.67,1.17l.15.71,1.6-.54L58,956a4.2,4.2,0,0,0-1.09-2c-1.16-1.15-2.54-1.32-3.45-.41-1.18,1.18-.46,2.51,0,3.39s.58,1.24.3,1.51-.83,0-1.2-.4a2.29,2.29,0,0,1-.65-1.59v-.85l-1.7.43v.51A4,4,0,0,0,51.33,959.34Z" transform="translate(-22.13 -915.86)"/><polygon class="cls-2" points="39.51 45.37 40.69 44.19 36.89 40.39 31.51 45.77 35.39 49.65 36.57 48.47 33.88 45.78 34.85 44.81 37.17 47.13 38.36 45.94 36.04 43.62 36.9 42.76 39.51 45.37"/><path class="cls-2" d="M60,962.6a3.92,3.92,0,1,0,5.46.08A3.87,3.87,0,0,0,60,962.6ZM64.34,967a2.23,2.23,0,1,1-.06-3.09A2.18,2.18,0,0,1,64.34,967Z" transform="translate(-22.13 -915.86)"/><rect class="cls-2" x="62.53" y="943.24" width="2" height="26" transform="translate(-679.68 -590.87) rotate(-45)"/><rect class="cls-2" x="52.63" y="953.14" width="2" height="26" transform="translate(-689.58 -594.96) rotate(-45)"/><path class="cls-2" d="M47.49,924.86a13,13,0,1,0-21.34,13.38,19.32,19.32,0,0,0,4.15,6,17.63,17.63,0,0,0,8.49,4.93l1.17,9,22.16,22.16,15.55-15.56L55.51,942.56l-9-1.17a14.58,14.58,0,0,0-1.57-4,13.07,13.07,0,0,0,2.51-4.48H72.13v4h2v-4h2v7h2v-7h2v4h2v-6H46l-.19.75a11,11,0,0,1-17.91,5.49,7.87,7.87,0,0,1-.57-4.71,3.93,3.93,0,0,0,1.84.47,4,4,0,1,0-4-4,3.94,3.94,0,0,0,.58,2,6.52,6.52,0,0,0-.57,2.53,11,11,0,1,1,20.63-7.32l.19.75H84.13v13h2v-15Zm27.36,39.86L62.12,977.45,41.85,957.18l-1-7.8a7.27,7.27,0,0,0,1.5-.15v-.06a3,3,0,0,0,4.24,0h0a3,3,0,0,0,0-4.25,3.08,3.08,0,0,0-4.24,0,3,3,0,0,0-.88,2.12,2.4,2.4,0,0,0,0,.28,6.6,6.6,0,0,1-.9,0l-.43-3.29a1.2,1.2,0,0,1,.34-1,1.17,1.17,0,0,1,1-.33l13.11,1.71ZM43.44,947a1,1,0,0,1,.29-.7,1,1,0,0,1,1.42,0,1,1,0,0,1,.29.7,1,1,0,0,1-.29.71h0a1,1,0,0,1-1.42,0A1,1,0,0,1,43.44,947Zm-8.31-5.18a12.93,12.93,0,0,0,8.37-3.06,12.29,12.29,0,0,1,.92,2.32l-2.69-.36a3.18,3.18,0,0,0-3.57,3.57l.35,2.7a16.42,16.42,0,0,1-6.8-4.23,19.1,19.1,0,0,1-1.74-2A12.91,12.91,0,0,0,35.13,941.86Zm-6-11a2.06,2.06,0,0,1-.83-.18,4.16,4.16,0,0,1,2.62-.94A2,2,0,0,1,29.13,930.86Zm2-2h0Zm-2-2a2,2,0,0,1,1.67.9,6,6,0,0,0-3.65,1.3,1.36,1.36,0,0,1,0-.2A2,2,0,0,1,29.13,926.86Z" transform="translate(-22.13 -915.86)"/></svg>