<svg xmlns="http://www.w3.org/2000/svg" xmlns:xlink="http://www.w3.org/1999/xlink" width="512" height="15581" viewBox="0 0 512 15581"><svg viewBox="0 0 129 129" width="129" height="129" id="arrow-down" y="0"><path d="M121.3 34.6c-1.6-1.6-4.2-1.6-5.8 0l-51 51.1-51.1-51.1c-1.6-1.6-4.2-1.6-5.8 0-1.6 1.6-1.6 4.2 0 5.8l53.9 53.9c.8.8 1.8 1.2 2.9 1.2 1 0 2.1-.4 2.9-1.2l53.9-53.9c1.7-1.6 1.7-4.2.1-5.8z"></path></svg><svg viewBox="0 0 477.175 477.175" width="477.175" height="477.175" id="arrow-left" y="129"><path d="M145.188 238.575l215.5-215.5c5.3-5.3 5.3-13.8 0-19.1s-13.8-5.3-19.1 0l-225.1 225.1c-5.3 5.3-5.3 13.8 0 19.1l225.1 225c2.6 2.6 6.1 4 9.5 4s6.9-1.3 9.5-4c5.3-5.3 5.3-13.8 0-19.1l-215.4-215.5z"></path></svg><svg viewBox="0 0 492 492" width="492" height="492" id="arrow-left-fat" y="607"><path d="M464.344 207.418l.768.168H135.888l103.496-103.724c5.068-5.064 7.848-11.924 7.848-19.124 0-7.2-2.78-14.012-7.848-19.088L223.28 49.538c-5.064-5.064-11.812-7.864-19.008-7.864-7.2 0-13.952 2.78-19.016 7.844L7.844 226.914C2.76 231.998-.02 238.77 0 245.974c-.02 7.244 2.76 14.02 7.844 19.096l177.412 177.412c5.064 5.06 11.812 7.844 19.016 7.844 7.196 0 13.944-2.788 19.008-7.844l16.104-16.112c5.068-5.056 7.848-11.808 7.848-19.008 0-7.196-2.78-13.592-7.848-18.652L134.72 284.406h329.992c14.828 0 27.288-12.78 27.288-27.6v-22.788c0-14.82-12.828-26.6-27.656-26.6z"></path></svg><svg viewBox="0 0 477.175 477.175" width="477.175" height="477.175" id="arrow-right" y="1099"><path d="M360.731 229.075l-225.1-225.1c-5.3-5.3-13.8-5.3-19.1 0s-5.3 13.8 0 19.1l215.5 215.5-215.5 215.5c-5.3 5.3-5.3 13.8 0 19.1 2.6 2.6 6.1 4 9.5 4 3.4 0 6.9-1.3 9.5-4l225.1-225.1c5.3-5.2 5.3-13.8.1-19z"></path></svg><svg viewBox="0 0 492.004 492.004" width="492.004" height="492.004" id="arrow-right-fat" y="1577"><path d="M484.14 226.886L306.46 49.202c-5.072-5.072-11.832-7.856-19.04-7.856-7.216 0-13.972 2.788-19.044 7.856l-16.132 16.136c-5.068 5.064-7.86 11.828-7.86 19.04 0 7.208 2.792 14.2 7.86 19.264L355.9 207.526H26.58C11.732 207.526 0 219.15 0 234.002v22.812c0 14.852 11.732 27.648 26.58 27.648h330.496L252.248 388.926c-5.068 5.072-7.86 11.652-7.86 18.864 0 7.204 2.792 13.88 7.86 18.948l16.132 16.084c5.072 5.072 11.828 7.836 19.044 7.836 7.208 0 13.968-2.8 19.04-7.872l177.68-177.68c5.084-5.088 7.88-11.88 7.86-19.1.016-7.244-2.776-14.04-7.864-19.12z"></path></svg><svg width="64" height="64" viewBox="0 0 64 64" id="arrow-up" y="2070"><path d="M3.352 48.296l28.56-28.328 28.58 28.347c.397.394.917.59 1.436.59.52 0 1.04-.196 1.436-.59a2.003 2.003 0 0 0 0-2.849l-29.98-29.735c-.2-.2-.494-.375-.757-.475a2.052 2.052 0 0 0-2.166.456L.479 45.447a2.003 2.003 0 0 0 0 2.849 2.045 2.045 0 0 0 2.873 0z"></path></svg><svg viewBox="0 0 455.286 455.286" width="455.286" height="455.286" id="banknote" y="2134"><path d="M454.055 232.617a8.01 8.01 0 0 0-2.798-2.798h.48l-293.76-178.24a8 8 0 0 0-8 0l-145.52 77.6a8 8 0 0 0-.72 13.92l294.16 182.56a7.998 7.998 0 0 0 8.16.16l145.2-82.24a8 8 0 0 0 2.798-10.962zm-151.438 77.202l-278.4-173.04 129.36-69.2 277.92 168.88-128.88 73.36z"></path><path d="M454.217 271.579a8.028 8.028 0 0 0-10.96-2.96h.48l-141.04 80-290.32-180.24a8.056 8.056 0 0 0-11.12 2.48 8.056 8.056 0 0 0 2.48 11.12l294.16 182.56a7.998 7.998 0 0 0 8.16.16l145.2-82.16a8.028 8.028 0 0 0 2.96-10.96z"></path><path d="M452.511 310.175a8 8 0 0 0-8.774-2.596l-141.44 80-289.92-180.32a8.056 8.056 0 0 0-11.12 2.48 8.056 8.056 0 0 0 2.48 11.12l294.16 182.72a7.998 7.998 0 0 0 8.16.16l145.2-82.32a8 8 0 0 0 1.254-11.244zM273.689 145.693a7.999 7.999 0 0 0-11.872-.673l-8.56 8a36.38 36.38 0 0 0-8.96-5.92 25.273 25.273 0 0 0-13.68-2.24 20.48 20.48 0 0 0-11.12 5.04 17.44 17.44 0 0 0-6 10.64 28.318 28.318 0 0 0 1.36 12.96 93.326 93.326 0 0 0 4.16 10.08l-16 14.32a14.83 14.83 0 0 1-.48-1.68 22.396 22.396 0 0 1 1.2-11.44 17.274 17.274 0 0 0 1.12-5.36 7.042 7.042 0 0 0-2.08-4.72 7.996 7.996 0 0 0-5.84-2.96 7.998 7.998 0 0 0-5.92 2.08 16.958 16.958 0 0 0-5.04 9.52 27.445 27.445 0 0 0 1.44 14.24 40.951 40.951 0 0 0 4.88 9.6l-9.2 8a8 8 0 0 0 5.36 14l-.16.24a7.997 7.997 0 0 0 5.36-2l9.04-8a47.266 47.266 0 0 0 10 7.2 24 24 0 0 0 28.48-3.6 16.878 16.878 0 0 0 5.36-8.96 25.851 25.851 0 0 0-.4-11.84 67.203 67.203 0 0 0-6.24-15.28v-.48l13.28-11.92a18.63 18.63 0 0 1 0 6.56 35.357 35.357 0 0 0-.64 7.36 8 8 0 0 0 2.24 5.2 9.358 9.358 0 0 0 6.16 3.52 8 8 0 0 0 5.84-2.08 11.998 11.998 0 0 0 3.44-6 21.985 21.985 0 0 0 0-8.88 35.847 35.847 0 0 0-3.76-10.8 48.971 48.971 0 0 0-2.72-4.48l8.72-8a8 8 0 0 0 1.232-11.247zm-49.152 65.086a7.999 7.999 0 0 1-7.28 1.2 14.331 14.331 0 0 1-4.48-2l13.52-11.76a28.083 28.083 0 0 1 1.36 4.56 8.48 8.48 0 0 1-3.12 8zm7.92-39.2a17.756 17.756 0 0 1-.72-3.76 6.32 6.32 0 0 1 2.08-5.84 6.879 6.879 0 0 1 6.8-1.2 13.9 13.9 0 0 1 2.32 1.04l-10.48 9.76z"></path></svg><svg viewBox="0 0 475.2 475.2" width="475.2" height="475.2" id="cancel" y="2590"><path d="M405.6 69.6C360.7 24.7 301.1 0 237.6 0s-123.1 24.7-168 69.6S0 174.1 0 237.6s24.7 123.1 69.6 168 104.5 69.6 168 69.6 123.1-24.7 168-69.6 69.6-104.5 69.6-168-24.7-123.1-69.6-168zm-19.1 316.9c-39.8 39.8-92.7 61.7-148.9 61.7s-109.1-21.9-148.9-61.7c-82.1-82.1-82.1-215.7 0-297.8C128.5 48.9 181.4 27 237.6 27s109.1 21.9 148.9 61.7c82.1 82.1 82.1 215.7 0 297.8z"></path><path d="M342.3 132.9c-5.3-5.3-13.8-5.3-19.1 0l-85.6 85.6-85.6-85.6c-5.3-5.3-13.8-5.3-19.1 0-5.3 5.3-5.3 13.8 0 19.1l85.6 85.6-85.6 85.6c-5.3 5.3-5.3 13.8 0 19.1 2.6 2.6 6.1 4 9.5 4s6.9-1.3 9.5-4l85.6-85.6 85.6 85.6c2.6 2.6 6.1 4 9.5 4 3.5 0 6.9-1.3 9.5-4 5.3-5.3 5.3-13.8 0-19.1l-85.4-85.6 85.6-85.6c5.3-5.3 5.3-13.8 0-19.1z"></path></svg><svg width="33" height="23" viewBox="0 0 33 23" id="card" y="3066"><defs><path id="a" d="M468 1286.6v2.3h-30v-2.3c0-.85.67-1.54 1.5-1.54h27c.83 0 1.5.69 1.5 1.54zm-30 5.38h30v11.54c0 .85-.67 1.54-1.5 1.54h-27c-.83 0-1.5-.69-1.5-1.54zm10.12 8.46c0-.84-.67-1.53-1.5-1.53-.82 0-1.5.69-1.5 1.53 0-.84-.67-1.53-1.5-1.53-.82 0-1.5.69-1.5 1.53 0 .85.68 1.54 1.5 1.54.83 0 1.5-.69 1.5-1.54 0 .85.68 1.54 1.5 1.54.83 0 1.5-.69 1.5-1.54z"></path></defs><use xlink:href="#a" transform="translate(-436 -1284)"></use></svg><svg viewBox="0 0 512 512" width="512" height="512" id="cart" y="3089"><path d="M485.7 198.5c-10.7-13.4-25.3-20.8-41.1-20.8h-36.1C405.1 85.1 338 11 256 11S106.9 85.1 103.5 177.7H67.4c-15.8 0-30.4 7.4-41.1 20.8-13.5 16.8-18.4 40.2-13.3 62.7L56.3 452c6.5 28.8 28.9 49 54.4 49h290.5c25.5 0 47.9-20.1 54.4-49L499 261.2c5.1-22.5.2-45.9-13.3-62.7zM256 51.8c59.6 0 108.4 55.8 111.6 125.9H144.4c3.2-70 52-125.9 111.6-125.9zm203.2 200.3L415.9 443c-2.2 9.8-8.5 17.2-14.6 17.2H110.7c-6.1 0-12.4-7.4-14.6-17.2L52.8 252.1c-2.3-10.1-3.7-33.6 14.6-33.6h377.2c19.7 0 16.9 23.5 14.6 33.6z"></path><path d="M154.7 259.1c-11.3 0-20.4 9.1-20.4 20.4V407c0 11.3 9.1 20.4 20.4 20.4 11.3 0 20.4-9.1 20.4-20.4V279.5c.1-11.2-9.1-20.4-20.4-20.4zm98.9 0c-11.3 0-20.4 9.1-20.4 20.4V407c0 11.3 9.1 20.4 20.4 20.4 11.3 0 20.4-9.1 20.4-20.4V279.5c0-11.2-9.2-20.4-20.4-20.4zm98.8 0c-11.3 0-20.4 9.1-20.4 20.4V407c0 11.3 9.1 20.4 20.4 20.4 11.3 0 20.4-9.1 20.4-20.4V279.5c0-11.2-9.1-20.4-20.4-20.4z"></path></svg><svg viewBox="0 0 26 26" width="26" height="26" id="checked" y="3601"><path d="M.3 14c-.2-.2-.3-.5-.3-.7s.1-.5.3-.7l1.4-1.4c.4-.4 1-.4 1.4 0l.1.1 5.5 5.9c.2.2.5.2.7 0L22.8 3.3h.1c.4-.4 1-.4 1.4 0l1.4 1.4c.4.4.4 1 0 1.4l-16 16.6c-.2.2-.4.3-.7.3-.3 0-.5-.1-.7-.3L.5 14.3.3 14z"></path></svg><svg viewBox="0 0 372.96 372.96" width="372.96" height="372.96" id="clock" y="3627"><path d="M186.48 0C83.49 0 0 83.49 0 186.48s83.49 186.48 186.48 186.48 186.48-83.49 186.48-186.48C372.828 83.545 289.415.132 186.48 0zm8 356.56v-32.8a8 8 0 0 0-16 0v32.8C90.759 352.372 20.588 282.201 16.4 194.48h32.8a8 8 0 0 0 0-16H16.4C20.588 90.759 90.759 20.588 178.48 16.4v32.8a8 8 0 0 0 16 0V16.4c87.721 4.188 157.892 74.359 162.08 162.08h-32.8a8 8 0 0 0 0 16h32.88c-4.191 87.75-74.408 157.932-162.16 162.08z"></path><path d="M270.88 260.88l-76.4-77.68v-80.72a8 8 0 0 0-16 0v84a8 8 0 0 0 2.32 5.6l78.64 80a8.005 8.005 0 1 0 11.44-11.2z"></path></svg><svg width="54.422" height="54.422" viewBox="0 0 139 139" id="close" y="4000"><path class="fil0" d="M7 0l63 63 62-63 7 7-63 63 63 62-7 7-62-63-63 63-7-7 63-62L0 7z"></path></svg><svg viewBox="0 0 44 44" width="44" height="44" id="contact" y="4055"><path d="M43 6H1a1 1 0 0 0-1 1v30a1 1 0 0 0 1 1h42a1 1 0 0 0 1-1V7a1 1 0 0 0-1-1zm-1 27.581L29.612 21.194l-1.414 1.414L41.59 36H2.41l13.392-13.392-1.414-1.414L2 33.581V8h40v25.581z"></path><path d="M39.979 8L22 25.979 4.021 8H2v.807L21.293 28.1a.999.999 0 0 0 1.414 0L42 8.807V8h-2.021z"></path></svg><svg viewBox="0 0 431.76 431.76" width="431.76" height="431.76" id="creative" y="4099"><path d="M215.88 85.12C153.556 85.164 103.044 135.676 103 198a128.48 128.48 0 0 0 53.36 102.48V382c.027.932.216 1.853.56 2.72v.64c.138.33.299.651.48.96l28.16 41.92a7.999 7.999 0 0 0 6.64 3.52h46.56a7.999 7.999 0 0 0 6.64-3.52l28.16-41.92c.181-.309.342-.63.48-.96v-.64a8.005 8.005 0 0 0 .56-2.72v-81.52A128.477 128.477 0 0 0 327.96 198c-.042-62.013-50.069-112.397-112.08-112.88zM234.92 416h-38.08l-17.44-25.92h72.88L234.92 416zm-62.48-41.92v-21.2h86.88l.08 21.2h-86.96zM263 289.52v.24a7.998 7.998 0 0 0-3.6 6.72v40.64h-86.96V296a7.998 7.998 0 0 0-3.6-6.72 112.001 112.001 0 0 1-49.76-91.52c1.537-53.483 46.14-95.594 99.623-94.057 51.323 1.475 92.582 42.734 94.057 94.057A112 112 0 0 1 263 289.52z"></path><path d="M219.08 121.36a8 8 0 0 0 0 16c33.251.044 60.196 26.989 60.24 60.24a8 8 0 0 0 16 0c-.044-42.088-34.152-76.196-76.24-76.24zM81.48 189.6h-57.6a8 8 0 0 0 0 16h57.6a8 8 0 0 0 0-16zm326.4 0h-57.6a8 8 0 0 0 0 16h57.6a8 8 0 0 0 0-16zm-280.567 97.52a8 8 0 0 0-12.153 0v-.16L74.28 328a8 8 0 1 0 11.28 11.28l40.88-40.88a8 8 0 0 0 .873-11.28zM356.607 56a8 8 0 0 0-10.407 0l-40.88 40.88a8 8 0 0 0 5.68 13.68l-.08-.08a8.004 8.004 0 0 0 5.68-2.32l40.88-40.88a8 8 0 0 0-.873-11.28zm2.46 273.609A7.96 7.96 0 0 0 357.48 328l-40.88-41.04a8 8 0 1 0-11.28 11.28l40.88 40.88a8 8 0 0 0 12.867-9.511zM126.44 96.88L85.56 56a8 8 0 0 0-11.28 11.28l40.88 40.88a8 8 0 0 0 11.28-11.28zM215.88 0a8 8 0 0 0-8 8v57.84a8 8 0 0 0 8 8.24 8 8 0 0 0 8-8V8a8 8 0 0 0-8-8z"></path></svg><svg height="511" viewBox="1 -84 511.999 511" width="511" id="diamond" y="4531"><path d="M461.316 35.691a7.498 7.498 0 0 0 .145 10.606 7.494 7.494 0 0 0 10.605-.145l24.032-24.687a7.502 7.502 0 0 0-.145-10.606c-2.969-2.886-7.719-2.824-10.605.145zm34.637 164.614c2.969-2.887 3.031-7.637.145-10.606l-24.032-24.687a7.501 7.501 0 0 0-10.75 10.465l24.032 24.687a7.501 7.501 0 0 0 10.605.14zm-22.984-94.723a7.5 7.5 0 0 0 7.5 7.504H504.5a7.503 7.503 0 0 0 0-15.004h-24.031a7.5 7.5 0 0 0-7.5 7.5zM39.95 46.156c2.886 2.969 7.636 3.032 10.605.14s3.03-7.636.14-10.605L26.656 11.004a7.498 7.498 0 0 0-10.605-.14 7.502 7.502 0 0 0-.145 10.605zm0 118.856l-24.044 24.687c-2.886 2.969-2.824 7.719.145 10.606a7.498 7.498 0 0 0 10.605-.14l24.04-24.688c2.89-2.965 2.827-7.715-.141-10.606s-7.715-2.828-10.606.14zM7.5 113.086h24.043a7.5 7.5 0 1 0 0-15H7.5a7.497 7.497 0 0 0-7.5 7.5 7.5 7.5 0 0 0 7.5 7.5zm49.695-2.77l183.258 225.442A19.962 19.962 0 0 0 256 343.152a19.96 19.96 0 0 0 15.547-7.398l.004-.004 99.812-122.79a7.5 7.5 0 0 0-1.09-10.55 7.498 7.498 0 0 0-10.55 1.086l-79.668 98.008 42.39-188.422H433.22l-51.41 63.25a7.5 7.5 0 1 0 11.636 9.461l61.313-75.422c2.566-3.172 2.07-7.52-.442-10.062L363.582 8.55C358.258 3.168 351.082.5 344.301.5h-19.184c-4.144 0-7.504 3.36-7.504 7.5s3.36 7.5 7.504 7.5h16.164l-26.394 72.445L272.883 15.5h17.23a7.5 7.5 0 1 0 0-15H167.7c-7.336 0-14.344 3.055-19.285 8.05l-90.73 91.759c-2.547 2.578-2.973 6.945-.489 10.007zm99.68-88.984l27.965 76.75H80.98zm32.68 91.754l42.39 188.422L78.777 113.086zm69.332 214.164c-1.711 1.234-4.25 1.14-5.774 0l-48.18-214.164H307.07zm96.238-305.918l75.895 76.754H327.16zm-146.55 76.75L256 16.285l47.426 81.797zm-11.462-10.137L170.72 15.5h68.394zm0 0"></path></svg><svg viewBox="0 0 471.2 471.2" width="471.2" height="471.2" id="download" y="5042"><path d="M457.7 230.15c-7.5 0-13.5 6-13.5 13.5v122.8c0 33.4-27.2 60.5-60.5 60.5H87.5c-33.4 0-60.5-27.2-60.5-60.5v-124.8c0-7.5-6-13.5-13.5-13.5s-13.5 6-13.5 13.5v124.8c0 48.3 39.3 87.5 87.5 87.5h296.2c48.3 0 87.5-39.3 87.5-87.5v-122.8c0-7.4-6-13.5-13.5-13.5z"></path><path d="M226.1 346.75c2.6 2.6 6.1 4 9.5 4s6.9-1.3 9.5-4l85.8-85.8c5.3-5.3 5.3-13.8 0-19.1-5.3-5.3-13.8-5.3-19.1 0l-62.7 62.8V30.75c0-7.5-6-13.5-13.5-13.5s-13.5 6-13.5 13.5v273.9l-62.8-62.8c-5.3-5.3-13.8-5.3-19.1 0-5.3 5.3-5.3 13.8 0 19.1l85.9 85.8z"></path></svg><svg viewBox="0 0 59 59" width="59" height="59" id="garbage" y="5514"><path d="M29.5 51a1 1 0 0 0 1-1V17a1 1 0 1 0-2 0v33a1 1 0 0 0 1 1zm-10 0a1 1 0 0 0 1-1V17a1 1 0 1 0-2 0v33a1 1 0 0 0 1 1zm20 0a1 1 0 0 0 1-1V17a1 1 0 1 0-2 0v33a1 1 0 0 0 1 1z"></path><path d="M52.5 6H38.456c-.11-1.25-.495-3.358-1.813-4.711C35.809.434 34.751 0 33.499 0H23.5c-1.252 0-2.31.434-3.144 1.289C19.038 2.642 18.653 4.75 18.543 6H6.5a1 1 0 1 0 0 2h2.041l1.915 46.021C10.493 55.743 11.565 59 15.364 59h28.272c3.799 0 4.871-3.257 4.907-4.958L50.459 8H52.5a1 1 0 1 0 0-2zM21.792 2.681C22.24 2.223 22.799 2 23.5 2h9.999c.701 0 1.26.223 1.708.681.805.823 1.128 2.271 1.24 3.319H20.553c.112-1.048.435-2.496 1.239-3.319zm24.752 51.298C46.538 54.288 46.4 57 43.636 57H15.364c-2.734 0-2.898-2.717-2.909-3.042L10.542 8h37.915l-1.913 45.979z"></path></svg><svg viewBox="0 0 439.832 439.832" width="439.832" height="439.832" id="gears" y="5573"><path d="M225.36 259.98h-22.48a89.67 89.67 0 0 0-5.2-12.48l16-16a8 8 0 0 0 0-11.28l-28.8-28.8a8 8 0 0 0-11.28 0l-16 16a88.767 88.767 0 0 0-12.24-4.96v-22.48a8 8 0 0 0-8-8H96.4a8 8 0 0 0-8 8v23.36a89.603 89.603 0 0 0-11.76 4.96L60 191.741a8 8 0 0 0-11.28 0L20 220.46a8 8 0 0 0 0 11.28l16.8 16.8a89.68 89.68 0 0 0-4.8 11.44H8a8 8 0 0 0-8 8v40.72a8 8 0 0 0 8 8h24a89.286 89.286 0 0 0 4.72 11.6L20 345.26a8 8 0 0 0 0 11.28l28.8 28.8a8 8 0 0 0 11.28 0l16.56-16.56a90.127 90.127 0 0 0 11.76 4.96v23.36a8 8 0 0 0 8 8h40.72a8 8 0 0 0 8-8v-22.88a89.195 89.195 0 0 0 12.24-4.96l16 16a8 8 0 0 0 11.28 0l28.8-28.8a8 8 0 0 0 0-11.28l-16-16a88.849 88.849 0 0 0 5.2-12.48h22.48a8 8 0 0 0 8-8v-40.72a8 8 0 0 0-7.76-8zm-8 40.72h-20.48a8 8 0 0 0-8 6 73.69 73.69 0 0 1-8 19.68 8 8 0 0 0 1.2 9.76l14.48 14.48-17.52 17.44-14.64-14.64a8 8 0 0 0-9.68-1.28 73.827 73.827 0 0 1-19.6 8 8 8 0 0 0-6.08 8v20.96H104.4v-21.28a8 8 0 0 0-6-8 73.27 73.27 0 0 1-19.12-8 8 8 0 0 0-9.76 1.2l-15.2 15.2-17.44-17.28L52 335.58a8 8 0 0 0 1.28-9.68 73.717 73.717 0 0 1-8-18.96 8 8 0 0 0-8-6H16.16v-24.96H38a8 8 0 0 0 8-6 74.092 74.092 0 0 1 8-18.96 8 8 0 0 0-2-9.52l-15.12-15.36L54.4 208.7l15.2 15.2a8 8 0 0 0 9.76 1.2 73.921 73.921 0 0 1 19.12-8 8 8 0 0 0 5.92-8v-21.12h24.72v20.96a8 8 0 0 0 6.08 8 73.76 73.76 0 0 1 19.6 8 8 8 0 0 0 9.68-1.28l14.64-14.72 17.52 17.44-14.56 14.56a8 8 0 0 0-1.2 9.76 73.388 73.388 0 0 1 8 19.68 8 8 0 0 0 8 6h20.48v24.32z"></path><path d="M116.8 243.981c-24.742 0-44.8 20.058-44.8 44.8s20.058 44.8 44.8 44.8c24.742 0 44.8-20.058 44.8-44.8-.044-24.725-20.076-44.756-44.8-44.8zm0 73.359v.24c-15.906 0-28.8-12.894-28.8-28.8s12.894-28.8 28.8-28.8 28.8 12.894 28.8 28.8c-.132 15.812-12.987 28.561-28.8 28.56zm322.883-168.981a7.94 7.94 0 0 0-.083-.378l-8.64-39.44a8 8 0 0 0-9.52-6.08l-21.92 4.8a89.066 89.066 0 0 0-8-11.04L404 77.181a8 8 0 0 0-2.4-11.04l-34.4-22.16a8 8 0 0 0-11.04 2.4l-12.32 19.2a88.485 88.485 0 0 0-13.04-2.24l-4.88-22.4a7.999 7.999 0 0 0-9.92-5.92l-40 8.72a8 8 0 0 0-6.08 9.52l5.6 22.72a90.459 90.459 0 0 0-10.48 7.36L245.28 70.7a8 8 0 0 0-11.04 2.4L212 107.421a8 8 0 0 0 2.4 11.04l20 12.8a89.587 89.587 0 0 0-2.16 12.32l-23.28 5.12a8 8 0 0 0-6.08 9.52l8.72 40a8 8 0 0 0 9.52 6.08l23.28-5.04a90.392 90.392 0 0 0 7.6 10.08l-12.8 20a8 8 0 0 0 2.4 11.04l34.24 22a8 8 0 0 0 11.04-2.4l12.64-19.76a89.09 89.09 0 0 0 12.56 2.32l4.96 22.8a8 8 0 0 0 8 6.32h1.68l40-8.64a8 8 0 0 0 5.28-9.68l-4.88-22.4a90.855 90.855 0 0 0 10.88-7.44l19.44 12.48a8 8 0 0 0 11.04-2.4l22-34.32a8 8 0 0 0-2.48-11.28l-18.96-12.16a89.035 89.035 0 0 0 2.4-13.28l21.92-4.8a8 8 0 0 0 6.323-9.382zm-37.363.182a8 8 0 0 0-6.32 7.44 73.418 73.418 0 0 1-3.84 21.04 8 8 0 0 0 3.28 9.28l17.28 11.04-13.36 20.8-17.44-11.2a8 8 0 0 0-9.76.88 73.692 73.692 0 0 1-17.44 11.92 8 8 0 0 0-4.32 8.88l4.48 20.48-24 5.28-4.56-20.8a8 8 0 0 0-7.44-6.32 73.392 73.392 0 0 1-20.4-3.84 7.98 7.98 0 0 0-2.56-.4 8.002 8.002 0 0 0-6.72 3.68l-11.6 18.08-20.8-13.36 11.2-18.4a8 8 0 0 0-.88-9.76 73.91 73.91 0 0 1-11.68-16.88 8 8 0 0 0-8.88-4.24l-21.28 4.64-5.28-24 21.28-4.64a8 8 0 0 0 6.32-7.52 74.211 74.211 0 0 1 4.4-20.32 8 8 0 0 0-3.28-9.2l-18.24-11.68 13.36-20.8 17.6 11.36a8 8 0 0 0 9.84-.88 73.674 73.674 0 0 1 16.96-12 7.999 7.999 0 0 0 4.16-8.8l-4.56-20.8 24-5.28 4.48 20.48a8 8 0 0 0 8 6.32 73.126 73.126 0 0 1 20.8 3.6 8 8 0 0 0 9.2-3.28l11.2-17.44 20.8 13.36-11.12 17.28a8 8 0 0 0 .96 9.84 73.101 73.101 0 0 1 11.84 17.52 8 8 0 0 0 8.88 4.24l20-4.32 5.28 24-19.84 4.72z"></path><path d="M365.2 143.741c-4.422-20.62-22.671-35.333-43.76-35.28-24.742-.009-44.807 20.041-44.817 44.783s20.041 44.807 44.783 44.817c24.742.009 44.807-20.041 44.817-44.783a44.833 44.833 0 0 0-1.023-9.537zm-37.76 37.68h.08c-15.505 3.142-30.702-6.599-34.32-22-3.37-15.547 6.466-30.891 22-34.32 2.025-.43 4.09-.644 6.16-.64 15.906-.023 28.819 12.852 28.842 28.758.02 13.594-9.469 25.351-22.762 28.202z"></path></svg><svg viewBox="0 0 471.701 471.701" width="471.701" height="471.701" id="heart" y="6013"><path d="M433.601 67.001c-24.7-24.7-57.4-38.2-92.3-38.2s-67.7 13.6-92.4 38.3l-12.9 12.9-13.1-13.1c-24.7-24.7-57.6-38.4-92.5-38.4-34.8 0-67.6 13.6-92.2 38.2-24.7 24.7-38.3 57.5-38.2 92.4 0 34.9 13.7 67.6 38.4 92.3l187.8 187.8c2.6 2.6 6.1 4 9.5 4 3.4 0 6.9-1.3 9.5-3.9l188.2-187.5c24.7-24.7 38.3-57.5 38.3-92.4.1-34.9-13.4-67.7-38.1-92.4zm-19.2 165.7l-178.7 178-178.3-178.3c-19.6-19.6-30.4-45.6-30.4-73.3s10.7-53.7 30.3-73.2c19.5-19.5 45.5-30.3 73.1-30.3 27.7 0 53.8 10.8 73.4 30.4l22.6 22.6c5.3 5.3 13.8 5.3 19.1 0l22.4-22.4c19.6-19.6 45.7-30.4 73.3-30.4 27.6 0 53.6 10.8 73.2 30.3 19.6 19.6 30.3 45.6 30.3 73.3.1 27.7-10.7 53.7-30.3 73.3z"></path></svg><svg viewBox="0 0 486.196 486.196" width="486.196" height="486.196" id="house" y="6485"><path d="M481.708 220.456l-228.8-204.6c-.4-.4-.8-.7-1.3-1-5-4.8-13-5-18.3-.3l-228.8 204.6c-5.6 5-6 13.5-1.1 19.1 2.7 3 6.4 4.5 10.1 4.5 3.2 0 6.4-1.1 9-3.4l41.2-36.9v238.6c0 18.7 15.2 34 34 34h72.2c17.6 0 31.9-14.3 31.9-31.9v-121.3c0-2.7 2.2-4.9 4.9-4.9h72.9c2.7 0 4.9 2.2 4.9 4.9v121.3c0 17.6 14.3 31.9 31.9 31.9h72.2c19 0 34-18.7 34-42.6v-228.7l41.2 36.9c2.6 2.3 5.8 3.4 9 3.4 3.7 0 7.4-1.5 10.1-4.5 4.8-5.6 4.3-14.1-1.2-19.1zm-86.2 66.7v145.1c0 9.7-4.8 15.6-7 15.6h-72.2c-2.7 0-4.9-2.2-4.9-4.9v-121.1c0-17.6-14.3-31.9-31.9-31.9h-72.9c-17.6 0-31.9 14.3-31.9 31.9v121.3c0 2.7-2.2 4.9-4.9 4.9h-72.2c-3.8 0-7-3.1-7-7v-262.8l151.8-135.6 153.1 136.9v107.6z"></path></svg><svg viewBox="0 0 330 330" width="330" height="330" id="info" y="6972"><path d="M165 0C74.019 0 0 74.02 0 165.001 0 255.982 74.019 330 165 330s165-74.018 165-164.999S255.981 0 165 0zm0 300c-74.44 0-135-60.56-135-134.999S90.56 30 165 30s135 60.562 135 135.001C300 239.44 239.439 300 165 300z"></path><path d="M164.998 70c-11.026 0-19.996 8.976-19.996 20.009 0 11.023 8.97 19.991 19.996 19.991 11.026 0 19.996-8.968 19.996-19.991 0-11.033-8.97-20.009-19.996-20.009zm.002 70c-8.284 0-15 6.716-15 15v90c0 8.284 6.716 15 15 15 8.284 0 15-6.716 15-15v-90c0-8.284-6.716-15-15-15z"></path></svg><svg viewBox="0 0 490.4 490.4" width="490.4" height="490.4" id="interface" y="7302"><path d="M245.2 490.4c135.2 0 245.2-110 245.2-245.2S380.4 0 245.2 0 0 110 0 245.2s110 245.2 245.2 245.2zm0-465.9c121.7 0 220.7 99 220.7 220.7s-99 220.7-220.7 220.7-220.7-99-220.7-220.7 99-220.7 220.7-220.7z"></path><path d="M206.5 349.6c2.3 2.3 5.4 3.6 8.7 3.6 3.2 0 6.3-1.3 8.6-3.6l147.5-146.7c2.3-2.3 3.6-5.4 3.6-8.7 0-3.2-1.3-6.4-3.6-8.7l-44.6-44.8c-4.8-4.8-12.5-4.8-17.3-.1l-94 93.5-34.2-34.4c-2.3-2.3-5.4-3.6-8.7-3.6-3.2 0-6.3 1.3-8.6 3.6l-44.8 44.6c-2.3 2.3-3.6 5.4-3.6 8.7 0 3.2 1.3 6.4 3.6 8.7l87.4 87.9zm-34-123.9l34.3 34.5c4.8 4.8 12.5 4.8 17.3.1l94-93.5 27.3 27.4-130.1 129.4-70.2-70.6 27.4-27.3z"></path></svg><svg viewBox="0 0 490.2 490.2" width="490.2" height="490.2" id="like" y="7793"><path d="M490.1 234.464c0-37.6-30.6-68.3-68.3-68.3H316.2v-76.1c0-32.2-9.4-55.4-28-69-29.4-21.6-69.8-9.3-71.5-8.7-5.1 1.6-8.6 6.3-8.6 11.7v85.5c0 67.3-78.1 90.2-81.4 91.2-1 .3-1.9.6-2.7 1.1-5.8-11.6-17.8-19.6-31.6-19.6H35.2c-19.4 0-35.2 15.8-35.2 35.2v207.9c0 19.4 15.8 35.2 35.2 35.2h33.1c6.8 0 12.3-5.5 12.3-12.3s-5.6-12.2-12.3-12.2H35.2c-5.9 0-10.7-4.8-10.7-10.7v-207.9c0-5.9 4.8-10.7 10.7-10.7h57.3c5.9 0 10.7 4.8 10.7 10.7v196.1c0 37.6 30.6 68.3 68.3 68.3h209.2c46.4 0 75.9-24.3 81.1-66.3l28.2-177c.1-.6.2-1.3.2-1.9v-2.2h-.1zm-24.5 1.1l-28.1 176.5c-3.7 30-22.8 45.3-56.8 45.3H171.5c-24.1 0-43.8-19.6-43.8-43.8v-189.1c1.8.4 3.7.3 5.6-.2 4.1-1.1 99.3-28.7 99.3-114.8v-75.6c10.4-1.6 28.2-2.5 41.1 6.9 11.9 8.8 18 25.3 18 49.3v88.4c0 6.8 5.5 12.3 12.3 12.3h117.9c24.1 0 43.8 19.6 43.8 43.8v1h-.1z"></path></svg><svg width="19" height="33" viewBox="0 0 19 33" id="login" y="8284"><path class="cls-1" d="M16.71 28.7h-5.16v-1.641h3.3a2.151 2.151 0 1 0 0-4.293h-3.29v-5.7a9.374 9.374 0 0 0 4.25-2.272 8.273 8.273 0 0 0 .01-12.255 9.721 9.721 0 0 0-13.1 0 8.272 8.272 0 0 0-.01 12.255 9.4 9.4 0 0 0 4.26 2.27L6.96 30.85a2.064 2.064 0 0 0 .68 1.518 2.111 2.111 0 0 0 .33.262 2.422 2.422 0 0 0 1.29.366h7.45a2.151 2.151 0 1 0 0-4.296zM5.96 11.76a4.174 4.174 0 0 1 0-6.184 4.905 4.905 0 0 1 6.61 0 4.174 4.174 0 0 1 0 6.184 4.9 4.9 0 0 1-6.61 0z"></path></svg><svg viewBox="0 0 451 451" width="451" height="451" id="magnifying-glass" y="8317"><path d="M447.05 428l-109.6-109.6c29.4-33.8 47.2-77.9 47.2-126.1C384.65 86.2 298.35 0 192.35 0 86.25 0 .05 86.3.05 192.3s86.3 192.3 192.3 192.3c48.2 0 92.3-17.8 126.1-47.2L428.05 447c2.6 2.6 6.1 4 9.5 4s6.9-1.3 9.5-4c5.2-5.2 5.2-13.8 0-19zM26.95 192.3c0-91.2 74.2-165.3 165.3-165.3 91.2 0 165.3 74.2 165.3 165.3s-74.1 165.4-165.3 165.4c-91.1 0-165.3-74.2-165.3-165.4z"></path></svg><svg viewBox="0 0 483.3 483.3" width="483.3" height="483.3" id="mail" y="8768"><path d="M424.3 57.75H59.1c-32.6 0-59.1 26.5-59.1 59.1v249.6c0 32.6 26.5 59.1 59.1 59.1h365.1c32.6 0 59.1-26.5 59.1-59.1v-249.5c.1-32.6-26.4-59.2-59-59.2zm32.1 308.7c0 17.7-14.4 32.1-32.1 32.1H59.1c-17.7 0-32.1-14.4-32.1-32.1v-249.5c0-17.7 14.4-32.1 32.1-32.1h365.1c17.7 0 32.1 14.4 32.1 32.1v249.5h.1z"></path><path d="M304.8 238.55l118.2-106c5.5-5 6-13.5 1-19.1-5-5.5-13.5-6-19.1-1l-163 146.3-31.8-28.4c-.1-.1-.2-.2-.2-.3-.7-.7-1.4-1.3-2.2-1.9L78.3 112.35c-5.6-5-14.1-4.5-19.1 1.1-5 5.6-4.5 14.1 1.1 19.1l119.6 106.9-119.1 111.5c-5.4 5.1-5.7 13.6-.6 19.1 2.7 2.8 6.3 4.3 9.9 4.3 3.3 0 6.6-1.2 9.2-3.6l120.9-113.1 32.8 29.3c2.6 2.3 5.8 3.4 9 3.4s6.5-1.2 9-3.5l33.7-30.2 120.2 114.2c2.6 2.5 6 3.7 9.3 3.7 3.6 0 7.1-1.4 9.8-4.2 5.1-5.4 4.9-14-.5-19.1l-118.7-112.7z"></path></svg><svg width="459" height="459" viewBox="0 0 459 459" id="menu" y="9252"><path d="M0 382.5h459v-51H0v51zM0 255h459v-51H0v51zM0 76.5v51h459v-51H0z"></path></svg><svg viewBox="0 0 424 424" width="424" height="424" id="network" y="9711"><path d="M212 126.56c-46.88 0-76 24-76 62.88a8 8 0 0 0 8 8h136a8 8 0 0 0 8-8c0-38.8-29.12-62.88-76-62.88zm-59.44 54.88c5.28-35.92 46.32-38.88 59.44-38.88s54.16 2.96 59.44 38.88H152.56zM212 42.56c-20.987 0-38 17.013-38 38 .044 20.969 17.031 37.956 38 38 20.987 0 38-17.013 38-38s-17.013-38-38-38zm0 60c-12.15 0-22-9.85-22-22s9.85-22 22-22 22 9.85 22 22-9.85 22-22 22zm-136 208c-46.88 0-76 24-76 62.88a8 8 0 0 0 8 8h136a8 8 0 0 0 8-8c0-38.8-29.12-62.88-76-62.88zm-59.44 54.88c5.28-35.92 46.24-38.88 59.44-38.88s54.16 2.96 59.44 38.88H16.56zM76 226.56c-20.987 0-38 17.013-38 38 .044 20.969 17.031 37.956 38 38 20.987 0 38-17.013 38-38s-17.013-38-38-38zm0 60c-12.15 0-22-9.85-22-22s9.85-22 22-22 22 9.85 22 22-9.85 22-22 22zm272 24c-46.88 0-76 24-76 62.88a8 8 0 0 0 8 8h136a8 8 0 0 0 8-8c0-38.8-29.12-62.88-76-62.88zm-59.44 54.88c5.28-35.92 46.24-38.88 59.44-38.88s54.16 2.96 59.44 38.88H288.56zM348 226.56c-20.987 0-38 17.013-38 38 .044 20.969 17.031 37.956 38 38 20.987 0 38-17.013 38-38s-17.013-38-38-38zm0 60c-12.15 0-22-9.85-22-22s9.85-22 22-22 22 9.85 22 22-9.85 22-22 22zm-94.64 10.16L220 263.2V216a8 8 0 0 0-16 0v47.2l-33.36 33.36A8.033 8.033 0 1 0 181.92 308L212 277.84 242.08 308a8 8 0 0 0 11.28-11.28z"></path></svg><svg viewBox="0 0 473.806 473.806" width="473.806" height="473.806" id="phone-call" y="10135"><path d="M374.456 293.506c-9.7-10.1-21.4-15.5-33.8-15.5-12.3 0-24.1 5.3-34.2 15.4l-31.6 31.5c-2.6-1.4-5.2-2.7-7.7-4-3.6-1.8-7-3.5-9.9-5.3-29.6-18.8-56.5-43.3-82.3-75-12.5-15.8-20.9-29.1-27-42.6 8.2-7.5 15.8-15.3 23.2-22.8 2.8-2.8 5.6-5.7 8.4-8.5 21-21 21-48.2 0-69.2l-27.3-27.3c-3.1-3.1-6.3-6.3-9.3-9.5-6-6.2-12.3-12.6-18.8-18.6-9.7-9.6-21.3-14.7-33.5-14.7s-24 5.1-34 14.7l-.2.2-34 34.3c-12.8 12.8-20.1 28.4-21.7 46.5-2.4 29.2 6.2 56.4 12.8 74.2 16.2 43.7 40.4 84.2 76.5 127.6 43.8 52.3 96.5 93.6 156.7 122.7 23 10.9 53.7 23.8 88 26 2.1.1 4.3.2 6.3.2 23.1 0 42.5-8.3 57.7-24.8.1-.2.3-.3.4-.5 5.2-6.3 11.2-12 17.5-18.1 4.3-4.1 8.7-8.4 13-12.9 9.9-10.3 15.1-22.3 15.1-34.6 0-12.4-5.3-24.3-15.4-34.3l-54.9-55.1zm35.8 105.3c-.1 0-.1.1 0 0-3.9 4.2-7.9 8-12.2 12.2-6.5 6.2-13.1 12.7-19.3 20-10.1 10.8-22 15.9-37.6 15.9-1.5 0-3.1 0-4.6-.1-29.7-1.9-57.3-13.5-78-23.4-56.6-27.4-106.3-66.3-147.6-115.6-34.1-41.1-56.9-79.1-72-119.9-9.3-24.9-12.7-44.3-11.2-62.6 1-11.7 5.5-21.4 13.8-29.7l34.1-34.1c4.9-4.6 10.1-7.1 15.2-7.1 6.3 0 11.4 3.8 14.6 7l.3.3c6.1 5.7 11.9 11.6 18 17.9 3.1 3.2 6.3 6.4 9.5 9.7l27.3 27.3c10.6 10.6 10.6 20.4 0 31-2.9 2.9-5.7 5.8-8.6 8.6-8.4 8.6-16.4 16.6-25.1 24.4-.2.2-.4.3-.5.5-8.6 8.6-7 17-5.2 22.7l.3.9c7.1 17.2 17.1 33.4 32.3 52.7l.1.1c27.6 34 56.7 60.5 88.8 80.8 4.1 2.6 8.3 4.7 12.3 6.7 3.6 1.8 7 3.5 9.9 5.3.4.2.8.5 1.2.7 3.4 1.7 6.6 2.5 9.9 2.5 8.3 0 13.5-5.2 15.2-6.9l34.2-34.2c3.4-3.4 8.8-7.5 15.1-7.5 6.2 0 11.3 3.9 14.4 7.3l.2.2 55.1 55.1c10.3 10.2 10.3 20.7.1 31.3zm-154.2-286.1c26.2 4.4 50 16.8 69 35.8s31.3 42.8 35.8 69c1.1 6.6 6.8 11.2 13.3 11.2.8 0 1.5-.1 2.3-.2 7.4-1.2 12.3-8.2 11.1-15.6-5.4-31.7-20.4-60.6-43.3-83.5s-51.8-37.9-83.5-43.3c-7.4-1.2-14.3 3.7-15.6 11s3.5 14.4 10.9 15.6zm217.2 96.3c-8.9-52.2-33.5-99.7-71.3-137.5s-85.3-62.4-137.5-71.3c-7.3-1.3-14.2 3.7-15.5 11-1.2 7.4 3.7 14.3 11.1 15.6 46.6 7.9 89.1 30 122.9 63.7 33.8 33.8 55.8 76.3 63.7 122.9 1.1 6.6 6.8 11.2 13.3 11.2.8 0 1.5-.1 2.3-.2 7.3-1.1 12.3-8.1 11-15.4z"></path></svg><svg viewBox="0 0 477 477" width="477" height="477" id="placeholder" y="10609"><path d="M238.4 0C133 0 47.2 85.8 47.2 191.2c0 12 1.1 24.1 3.4 35.9.1.7.5 2.8 1.3 6.4 2.9 12.9 7.2 25.6 12.8 37.7 20.6 48.5 65.9 123 165.3 202.8 2.5 2 5.5 3 8.5 3s6-1 8.5-3c99.3-79.8 144.7-154.3 165.3-202.8 5.6-12.1 9.9-24.7 12.8-37.7.8-3.6 1.2-5.7 1.3-6.4 2.2-11.8 3.4-23.9 3.4-35.9C429.6 85.8 343.8 0 238.4 0zm161.2 222.4c0 .2-.1.4-.1.6-.1.5-.4 2-.9 4.3v.2c-2.5 11.2-6.2 22.1-11.1 32.6-.1.1-.1.3-.2.4-18.7 44.3-59.7 111.9-148.9 185.6-89.2-73.7-130.2-141.3-148.9-185.6-.1-.1-.1-.3-.2-.4-4.8-10.4-8.5-21.4-11.1-32.6v-.2c-.6-2.3-.8-3.8-.9-4.3 0-.2-.1-.4-.1-.7-2-10.3-3-20.7-3-31.2 0-90.5 73.7-164.2 164.2-164.2s164.2 73.7 164.2 164.2c0 10.6-1 21.1-3 31.3z"></path><path d="M238.4 71.9c-66.9 0-121.4 54.5-121.4 121.4s54.5 121.4 121.4 121.4 121.4-54.5 121.4-121.4S305.3 71.9 238.4 71.9zm0 215.8c-52.1 0-94.4-42.4-94.4-94.4s42.4-94.4 94.4-94.4 94.4 42.4 94.4 94.4-42.3 94.4-94.4 94.4z"></path></svg><svg width="58" height="56" viewBox="0 0 58 56" id="plus" y="11086"><defs><path id="a" d="M622.999 597.92l-20.482.595.174 20.475-16.065-.575-.511-19.982-21.118.445.297-15.902 21.337.548.153-20.384 15.193-.158.232 20.252 20.358.896z"></path></defs><use xlink:href="#a" transform="translate(-565 -563)"></use></svg><svg viewBox="0 0 481.6 481.6" width="481.6" height="481.6" id="share" y="11142"><path d="M381.6 309.4c-27.7 0-52.4 13.2-68.2 33.6l-132.3-73.9c3.1-8.9 4.8-18.5 4.8-28.4 0-10-1.7-19.5-4.9-28.5l132.2-73.8c15.7 20.5 40.5 33.8 68.3 33.8 47.4 0 86.1-38.6 86.1-86.1S429 0 381.5 0s-86.1 38.6-86.1 86.1c0 10 1.7 19.6 4.9 28.5l-132.1 73.8c-15.7-20.6-40.5-33.8-68.3-33.8-47.4 0-86.1 38.6-86.1 86.1s38.7 86.1 86.2 86.1c27.8 0 52.6-13.3 68.4-33.9l132.2 73.9c-3.2 9-5 18.7-5 28.7 0 47.4 38.6 86.1 86.1 86.1s86.1-38.6 86.1-86.1-38.7-86.1-86.2-86.1zm0-282.3c32.6 0 59.1 26.5 59.1 59.1s-26.5 59.1-59.1 59.1-59.1-26.5-59.1-59.1 26.6-59.1 59.1-59.1zM100 299.8c-32.6 0-59.1-26.5-59.1-59.1s26.5-59.1 59.1-59.1 59.1 26.5 59.1 59.1-26.6 59.1-59.1 59.1zm281.6 154.7c-32.6 0-59.1-26.5-59.1-59.1s26.5-59.1 59.1-59.1 59.1 26.5 59.1 59.1-26.5 59.1-59.1 59.1z"></path></svg><svg width="43" height="43" viewBox="0 0 43 43" id="smile-good" y="11624"><defs><path id="a" d="M928 1166c0 5.34-2.08 10.36-5.86 14.14A19.87 19.87 0 0 1 908 1186a19.87 19.87 0 0 1-14.14-5.86A19.87 19.87 0 0 1 888 1166c0-5.34 2.08-10.37 5.86-14.14A19.87 19.87 0 0 1 908 1146c5.34 0 10.36 2.08 14.14 5.86A19.87 19.87 0 0 1 928 1166zm-2.47 0c0-9.66-7.87-17.53-17.53-17.53a17.55 17.55 0 0 0-17.53 17.53c0 9.66 7.87 17.52 17.53 17.52s17.53-7.86 17.53-17.52zm-14.15-3.8a2.89 2.89 0 1 1 5.78.01 2.89 2.89 0 0 1-5.78 0zm-12.54 0a2.89 2.89 0 1 1 5.78.01 2.89 2.89 0 0 1-5.78 0zm17.87 7l2.32.86a11.8 11.8 0 0 1-11.03 7.7c-4.9 0-9.33-3.1-11.03-7.7l2.32-.86a9.32 9.32 0 0 0 8.71 6.08 9.32 9.32 0 0 0 8.71-6.08z"></path></defs><use xlink:href="#a" transform="translate(-886 -1144)"></use></svg><svg viewBox="0 0 512 512" width="512" height="512" id="soc-facebook" y="11667"><path d="M134.941 272.691h56.123v231.051a8.256 8.256 0 0 0 8.258 8.258h95.159a8.256 8.256 0 0 0 8.258-8.258V273.78h64.519a8.26 8.26 0 0 0 8.204-7.315l9.799-85.061a8.259 8.259 0 0 0-8.202-9.203h-74.316V118.88c0-16.073 8.654-24.224 25.726-24.224h48.59a8.258 8.258 0 0 0 8.258-8.258V8.319a8.256 8.256 0 0 0-8.258-8.258h-66.965A65.863 65.863 0 0 0 307.027 0c-11.619 0-52.006 2.281-83.909 31.63-35.348 32.524-30.434 71.465-29.26 78.217v62.352H134.94a8.256 8.256 0 0 0-8.258 8.258v83.975a8.26 8.26 0 0 0 8.259 8.259z"></path></svg><svg width="96.669" height="96.669" viewBox="0 0 96.669 96.669" id="soc-google" y="12179"><path d="M50.91 55.189l-4.533-3.522c-1.38-1.144-3.27-2.656-3.27-5.422 0-2.778 1.889-4.544 3.527-6.18 5.279-4.157 10.557-8.581 10.557-17.903 0-9.586-6.031-14.629-8.923-17.022h7.795L64.244 0H39.459C32.658 0 22.856 1.608 15.68 7.533c-5.408 4.666-8.046 11.099-8.046 16.892 0 9.831 7.548 19.798 20.88 19.798 1.259 0 2.636-.124 4.022-.252-.623 1.515-1.252 2.777-1.252 4.917 0 3.905 2.006 6.299 3.774 8.567-5.663.39-16.237 1.018-24.033 5.809-7.424 4.415-9.684 10.84-9.684 15.377 0 9.334 8.8 18.028 27.045 18.028 21.636 0 33.089-11.971 33.089-23.823.002-8.707-5.028-12.992-10.565-17.657zM34.431 40.691c-10.824 0-15.727-13.992-15.727-22.434 0-3.288.623-6.682 2.763-9.333C23.486 6.4 27 4.762 30.281 4.762c10.434 0 15.846 14.118 15.846 23.197 0 2.271-.251 6.296-3.144 9.207-2.023 2.021-5.409 3.525-8.552 3.525zm.124 50.696c-13.46 0-22.139-6.438-22.139-15.392 0-8.949 8.048-11.978 10.816-12.979 5.281-1.777 12.076-2.024 13.21-2.024 1.258 0 1.887 0 2.889.126 9.568 6.81 13.721 10.203 13.721 16.65.001 7.805-6.417 13.619-18.497 13.619zm48.124-50.888V27.894h-6.224v12.605H63.869v6.294h12.586v12.684h6.224V46.793h12.649v-6.294z"></path></svg><svg width="430.117" height="430.117" viewBox="0 0 430.117 430.117" id="soc-in" y="12276"><path d="M430.117 261.543V420.56h-92.188V272.193c0-37.271-13.334-62.707-46.703-62.707-25.473 0-40.632 17.142-47.301 33.724-2.432 5.928-3.058 14.179-3.058 22.477V420.56h-92.219s1.242-251.285 0-277.32h92.21v39.309c-.187.294-.43.611-.606.896h.606v-.896c12.251-18.869 34.13-45.824 83.102-45.824 60.673-.001 106.157 39.636 106.157 124.818zM52.183 9.558C20.635 9.558 0 30.251 0 57.463c0 26.619 20.038 47.94 50.959 47.94h.616c32.159 0 52.159-21.317 52.159-47.94-.606-27.212-20-47.905-51.551-47.905zM5.477 420.56h92.184V143.24H5.477v277.32z"></path></svg><svg width="438.536" height="438.536" viewBox="0 0 438.536 438.536" id="soc-instagram" y="12707"><path d="M421.981 16.562C410.941 5.519 397.711 0 382.298 0H56.248C40.83 0 27.604 5.521 16.561 16.562 5.52 27.6.001 40.828.001 56.243V382.29c0 15.413 5.518 28.644 16.56 39.683 11.043 11.04 24.272 16.563 39.687 16.563h326.046c15.41 0 28.644-5.523 39.684-16.563 11.043-11.039 16.557-24.27 16.557-39.683V56.243c-.001-15.418-5.514-28.639-16.554-39.681zM157.462 158.025c17.224-16.652 37.924-24.982 62.097-24.982 24.36 0 45.153 8.33 62.381 24.982 17.228 16.655 25.837 36.785 25.837 60.386 0 23.598-8.609 43.729-25.837 60.379-17.228 16.659-38.014 24.988-62.381 24.988-24.172 0-44.87-8.336-62.097-24.988-17.228-16.652-25.841-36.781-25.841-60.379 0-23.601 8.613-43.73 25.841-60.386zm231.403 212.564c0 4.945-1.718 9.083-5.141 12.416-3.433 3.33-7.519 4.996-12.282 4.996h-305.2c-4.948 0-9.091-1.666-12.419-4.996-3.333-3.326-4.998-7.471-4.998-12.416V185.575H89.08c-3.805 11.993-5.708 24.462-5.708 37.402 0 36.553 13.322 67.715 39.969 93.511 26.65 25.786 58.721 38.685 96.217 38.685 24.744 0 47.583-5.903 68.527-17.703 20.937-11.807 37.486-27.839 49.676-48.112 12.183-20.272 18.274-42.4 18.274-66.38 0-12.94-1.91-25.406-5.715-37.402h38.547V370.59h-.002zm0-254.963c0 5.52-1.903 10.184-5.716 13.99-3.805 3.809-8.466 5.711-13.989 5.711h-49.676c-5.517 0-10.185-1.903-13.99-5.711-3.806-3.806-5.708-8.47-5.708-13.99V68.522c0-5.33 1.902-9.945 5.708-13.848 3.806-3.901 8.474-5.854 13.99-5.854h49.676c5.523 0 10.185 1.952 13.989 5.854 3.812 3.903 5.716 8.518 5.716 13.848v47.104z"></path></svg><svg width="95.481" height="95.481" viewBox="0 0 95.481 95.481" id="soc-ok" y="13146"><path d="M43.041 67.254c-7.402-.772-14.076-2.595-19.79-7.064-.709-.556-1.441-1.092-2.088-1.713-2.501-2.402-2.753-5.153-.774-7.988 1.693-2.426 4.535-3.075 7.489-1.682.572.27 1.117.607 1.639.969 10.649 7.317 25.278 7.519 35.967.329 1.059-.812 2.191-1.474 3.503-1.812 2.551-.655 4.93.282 6.299 2.514 1.564 2.549 1.544 5.037-.383 7.016-2.956 3.034-6.511 5.229-10.461 6.761-3.735 1.448-7.826 2.177-11.875 2.661.611.665.899.992 1.281 1.376 5.498 5.524 11.02 11.025 16.5 16.566 1.867 1.888 2.257 4.229 1.229 6.425-1.124 2.4-3.64 3.979-6.107 3.81-1.563-.108-2.782-.886-3.865-1.977-4.149-4.175-8.376-8.273-12.441-12.527-1.183-1.237-1.752-1.003-2.796.071-4.174 4.297-8.416 8.528-12.683 12.735-1.916 1.889-4.196 2.229-6.418 1.15-2.362-1.145-3.865-3.556-3.749-5.979.08-1.639.886-2.891 2.011-4.014 5.441-5.433 10.867-10.88 16.295-16.322.359-.362.694-.746 1.217-1.305z"></path><path d="M47.55 48.329c-13.205-.045-24.033-10.992-23.956-24.218C23.67 10.739 34.505-.037 47.84 0c13.362.036 24.087 10.967 24.02 24.478-.068 13.199-10.971 23.897-24.31 23.851zm12.001-24.186c-.023-6.567-5.253-11.795-11.807-11.801-6.609-.007-11.886 5.316-11.835 11.943.049 6.542 5.324 11.733 11.896 11.709 6.552-.023 11.768-5.285 11.746-11.851z"></path></svg><svg viewBox="0 0 410.155 410.155" width="410.155" height="410.155" id="soc-twitter" y="13242"><path d="M403.632 74.18a162.414 162.414 0 0 1-28.28 9.537 88.177 88.177 0 0 0 23.275-37.067c1.295-4.051-3.105-7.554-6.763-5.385a163.188 163.188 0 0 1-43.235 17.862 11.02 11.02 0 0 1-2.702.336c-2.766 0-5.455-1.027-7.57-2.891-16.156-14.239-36.935-22.081-58.508-22.081-9.335 0-18.76 1.455-28.014 4.325-28.672 8.893-50.795 32.544-57.736 61.724-2.604 10.945-3.309 21.9-2.097 32.56a3.166 3.166 0 0 1-.797 2.481 3.278 3.278 0 0 1-2.753 1.091c-62.762-5.831-119.358-36.068-159.363-85.14-2.04-2.503-5.952-2.196-7.578.593-7.834 13.44-11.974 28.812-11.974 44.454 0 23.972 9.631 46.563 26.36 63.032a79.24 79.24 0 0 1-20.169-7.808c-3.06-1.7-6.825.485-6.868 3.985-.438 35.612 20.412 67.3 51.646 81.569a79.567 79.567 0 0 1-16.786-1.399c-3.446-.658-6.341 2.611-5.271 5.952 10.138 31.651 37.39 54.981 70.002 60.278-27.066 18.169-58.585 27.753-91.39 27.753l-10.227-.006c-3.151 0-5.816 2.054-6.619 5.106-.791 3.006.666 6.177 3.353 7.74 36.966 21.513 79.131 32.883 121.955 32.883 37.485 0 72.549-7.439 104.219-22.109 29.033-13.449 54.689-32.674 76.255-57.141 20.09-22.792 35.8-49.103 46.692-78.201 10.383-27.737 15.871-57.333 15.871-85.589v-1.346c-.001-4.537 2.051-8.806 5.631-11.712a174.776 174.776 0 0 0 35.16-38.591c2.573-3.849-1.485-8.673-5.719-6.795z"></path></svg><svg viewBox="0 0 512 512" width="512" height="512" id="soc-vk" y="13653"><path d="M440.649 295.361c16.984 16.582 34.909 32.182 50.142 50.436 6.729 8.112 13.099 16.482 17.973 25.896 6.906 13.382.651 28.108-11.348 28.907l-74.59-.034c-19.238 1.596-34.585-6.148-47.489-19.302-10.327-10.519-19.891-21.714-29.821-32.588-4.071-4.444-8.332-8.626-13.422-11.932-10.182-6.609-19.021-4.586-24.84 6.034-5.926 10.802-7.271 22.762-7.853 34.8-.799 17.564-6.108 22.182-23.751 22.986-37.705 1.778-73.489-3.926-106.732-22.947-29.308-16.768-52.034-40.441-71.816-67.24-38.513-52.183-68.008-109.525-94.516-168.473-5.967-13.281-1.603-20.41 13.051-20.663 24.333-.473 48.663-.439 73.025-.034 9.89.145 16.437 5.817 20.256 15.16 13.165 32.371 29.274 63.169 49.494 91.716 5.385 7.6 10.876 15.201 18.694 20.55 8.65 5.923 15.236 3.96 19.305-5.676 2.582-6.11 3.713-12.691 4.295-19.234 1.928-22.513 2.182-44.988-1.199-67.422-2.076-14.001-9.962-23.065-23.933-25.714-7.129-1.351-6.068-4.004-2.616-8.073 5.995-7.018 11.634-11.387 22.875-11.387h84.298c13.271 2.619 16.218 8.581 18.035 21.934l.072 93.637c-.145 5.169 2.582 20.51 11.893 23.931 7.452 2.436 12.364-3.526 16.836-8.251 20.183-21.421 34.588-46.737 47.457-72.951 5.711-11.527 10.622-23.497 15.381-35.458 3.526-8.875 9.059-13.242 19.056-13.049l81.132.072c2.406 0 4.84.035 7.17.434 13.671 2.33 17.418 8.211 13.195 21.561-6.653 20.945-19.598 38.4-32.255 55.935-13.53 18.721-28.001 36.802-41.418 55.634-12.328 17.2-11.349 25.868 3.964 40.805z"></path></svg><svg width="64" height="64" viewBox="0 0 64 64" id="soc-youtube" y="14165"><path d="M37.635 41.44c-.542 0-1.088.257-1.635.79v10.999c.547.544 1.093.806 1.635.806.941 0 1.423-.806 1.423-2.434v-7.698c.001-1.632-.482-2.463-1.423-2.463zm11.966 0c-1.093 0-1.642.831-1.642 2.502v1.671h3.274v-1.671c.001-1.671-.546-2.502-1.632-2.502z"></path><path d="M56.396 29.049c-2.055-2.139-4.357-2.148-5.414-2.271-7.556-.54-18.889-.54-18.889-.54h-.025s-11.333 0-18.896.54c-1.054.123-3.352.133-5.409 2.271-1.618 1.632-2.147 5.327-2.147 5.327s-.536 4.343-.536 8.685v4.073c0 4.341.536 8.686.536 8.686s.529 3.695 2.147 5.321c2.057 2.139 4.753 2.072 5.952 2.295 4.324.413 18.365.538 18.365.538s11.347-.016 18.903-.562c1.057-.121 3.359-.133 5.414-2.271 1.619-1.626 2.147-5.321 2.147-5.321s.536-4.345.536-8.686v-4.073c0-4.342-.536-8.685-.536-8.685s-.529-3.695-2.148-5.327zM16.979 56.755h-3.642V35.953H9.486v-3.406H20.9v3.406h-3.92v20.802zm12.912 0h-3.278v-1.969c-1.299 1.489-2.54 2.221-3.742 2.221-1.054 0-1.781-.432-2.112-1.346-.178-.546-.286-1.409-.286-2.683V38.717h3.275v13.28c0 .765 0 1.164.024 1.27.083.507.336.769.771.769.658 0 1.341-.507 2.069-1.533V38.717h3.278v18.038zm12.44-5.409c0 1.663-.11 2.866-.331 3.631-.438 1.344-1.313 2.03-2.613 2.03-1.168 0-2.294-.647-3.387-1.999v1.747h-3.277V32.547H36v7.905c1.056-1.299 2.179-1.956 3.387-1.956 1.299 0 2.174.688 2.613 2.036.221.729.331 1.918.331 3.628v7.186zM54.51 48.33h-6.55v3.199c0 1.671.549 2.506 1.673 2.506.806 0 1.275-.44 1.463-1.311.029-.178.073-.908.073-2.219h3.341v.479c0 1.051-.043 1.776-.071 2.106a4.606 4.606 0 0 1-.766 1.955c-.906 1.312-2.25 1.96-3.963 1.96-1.711 0-3.014-.618-3.96-1.853-.696-.902-1.051-2.326-1.051-4.241v-6.319c0-1.927.318-3.333 1.012-4.249.946-1.234 2.249-1.849 3.922-1.849 1.643 0 2.947.614 3.863 1.849.685.916 1.015 2.322 1.015 4.249v3.738zM23.436 24.434v-9.908L27.848-.026h-3.71l-2.503 9.605L19.03-.026h-3.863c.777 2.268 1.581 4.544 2.356 6.816 1.174 3.411 1.91 5.982 2.244 7.735v9.908h3.669zm8.611.251c1.656 0 2.942-.624 3.858-1.864.692-.91 1.029-2.346 1.029-4.287v-6.387c0-1.945-.337-3.367-1.029-4.289-.917-1.25-2.202-1.87-3.858-1.87-1.654 0-2.943.62-3.854 1.87-.707.922-1.034 2.344-1.034 4.289v6.387c0 1.941.327 3.377 1.034 4.287.911 1.24 2.2 1.864 3.854 1.864zm-1.581-13.199c0-1.686.514-2.529 1.581-2.529 1.062 0 1.573.844 1.573 2.529v7.669c0 1.687-.511 2.53-1.573 2.53-1.067 0-1.581-.844-1.581-2.53v-7.669zm18.522 12.948V6.203H45.68v13.935c-.733 1.034-1.427 1.548-2.088 1.548-.445 0-.708-.265-.777-.773-.042-.109-.042-.51-.042-1.285V6.203h-3.299v14.418c0 1.289.108 2.161.293 2.711.332.92 1.068 1.353 2.133 1.353 1.204 0 2.46-.732 3.781-2.24v1.989h3.307z"></path></svg><svg viewBox="0 0 490.727 490.727" width="490.727" height="490.727" id="star" y="14229"><path d="M453.443 160.214l-119.7-8.6c-2.5-.2-4.7-1.7-5.6-4.1l-45.6-111c-6.3-15.3-20.5-24.8-37.1-24.8s-30.7 9.5-37.1 24.9l-45.7 111.1c-1 2.3-3.1 3.9-5.6 4.1l-119.5 8.6c-16.2.9-30 11.5-35.3 27.1-5.4 15.8-.9 32.4 11.9 43.3l92.5 76.4c1.9 1.6 2.8 4.2 2.2 6.6l-28.2 115.4c-3.3 12-1 24.4 6.3 34.1 7.5 9.8 19.2 15.7 31.5 15.7 7.6 0 15-2.3 21.1-6.4l101.1-62.9c2.1-1.3 4.8-1.3 6.9 0l102.1 62.7c6.4 4.3 13.8 6.6 21.3 6.6 11.5 0 22.9-5.5 30.3-14.8 7.7-9.6 10.5-22.1 7.7-34.6l-28.3-115.7c-.6-2.5.3-5.1 2.2-6.7l93.9-76.6c12.6-10.8 17.1-27.4 11.8-43.2-5.2-15.6-19.1-26.3-35.1-27.2zm7.7 51.5l-93.7 76.5c-9.2 7.5-13.4 19.9-10.5 31.5l28.3 115.5c1.5 6.8-1.2 11.5-3 13.7-2.8 3.5-7 5.7-11.2 5.7-2.6 0-5.2-.8-8-2.7l-102.5-63c-4.9-3-10.5-4.6-16.3-4.6s-11.5 1.6-16.4 4.7l-101.5 63.1c-6.5 4.3-15.2 2.4-19.8-3.6-1.9-2.5-3.9-6.8-2.1-13.1l28.3-115.8c2.8-11.5-1.3-23.8-10.4-31.3l-92.3-76.3c-7.3-6.3-5.3-14.4-4.5-16.7s4.1-10 13.7-10.5l119.7-8.6c11.8-.9 22-8.2 26.5-19.2l45.7-111.1c3.7-9 12-9.7 14.4-9.7 2.4 0 10.7.7 14.4 9.7l45.7 111.1c4.5 11 14.7 18.3 26.5 19.2l119.9 8.7c9.4.5 12.7 8.2 13.5 10.5.6 2.1 2.6 10.2-4.4 16.3z"></path></svg><svg height="511" viewBox="-62 1 511 511.99962" width="511" id="startup" y="14720"><path d="M382.29 306.344l-69.892-84.196v-10.601c0-41.059-9.441-80.39-28.07-116.91-17.047-33.422-42.336-64.727-74.879-89.418-9.176-6.957-22.07-6.961-31.242 0-30.168 22.886-56.309 53.004-74.883 89.418-18.629 36.52-28.07 75.851-28.07 116.91v10.601l-69.89 84.196A21.124 21.124 0 0 0 .5 319.816v57.102c0 11.629 9.46 21.09 21.09 21.09h54.777c3.223 10.62 13.102 18.375 24.762 18.375h28.39v14.25c-7.332 2.68-12.59 9.703-12.59 17.949v7.746c0 10.543 8.579 19.121 19.122 19.121h40.277c4.14 0 7.5-3.355 7.5-7.5s-3.36-7.5-7.5-7.5h-40.277c-2.235 0-4.117-1.886-4.117-4.12v-7.747c0-2.23 1.882-4.117 4.117-4.117H251.6c2.235 0 4.122 1.887 4.122 4.117v7.746c0 2.235-1.887 4.121-4.121 4.121h-40.274c-4.144 0-7.5 3.356-7.5 7.5s3.356 7.5 7.5 7.5h40.274c10.543 0 19.12-8.578 19.12-19.12v-7.747c0-8.246-5.257-15.27-12.585-17.945v-14.254h28.386c11.66 0 21.54-7.754 24.766-18.375h54.774c11.628 0 21.093-9.461 21.093-21.09v-57.102a21.157 21.157 0 0 0-4.867-13.472c.004 0 .004 0 0 0zm-11.54 9.582a6.118 6.118 0 0 1 1.402 3.89v34.07h-59.754V245.634zM187.273 17.172c3.532-2.68 8.5-2.965 12.368-.516 1.48.942 28.03 20.125 51.21 52.051h-114.05a246.347 246.347 0 0 1 50.472-51.535zm-97.02 194.375c0-46.047 12.743-89.965 36.247-127.84h134.652c23.504 37.875 36.246 81.793 36.246 127.84V373.3h-80.5v-48.117c0-4.145-3.355-7.5-7.5-7.5a7.497 7.497 0 0 0-7.5 7.5v28.707h-16.144v-98.16c0-2.688 2.27-4.958 4.957-4.958h6.23c2.688 0 4.957 2.27 4.957 4.957v34.446a7.5 7.5 0 1 0 15 0V255.73c0-11.003-8.953-19.957-19.957-19.957h-6.23c-11.004 0-19.961 8.954-19.961 19.957V373.3H90.254V224.853zm111.645 166.5c0 2.77-2.382 4.957-4.957 4.957h-6.23c-2.555 0-4.957-2.172-4.957-4.957v-9.156h16.144zM16.902 315.926l58.352-70.293v108.254H15.5v-34.07c0-1.422.5-2.801 1.402-3.891zM15.5 376.914v-8.023h59.754v14.113H21.59c-3.36 0-6.09-2.73-6.09-6.09zm227.633 52.547h-98.617v-13.078h98.617zm43.39-28.082H101.13c-5.996 0-10.875-4.875-10.875-10.871V388.3h83.367c3.676 6.11 10.262 9.707 17.09 9.707h6.23c6.875 0 13.434-3.633 17.09-9.707h83.367v2.207c0 5.996-4.878 10.87-10.875 10.87zm85.63-24.465c0 3.36-2.731 6.09-6.09 6.09h-53.665V368.89h59.754zm0 0"></path><path d="M192.293 219.828c33.992 0 61.648-27.652 61.648-61.644 0-33.993-27.656-61.649-61.648-61.649-33.992 0-61.645 27.656-61.645 61.649 0 33.992 27.657 61.644 61.645 61.644zm0-108.289c25.723 0 46.644 20.922 46.644 46.645 0 25.718-20.921 46.644-46.644 46.644-25.719 0-46.645-20.926-46.645-46.644 0-25.723 20.926-46.645 46.645-46.645zM155.363 504.5v-14.535c0-4.145-3.355-7.5-7.5-7.5s-7.5 3.355-7.5 7.5V504.5a7.5 7.5 0 1 0 15 0zm29.621 0v-14.535c0-4.145-3.355-7.5-7.5-7.5s-7.5 3.355-7.5 7.5V504.5a7.5 7.5 0 1 0 15 0zm29.621 0v-14.535c0-4.145-3.355-7.5-7.5-7.5s-7.5 3.355-7.5 7.5V504.5a7.5 7.5 0 1 0 15 0zm29.622 0v-14.535c0-4.145-3.356-7.5-7.5-7.5a7.497 7.497 0 0 0-7.5 7.5V504.5a7.5 7.5 0 0 0 7.5 7.5 7.5 7.5 0 0 0 7.5-7.5zm0 0"></path><path d="M192.293 194.086c19.8 0 35.906-16.106 35.906-35.902 0-19.801-16.105-35.907-35.906-35.907-19.797 0-35.902 16.106-35.902 35.907 0 19.796 16.105 35.902 35.902 35.902zm0-56.809c11.527 0 20.906 9.38 20.906 20.907 0 11.523-9.379 20.902-20.906 20.902-11.523 0-20.902-9.379-20.902-20.902 0-11.528 9.379-20.907 20.902-20.907zm0 0"></path></svg><svg viewBox="0 0 350 350" width="350" height="350" id="user" y="15231"><path d="M175 171.173c38.914 0 70.463-38.318 70.463-85.586C245.463 38.318 235.105 0 175 0s-70.465 38.318-70.465 85.587c0 47.268 31.549 85.586 70.465 85.586zM41.909 301.853c-.012-2.882-.024-.812 0 0zm266.176 2.251c.038-.789.013-5.474 0 0z"></path><path d="M307.935 298.397c-1.305-82.342-12.059-105.805-94.352-120.657 0 0-11.584 14.761-38.584 14.761s-38.586-14.761-38.586-14.761C55.018 192.43 43.61 215.545 42.11 295.722c-.123 6.547-.18 6.891-.202 6.131.005 1.424.011 4.058.011 8.651 0 0 19.592 39.496 133.08 39.496 113.486 0 133.08-39.496 133.08-39.496 0-2.951.002-5.003.005-6.399-.022.47-.066-.441-.149-5.708z"></path></svg></svg>