<svg height="511pt" viewBox="-62 1 511 511.99962" width="511pt" xmlns="http://www.w3.org/2000/svg"><path d="m382.289062 306.34375-69.890624-84.195312v-10.601563c0-41.058594-9.441407-80.390625-28.070313-116.910156-17.046875-33.421875-42.335937-64.726563-74.878906-89.417969-9.175781-6.957031-22.070313-6.960938-31.242188 0-30.167969 22.886719-56.308593 53.003906-74.882812 89.417969-18.628907 36.519531-28.070313 75.851562-28.070313 116.910156v10.601563l-69.890625 84.195312c-3.136719 3.773438-4.863281 8.5625-4.863281 13.472656v57.101563c0 11.628906 9.460938 21.089843 21.089844 21.089843h54.777344c3.222656 10.621094 13.101562 18.375 24.761718 18.375h28.390625v14.25c-7.332031 2.679688-12.589843 9.703126-12.589843 17.949219v7.746094c0 10.542969 8.578124 19.121094 19.121093 19.121094h40.277344c4.140625 0 7.5-3.355469 7.5-7.5s-3.359375-7.5-7.5-7.5h-40.277344c-2.234375 0-4.117187-1.886719-4.117187-4.121094v-7.746094c0-2.230469 1.882812-4.117187 4.117187-4.117187h115.550781c2.234376 0 4.121094 1.886718 4.121094 4.117187v7.746094c0 2.234375-1.886718 4.121094-4.121094 4.121094h-40.273437c-4.144531 0-7.5 3.355469-7.5 7.5s3.355469 7.5 7.5 7.5h40.273437c10.542969 0 19.121094-8.578125 19.121094-19.121094v-7.746094c0-8.246093-5.257812-15.269531-12.585937-17.945312v-14.253907h28.386719c11.660156 0 21.539062-7.753906 24.765624-18.375h54.773438c11.628906 0 21.09375-9.460937 21.09375-21.089843 0-6.417969 0-50.046875 0-57.101563-.003906-4.910156-1.730469-9.695312-4.867188-13.472656.003907 0 .003907 0 0 0zm-11.539062 9.582031c.902344 1.089844 1.402344 2.472657 1.402344 3.890625v34.070313h-59.753906v-108.253907zm-183.476562-298.753906c3.53125-2.679687 8.5-2.964844 12.367187-.515625 1.480469.941406 28.03125 20.125 51.210937 52.050781h-114.050781c14.238281-19.609375 31.238281-36.941406 50.472657-51.535156zm-97.019532 194.375c0-46.046875 12.742188-89.964844 36.246094-127.839844h134.652344c23.503906 37.875 36.246094 81.792969 36.246094 127.839844v13.308594 148.445312h-80.5c0-22.972656 0-25.894531 0-48.117187 0-4.144532-3.355469-7.5-7.5-7.5-4.144532 0-7.5 3.355468-7.5 7.5v28.707031h-16.144532v-98.160156c0-2.6875 2.269532-4.957031 4.957032-4.957031h6.230468c2.6875 0 4.957032 2.269531 4.957032 4.957031v34.445312c0 4.144531 3.355468 7.503907 7.5 7.503907 4.144531 0 7.5-3.359376 7.5-7.503907v-34.445312c0-11.003907-8.953126-19.957031-19.957032-19.957031h-6.230468c-11.003907 0-19.960938 8.953124-19.960938 19.957031v117.570312h-80.496094c0-4.898437 0-143.535156 0-148.449219zm111.644532 166.5c0 2.769531-2.382813 4.957031-4.957032 4.957031h-6.230468c-2.554688 0-4.957032-2.171875-4.957032-4.957031v-9.15625h16.144532zm-184.996094-62.121094 58.351562-70.292969v108.253907h-59.753906v-34.070313c0-1.421875.5-2.800781 1.402344-3.890625zm-1.402344 60.988281v-8.023437h59.753906v14.113281h-53.664062c-3.359375 0-6.089844-2.730468-6.089844-6.089844zm227.632812 52.546876h-98.617187v-13.078126h98.617187zm43.390626-28.082032c-4.664063 0-180.183594 0-185.394532 0-5.996094 0-10.875-4.875-10.875-10.871094v-2.207031h83.367188c3.675781 6.109375 10.261718 9.707031 17.089844 9.707031h6.230468c6.875 0 13.433594-3.632812 17.089844-9.707031h83.367188v2.207031c0 5.996094-4.878907 10.871094-10.875 10.871094zm85.628906-24.464844c0 3.359376-2.730469 6.089844-6.089844 6.089844h-53.664062c0-5.441406 0-8.847656 0-14.113281h59.753906zm0 0"/><path d="m192.292969 219.828125c33.992187 0 61.648437-27.652344 61.648437-61.644531 0-33.992188-27.65625-61.648438-61.648437-61.648438-33.992188 0-61.644531 27.65625-61.644531 61.648438 0 33.992187 27.65625 61.644531 61.644531 61.644531zm0-108.289063c25.722656 0 46.644531 20.921876 46.644531 46.644532 0 25.71875-20.921875 46.644531-46.644531 46.644531-25.71875 0-46.644531-20.925781-46.644531-46.644531 0-25.722656 20.925781-46.644532 46.644531-46.644532zm0 0"/><path d="m155.363281 504.5v-14.535156c0-4.144532-3.355469-7.5-7.5-7.5s-7.5 3.355468-7.5 7.5v14.535156c0 4.140625 3.355469 7.5 7.5 7.5s7.5-3.359375 7.5-7.5zm0 0"/><path d="m184.984375 504.5v-14.535156c0-4.144532-3.355469-7.5-7.5-7.5s-7.5 3.355468-7.5 7.5v14.535156c0 4.140625 3.355469 7.5 7.5 7.5s7.5-3.359375 7.5-7.5zm0 0"/><path d="m214.605469 504.5v-14.535156c0-4.144532-3.355469-7.5-7.5-7.5s-7.5 3.355468-7.5 7.5v14.535156c0 4.140625 3.355469 7.5 7.5 7.5s7.5-3.359375 7.5-7.5zm0 0"/><path d="m244.226562 504.5v-14.535156c0-4.144532-3.355468-7.5-7.5-7.5-4.144531 0-7.5 3.355468-7.5 7.5v14.535156c0 4.140625 3.355469 7.5 7.5 7.5 4.144532 0 7.5-3.359375 7.5-7.5zm0 0"/><path d="m192.292969 194.085938c19.800781 0 35.90625-16.105469 35.90625-35.902344 0-19.800782-16.105469-35.90625-35.90625-35.90625-19.796875 0-35.902344 16.105468-35.902344 35.90625 0 19.796875 16.105469 35.902344 35.902344 35.902344zm0-56.808594c11.527343 0 20.90625 9.378906 20.90625 20.90625 0 11.523437-9.378907 20.902344-20.90625 20.902344-11.523438 0-20.902344-9.378907-20.902344-20.902344 0-11.527344 9.378906-20.90625 20.902344-20.90625zm0 0"/></svg>