<svg xmlns="http://www.w3.org/2000/svg" xmlns:xlink="http://www.w3.org/1999/xlink" preserveAspectRatio="xMidYMid" width="30" height="30" viewBox="0 0 30 30">
  <defs>
    
  </defs>
  <path d="M25.435,22.174 C24.710,22.174 24.034,22.375 23.451,22.720 L20.151,19.419 C21.008,18.276 21.522,16.861 21.522,15.326 C21.522,13.790 21.008,12.376 20.151,11.233 L24.103,7.280 C24.686,7.625 25.363,7.826 26.087,7.826 C28.245,7.826 30.000,6.071 30.000,3.913 C30.000,1.755 28.245,-0.000 26.087,-0.000 C23.929,-0.000 22.174,1.755 22.174,3.913 C22.174,4.638 22.375,5.314 22.720,5.897 L18.767,9.849 C17.624,8.992 16.210,8.478 14.674,8.478 C13.138,8.478 11.724,8.992 10.581,9.849 L7.280,6.549 C7.625,5.966 7.826,5.290 7.826,4.565 C7.826,2.407 6.071,0.652 3.913,0.652 C1.755,0.652 -0.000,2.407 -0.000,4.565 C-0.000,6.723 1.755,8.478 3.913,8.478 C4.638,8.478 5.314,8.277 5.897,7.932 L9.197,11.232 C8.340,12.376 7.826,13.790 7.826,15.326 C7.826,16.862 8.340,18.276 9.197,19.419 L5.897,22.720 C5.314,22.375 4.638,22.174 3.913,22.174 C1.755,22.174 -0.000,23.929 -0.000,26.087 C-0.000,28.245 1.755,30.000 3.913,30.000 C6.071,30.000 7.826,28.245 7.826,26.087 C7.826,25.362 7.625,24.686 7.280,24.103 L10.581,20.803 C11.724,21.659 13.138,22.174 14.674,22.174 C16.210,22.174 17.624,21.659 18.767,20.802 L22.068,24.103 C21.723,24.686 21.522,25.362 21.522,26.087 C21.522,28.245 23.277,30.000 25.435,30.000 C27.593,30.000 29.348,28.245 29.348,26.087 C29.348,23.929 27.593,22.174 25.435,22.174 Z" class="cls-1"/>
</svg>
