<svg xmlns="http://www.w3.org/2000/svg" xmlns:xlink="http://www.w3.org/1999/xlink" width="27" height="32" viewBox="0 0 27 32"><defs><path id="gbn0a" d="M1186.263 618.566v.862l5.905 2.332c.512.2.849.691.849 1.237v2.666c0 .736-.605 1.333-1.35 1.333h-18.913c-.745 0-1.35-.597-1.35-1.333v-2.666c0-.505.29-.967.747-1.193l4.656-2.298v-.712l-6.976-1.149a1.354 1.354 0 0 1-.903-.575l-2.7-4a1.318 1.318 0 0 1-.068-1.369 1.353 1.353 0 0 1 1.191-.705h9.456c0-.735.604-1.332 1.35-1.332h13.51c.745 0 1.35.597 1.35 1.332v4c0 .547-.337 1.035-.85 1.24zm-9.456-2.476v-2.426h-6.93l.976 1.447zm6.754 4.24v-2.666c0-.546.336-1.036.849-1.239l5.904-2.33v-1.765h-10.806v8c0 .506-.288.967-.747 1.192l-4.656 2.3v.51h16.209v-.432l-5.904-2.332a1.334 1.334 0 0 1-.849-1.237zm-4.053-17.333H1166v-2.667h13.508v-4c0-.735.605-1.334 1.35-1.334h6.756c.747 0 1.35.599 1.35 1.335v10.666c0 .736-.603 1.334-1.35 1.334h-6.755c-.746 0-1.351-.598-1.351-1.334zm2.701 2.666h4.054v-8h-4.054z"/></defs><g><g transform="translate(-1166 -595)"><use xlink:href="#gbn0a"/></g></g></svg>