<?xml version="1.0" encoding="UTF-8" standalone="no"?>
<svg xmlns:dc="http://purl.org/dc/elements/1.1/" xmlns:cc="http://creativecommons.org/ns#" xmlns:rdf="http://www.w3.org/1999/02/22-rdf-syntax-ns#" xmlns:svg="http://www.w3.org/2000/svg" xmlns="http://www.w3.org/2000/svg" viewBox="0 0 86.886131 84" height="84" width="86.886131" xml:space="preserve" id="svg2" version="1.1"><metadata id="metadata8"><rdf:RDF><cc:Work rdf:about=""><dc:format>image/svg+xml</dc:format><dc:type rdf:resource="http://purl.org/dc/dcmitype/StillImage"/></cc:Work></rdf:RDF></metadata><defs id="defs6"><clipPath id="clipPath94" clipPathUnits="userSpaceOnUse"><path id="path92" d="M 0,63 H 65.165 V 0 H 0 Z"/></clipPath></defs><g transform="matrix(1.3333333,0,0,-1.3333333,0,84)" id="g10"><path id="path12" d="m 56.576,4 h -50 v 2 h 50 z"/><path id="path14" d="m 42.576,9 h -22 v 2 h 22 z"/><path id="path16" d="m 18.576,9 h -2 v 2 h 2 z"/><path id="path18" d="m 14.576,9 h -2 v 2 h 2 z"/><path id="path20" d="m 10.576,9 h -2 v 2 h 2 z"/><path id="path22" d="m 46.576,9 h -2 v 2 h 2 z"/><path id="path24" d="m 50.576,9 h -2 v 2 h 2 z"/><path id="path26" d="m 54.576,9 h -2 v 2 h 2 z"/><path id="path28" d="m 12.576,12 h -2 v 2 h 2 z"/><path id="path30" d="m 16.576,12 h -2 v 2 h 2 z"/><path id="path32" d="m 20.576,12 h -2 v 2 h 2 z"/><path id="path34" d="m 24.576,12 h -2 v 2 h 2 z"/><path id="path36" d="m 28.576,12 h -2 v 2 h 2 z"/><path id="path38" d="m 32.576,12 h -2 v 2 h 2 z"/><path id="path40" d="m 36.576,12 h -2 v 2 h 2 z"/><path id="path42" d="m 40.576,12 h -2 v 2 h 2 z"/><path id="path44" d="m 44.576,12 h -2 v 2 h 2 z"/><path id="path46" d="m 48.576,12 h -2 v 2 h 2 z"/><path id="path48" d="m 52.576,12 h -2 v 2 h 2 z"/><path id="path50" d="m 14.576,15 h -2 v 2 h 2 z"/><path id="path52" d="m 18.576,15 h -2 v 2 h 2 z"/><path id="path54" d="m 22.576,15 h -2 v 2 h 2 z"/><path id="path56" d="m 26.576,15 h -2 v 2 h 2 z"/><path id="path58" d="m 30.576,15 h -2 v 2 h 2 z"/><path id="path60" d="m 34.576,15 h -2 v 2 h 2 z"/><path id="path62" d="m 38.576,15 h -2 v 2 h 2 z"/><path id="path64" d="m 42.576,15 h -2 v 2 h 2 z"/><path id="path66" d="m 46.576,15 h -2 v 2 h 2 z"/><path id="path68" d="m 50.576,15 h -2 v 2 h 2 z"/><path id="path70" d="m 16.576,18 h -2 v 2 h 2 z"/><path id="path72" d="m 20.576,18 h -2 v 2 h 2 z"/><path id="path74" d="m 24.576,18 h -2 v 2 h 2 z"/><path id="path76" d="m 28.576,18 h -2 v 2 h 2 z"/><path id="path78" d="m 32.576,18 h -2 v 2 h 2 z"/><path id="path80" d="m 36.576,18 h -2 v 2 h 2 z"/><path id="path82" d="m 40.576,18 h -2 v 2 h 2 z"/><path id="path84" d="m 44.576,18 h -2 v 2 h 2 z"/><path id="path86" d="m 48.576,18 h -2 v 2 h 2 z"/><g id="g88"><g clip-path="url(#clipPath94)" id="g90"><g transform="translate(5.5756,1.9998)" id="g96"><path id="path98" d="m 0,0 h 52 v 5.738 l -9,16 V 32 H 37.951 C 37.398,26.401 32.249,22 26,22 19.751,22 14.602,26.401 14.049,32 H 9 V 21.738 l -9,-16 z M 54,-2 H -2 v 8.262 l 9,16 V 34 h 9 v -1 c 0,-4.963 4.486,-9 10,-9 5.514,0 10,4.037 10,9 v 1 h 9 V 22.262 l 9,-16 z"/></g><path id="path100" d="m 23.576,34 h -3 v 2 h 3 z"/><path id="path102" d="m 43.576,34 h -4 v 2 h 4 z"/><path id="path104" d="m 32.576,35 h -2 v 3 h 2 z"/><g transform="translate(42.8685,28.2928)" id="g106"><path id="path108" d="m 0,0 -6.293,6.293 v 3.414 h 2 V 7.121 L 1.414,1.415 Z"/></g><g transform="translate(20.2826,28.2928)" id="g110"><path id="path112" d="m 0,0 -1.414,1.415 5.707,5.706 v 2.586 h 2 V 6.293 Z"/></g><g transform="translate(24.4701,24.5526)" id="g114"><path id="path116" d="m 0,0 -1.789,0.895 4.894,9.789 v 2.763 h 2 v -3.236 z"/></g><g transform="translate(38.681,24.5526)" id="g118"><path id="path120" d="m 0,0 -5.105,10.211 v 3.236 h 2 V 10.684 L 1.789,0.895 Z"/></g><path id="path122" d="m 32.576,23 h -2 v 11 h 2 z"/><g transform="translate(53.5756,30.9998)" id="g124"><path id="path126" d="m 0,0 h -5 v 3 h -7 v 2 h 9 V 2 h 1 V 8 H -42 V 2 h 1 v 3 h 9 V 3 h -7 V 0 h -5 V 10 H 0 Z"/></g><path id="path128" d="m 56.576,34 h 1 v 4 h -1 z m 3,-2 h -5 v 8 h 5 z"/><path id="path130" d="m 2.576,41 h 4 v -2 h -4 z m 6,-12 v 8 5 1 h -8 v -6 h 6 V 27 h 1 1 5 v 2 z"/><g transform="translate(62.5756,46.9998)" id="g132"><path id="path134" d="m 0,0 c 0,-1.103 -0.897,-2 -2,-2 -1.103,0 -2,0.897 -2,2 v 5 c 0,3.309 -2.691,6 -6,6 h -15 v 3 H 0 Z m -27,16 v -5 h -15 c -3.309,0 -6,-2.691 -6,-6 V -6 h 2 V 5 c 0,2.206 1.794,4 4,4 h 27.541 C -15.414,7.937 -16,6.538 -16,5 V -6 h 2 V 5 c 0,2.206 1.794,4 4,4 2.206,0 4,-1.794 4,-4 V 0 c 0,-2.206 1.794,-4 4,-4 2.206,0 4,1.794 4,4 v 16 z"/></g><path id="path136" d="m 34.576,43 h -16 v 2 h 16 z"/><path id="path138" d="m 44.576,47 h -26 v 2 h 26 z"/><path id="path140" d="m 44.576,51 h -26 v 2 h 26 z"/><path id="path142" d="m 60.576,43 h -12 v 2 h 12 z"/><g transform="translate(48.2826,49.2928)" id="g144"><path id="path146" d="m 0,0 -1.414,1.415 7,7 L 7,7 Z"/></g><g transform="translate(48.7406,44.7928)" id="g148"><path id="path150" d="m 0,0 -1.414,1.415 9,9 L 9,9 Z"/></g><g transform="translate(52.2826,43.2928)" id="g152"><path id="path154" d="m 0,0 -1.414,1.415 6,6 L 6,6 Z"/></g><path id="path156" d="m 10.826,58.227 h -10 v -2 h 10 z"/><path id="path158" d="m 17.826,62.227 h -8 v -2 h 8 z"/><path id="path160" d="m 4,20.688 h 2 v 2 H 4 Z"/><path id="path162" d="m 0,20.688 h 2 v 2 H 0 Z"/><path id="path164" d="m 2,18.688 h 2 v 2 H 2 Z"/><path id="path166" d="M 4,24.688 H 2 v -2 h 2 z"/><g transform="translate(61.6928,23.2737)" id="g168"><path id="path170" d="M 0,0 2.854,-0.927 3.472,0.975 0.618,1.902 Z"/></g><g transform="translate(64.0292,27.741)" id="g172"><path id="path174" d="m 0,0 -1.618,1.176 -1.763,-2.427 1.618,-1.176 z"/></g><g transform="translate(60.5028,26.4901)" id="g176"><path id="path178" d="M 0,0 -1.763,2.427 -3.381,1.251 -1.618,-1.176 Z"/></g><g transform="translate(59.4579,23.2737)" id="g180"><path id="path182" d="M 0,0 -0.618,1.902 -3.472,0.975 -2.854,-0.927 Z"/></g><path id="path184" d="m 61.576,23.188 h -2 v -3 h 2 z"/><path id="path186" d="m 0.576,49 h 2 v 2 h -2 z"/><path id="path188" d="m 4.576,49 h 2 v 2 h -2 z"/><path id="path190" d="m 8.576,49 h 2 v 2 h -2 z"/></g></g></g></svg>