<svg xmlns="http://www.w3.org/2000/svg" xmlns:xlink="http://www.w3.org/1999/xlink" preserveAspectRatio="xMidYMid" width="25.938" height="30" viewBox="0 0 25.938 30">
  <defs>
    
  </defs>
  <path d="M25.768,12.689 L13.389,0.182 C13.273,0.065 13.116,-0.000 12.951,-0.000 C12.787,-0.000 12.629,0.066 12.513,0.183 L0.171,12.689 C-0.006,12.868 -0.058,13.137 0.037,13.370 C0.134,13.604 0.359,13.755 0.609,13.755 L7.415,13.755 L7.415,29.375 C7.415,29.720 7.692,30.000 8.034,30.000 L17.933,30.000 C18.275,30.000 18.552,29.720 18.552,29.375 L18.552,13.755 L25.332,13.755 C25.582,13.755 25.807,13.603 25.903,13.369 C26.000,13.135 25.945,12.868 25.768,12.689 Z" class="cls-1"/>
</svg>
