<svg id="Layer_1" data-name="Layer 1" xmlns="http://www.w3.org/2000/svg" viewBox="0 0 64 63.2"><defs/><title>05</title><rect class="cls-1" x="38" y="49" width="2" height="3"/><path class="cls-1" d="M120.44,1777l-3.46-.77-3.39-.85-3,1-3-1-3.4.85-3.46.77a4.72,4.72,0,0,0-3.24,1.39c-1.92,1.92-2.94,6.56-2.94,9.16h2c0-2.19.92-6.3,2.35-7.74a2.74,2.74,0,0,1,2-.81l2.44-.54,6.15,4.4-.87,4.36,2,.4,0-.1,0,.1,2-.4-.88-4.36,6.14-4.38,2.23.5.22,0a2.74,2.74,0,0,1,2,.81c1.44,1.44,2.36,5.55,2.36,7.74h2c0-2.6-1-7.24-2.95-9.16A4.72,4.72,0,0,0,120.44,1777Zm-8.81,3.48v-1.06h-2v1.06l-3.63-2.6,1.72-.37,2.91,1,2.9-1,1.72.38Z" transform="translate(-62.63 -1735.58)"/><path class="cls-1" d="M105.43,1765.62c0,2.63,0,3.75.12,4.28h0c.46,3.29,2.61,5.67,5.11,5.67s4.64-2.38,5.1-5.67h0c.08-.53.09-1.65.13-4.29h0a3.89,3.89,0,0,0-3.72-4h-3A3.89,3.89,0,0,0,105.43,1765.62Zm8.4,0c0,1.74-.06,3.7-.08,4-.32,2.25-1.66,3.95-3.12,3.95s-2.81-1.69-3.13-3.94c0-.34,0-2.31-.07-4a1.89,1.89,0,0,1,1.71-2h3A1.9,1.9,0,0,1,113.83,1765.6Z" transform="translate(-62.63 -1735.58)"/><rect class="cls-1" x="56" y="49" width="2" height="3"/><path class="cls-1" d="M87.63,1735.58v17h3.73l13.48,17.52-4.58-17.52h26.37v-17Zm37,15h-27l2.75,10.48-8.07-10.48H89.63v-13h35Z" transform="translate(-62.63 -1735.58)"/><rect class="cls-1" x="29" y="3" width="31" height="2"/><rect class="cls-1" x="29" y="7" width="31" height="2"/><rect class="cls-1" x="29" y="11" width="14" height="2"/><rect class="cls-1" x="45" y="11" width="2" height="2"/><rect class="cls-1" x="49" y="11" width="2" height="2"/><rect class="cls-1" x="53" y="11" width="2" height="2"/><rect class="cls-2" x="3" y="1" width="2" height="2"/><rect class="cls-2" x="7" y="1" width="2" height="2"/><rect class="cls-2" x="11" y="1" width="2" height="2"/><rect class="cls-2" x="3" y="13" width="6" height="2"/><rect class="cls-2" x="7" y="16" width="8" height="2"/><rect class="cls-2" x="12" y="8" width="4" height="2"/><rect class="cls-2" x="16" y="10" width="5" height="2"/><rect class="cls-2" x="47" y="18" width="8" height="2"/><rect class="cls-2" x="54" y="22" width="8" height="2"/><rect class="cls-2" x="38" y="56" width="6" height="2"/><rect class="cls-2" x="41" y="59" width="9" height="2"/><rect class="cls-2" x="55" y="57" width="8" height="2"/><rect class="cls-2" x="53" y="60" width="5" height="2"/><rect class="cls-1" x="6" y="60" width="2" height="3"/><path class="cls-1" d="M71.37,1789.62l6.15,4.4-.87,4.37,2,.39,0-.1,0,.1,2-.39-.88-4.37,6.14-4.38,2.23.5.22,0a2.78,2.78,0,0,1,2,.81c1.46,1.46,2.36,5.42,2.36,7.61h2c0-2.45-.94-7-2.95-9a4.81,4.81,0,0,0-3.24-1.39l-3.48-.78-3.37-.84-3,1-3-1-3.36.84-3.5.78a4.72,4.72,0,0,0-3.24,1.39c-2,2-2.94,6.58-2.94,9h2c0-2.19.89-6.15,2.35-7.61a2.82,2.82,0,0,1,2-.81Zm10.17-.95,1.71.38-3.62,2.59v-1.06h-2v1.06L74,1789l1.73-.37,2.91,1Z" transform="translate(-62.63 -1735.58)"/><path class="cls-1" d="M83.83,1776.73a3.88,3.88,0,0,0-3.72-4h-3a3.88,3.88,0,0,0-3.71,4c0,2.63,0,3.75.12,4.28h0c.46,3.29,2.61,5.67,5.11,5.67s4.64-2.38,5.1-5.67h0c.08-.53.09-1.65.13-4.28Zm-2.08,4c-.32,2.25-1.66,4-3.12,4s-2.81-1.7-3.13-4c0-.33,0-2.3-.07-4a1.89,1.89,0,0,1,1.71-2h3a1.9,1.9,0,0,1,1.72,2C81.8,1778.47,81.77,1780.43,81.75,1780.76Z" transform="translate(-62.63 -1735.58)"/><rect class="cls-1" x="24" y="60" width="2" height="3"/><path class="cls-1" d="M73.4,1785.92l-2.19-15.34H92.63v-15h-30v15H65Zm-8.77-28.34h26v11H68.9l.95,6.66-3.63-6.66H64.63Z" transform="translate(-62.63 -1735.58)"/><rect class="cls-1" x="4" y="23" width="22" height="2"/><rect class="cls-1" x="4" y="26" width="22" height="2"/><rect class="cls-1" x="4" y="29" width="6" height="2"/><rect class="cls-1" x="12" y="29" width="2" height="2"/><rect class="cls-1" x="16" y="29" width="2" height="2"/><rect class="cls-1" x="20" y="29" width="2" height="2"/></svg>