<?xml version="1.0" encoding="UTF-8" standalone="no"?>
<svg xmlns:dc="http://purl.org/dc/elements/1.1/" xmlns:cc="http://creativecommons.org/ns#" xmlns:rdf="http://www.w3.org/1999/02/22-rdf-syntax-ns#" xmlns:svg="http://www.w3.org/2000/svg" xmlns="http://www.w3.org/2000/svg" viewBox="0 0 64.442535 85.333336" height="85.333336" width="64.442535" xml:space="preserve" id="svg2" version="1.1"><metadata id="metadata8"><rdf:RDF><cc:Work rdf:about=""><dc:format>image/svg+xml</dc:format><dc:type rdf:resource="http://purl.org/dc/dcmitype/StillImage"/></cc:Work></rdf:RDF></metadata><defs id="defs6"><clipPath id="clipPath18" clipPathUnits="userSpaceOnUse"><path id="path16" d="M 0,64 H 48.332 V 0 H 0 Z"/></clipPath></defs><g transform="matrix(1.3333333,0,0,-1.3333333,0,85.333333)" id="g10"><g id="g12"><g clip-path="url(#clipPath18)" id="g14"><g transform="translate(45.4888,35.2969)" id="g20"><path id="path22" d="M 0,0 -15.5,0.001 C -17.067,0 -18.343,-1.274 -18.343,-2.841 v -2.711 h -1.815 v -1.981 l 3.798,0.001 v 4.69 c 0,0.474 0.386,0.861 0.86,0.862 l 15.499,-0.001 c 0.475,-10e-4 0.86,-0.387 0.861,-0.86 V -32.454 C 0.859,-32.928 0.473,-33.314 0,-33.315 l -41.412,10e-4 c -0.474,10e-4 -0.86,0.386 -0.861,0.858 v 24.06 c 0.001,0.475 0.387,0.863 0.86,0.864 h 6.162 v 1.98 h -6.162 c -1.566,0 -2.841,-1.275 -2.841,-2.842 v -24.062 c 0,-1.565 1.275,-2.84 2.841,-2.84 L 0,-35.297 c 1.567,10e-4 2.842,1.276 2.842,2.841 L 2.843,-2.841 C 2.842,-1.274 1.566,0 0,0"/></g><path id="path24" d="M 7.867,48.963 H 1.981 v 3.339 h 5.886 z m 1.981,5.321 h -9.849 v -7.305 h 9.849 z"/><path id="path26" d="m 19.436,58.679 h -5.887 v 3.34 h 5.887 z M 21.417,64 h -9.848 v -7.303 h 9.848 z"/><path id="path28" d="m 33.78,52.972 h -5.887 v 3.34 h 5.887 z m 1.981,5.321 H 25.912 V 50.99 h 9.849 z"/><path id="path30" d="m 42.299,27.778 h -9.7 v 1.721 h 9.7 z m 1.983,3.701 H 30.618 v -5.683 h 13.664 z"/><path id="path32" d="M 43.783,24.043 H 36.09 v -1.98 h 7.693 z"/><path id="path34" d="m 31.117,18.74 h 12.666 v 1.981 H 31.117 Z"/><path id="path36" d="m 32.598,15.386 h 9.701 v -1.721 h -9.701 z m -1.98,-3.701 h 13.664 v 5.683 H 30.618 Z"/><path id="path38" d="M 43.783,10.178 H 36.09 V 8.197 h 7.693 z"/><path id="path40" d="M 31.117,4.627 H 43.783 V 6.608 H 31.117 Z"/><g transform="translate(17.5562,55.5439)" id="g42"><path id="path44" d="M 0,0 -0.208,0.208 -0.209,0.209 C -0.232,0.232 -0.264,0.242 -0.289,0.263 -0.365,0.325 -0.441,0.388 -0.53,0.424 -0.548,0.432 -0.568,0.43 -0.586,0.436 -0.688,0.471 -0.795,0.499 -0.908,0.499 H -0.909 -0.911 C -1.015,0.499 -1.112,0.471 -1.209,0.44 -1.234,0.432 -1.264,0.435 -1.289,0.424 -1.407,0.375 -1.517,0.303 -1.609,0.209 L -1.818,0 H -1.9 v -0.082 l -3.026,-3.026 c -0.187,-0.188 -0.291,-0.436 -0.29,-0.702 0,-0.262 0.104,-0.51 0.288,-0.698 0.187,-0.187 0.436,-0.291 0.701,-0.291 0.265,0 0.514,0.104 0.702,0.291 l 1.625,1.625 v -1.389 -0.212 -2.182 -0.211 -2.182 -0.211 -2.179 -0.213 -2.182 -0.211 -2.181 -0.211 -2.182 -0.211 -2.181 -0.211 -2.182 -0.211 -2.182 -0.211 -2.181 -0.211 -2.182 -0.211 -2.181 -0.211 -2.182 -0.21 -2.182 -0.21 -2.183 h 1.982 v 2.183 0.21 2.182 0.21 2.182 0.211 2.181 0.211 2.182 0.211 2.181 0.211 2.182 0.211 2.182 0.211 2.181 0.211 2.182 0.211 2.181 0.211 2.182 0.213 2.179 0.211 2.182 0.211 2.182 0.212 1.387 l 1.623,-1.623 c 0.186,-0.187 0.436,-0.291 0.7,-0.291 0.267,0 0.517,0.104 0.701,0.291 0.387,0.386 0.387,1.014 0,1.401 L 0.082,-0.082 V 0 Z"/></g><path id="path46" d="m 6.486,11.703 h 10.009 v 1.98 H 6.486 Z"/><path id="path48" d="m 6.486,8.694 h 10.009 v 1.981 H 6.486 Z"/><path id="path50" d="M 6.486,5.687 H 26.905 V 7.668 H 6.486 Z"/><path id="path52" d="m 42.282,51.883 h -2 v -10 h 2 z"/><path id="path54" d="m 48.282,47.883 h -2 v -6 h 2 z"/><g transform="translate(2.4634,41.4717)" id="g56"><path id="path58" d="M 0,0 1.47,1.47 V 0.911 0.699 -1.481 -1.693 -3.873 -4.086 -6.267 -6.479 -8.66 h 0.288 v -0.448 h 0.211 v -0.049 h 1.21 v 0.049 H 3.39 v -0.049 h 2.181 v 0.049 h 0.212 v -0.049 h 2.181 v 0.049 H 8.175 V -9.157 H 8.873 V -9.342 H 8.904 V -9.553 H 8.873 v -2.181 h 0.031 v -0.211 H 8.873 v -2.182 h 0.031 v -0.211 H 8.873 v -2.181 H 8.904 V -16.73 H 8.873 v -2.181 h 0.031 v -0.212 H 8.873 v -2.182 h 0.031 v -0.21 H 8.873 v -2.181 h 0.031 v -0.211 H 8.873 v -2.183 h 1.982 v 2.183 h -0.031 v 0.211 h 0.031 v 2.181 h -0.031 v 0.21 h 0.031 v 2.182 h -0.031 v 0.212 h 0.031 v 2.181 h -0.031 v 0.211 h 0.031 v 2.181 h -0.031 v 0.211 h 0.031 v 2.182 h -0.031 v 0.211 h 0.031 v 2.181 h -0.031 v 0.211 h 0.031 v 1.667 h -0.031 v 0.499 H 10.356 8.904 8.175 V -7.188 H 7.964 v 0.012 H 5.783 V -7.188 H 5.571 v 0.012 h -2.12 v 0.697 H 3.39 v 0.212 h 0.061 v 2.181 H 3.39 v 0.213 h 0.061 v 2.18 H 3.39 v 0.212 h 0.061 v 2.18 H 3.39 v 0.212 h 0.061 v 0.56 L 4.923,-0.002 C 5.11,-0.187 5.36,-0.29 5.622,-0.29 c 0.263,0 0.512,0.103 0.702,0.292 0.384,0.385 0.384,1.013 -10e-4,1.399 L 3.451,4.273 V 4.355 H 3.369 L 3.161,4.564 C 3.124,4.602 3.076,4.617 3.035,4.647 2.971,4.694 2.909,4.749 2.836,4.779 2.758,4.811 2.674,4.816 2.592,4.827 2.547,4.834 2.506,4.854 2.46,4.854 H 2.459 C 2.366,4.854 2.28,4.825 2.193,4.801 2.158,4.791 2.12,4.793 2.086,4.779 1.986,4.738 1.899,4.674 1.816,4.602 1.799,4.586 1.776,4.58 1.759,4.562 1.758,4.562 1.758,4.561 1.757,4.561 L 1.552,4.355 H 1.47 V 4.272 L -1.401,1.401 c -0.385,-0.385 -0.385,-1.014 0,-1.401 0.187,-0.187 0.436,-0.29 0.701,-0.29 0.263,0 0.511,0.103 0.7,0.29"/></g><g transform="translate(20.437,40.002)" id="g60"><path id="path62" d="m 0,0 v -0.905 -1.075 -1.107 -0.211 -2.181 -0.211 -2.182 -0.211 -2.182 -0.211 -2.181 -0.211 -2.182 -0.211 -2.181 -0.211 -2.182 -0.21 -2.182 -0.21 -2.183 h 1.982 v 2.183 0.21 2.182 0.21 2.182 0.211 2.181 0.211 2.182 0.211 2.181 0.211 2.182 0.211 2.182 0.211 2.181 0.211 1.107 h 0.698 0.211 2.181 0.212 2.18 0.213 1.839 0.341 1.688 V -1.482 0 0.698 0.909 3.091 3.302 5.483 5.694 6.95 l 1.393,-1.392 c 0.187,-0.188 0.436,-0.29 0.701,-0.29 0.263,0 0.512,0.102 0.7,0.29 0.386,0.385 0.386,1.014 0,1.402 l -2.794,2.794 v 0.082 h -0.082 l -0.209,0.209 c -0.038,0.038 -0.087,0.055 -0.129,0.085 -0.063,0.047 -0.124,0.099 -0.196,0.13 -0.072,0.028 -0.148,0.032 -0.223,0.044 -0.052,0.008 -0.1,0.029 -0.152,0.029 h -10e-4 c -0.081,0 -0.156,-0.026 -0.233,-0.045 C 10.273,10.276 10.225,10.278 10.179,10.26 10.091,10.224 10.016,10.163 9.94,10.102 9.912,10.079 9.877,10.068 9.851,10.042 9.849,10.041 9.849,10.038 9.847,10.036 L 9.646,9.836 H 9.564 V 9.754 L 6.766,6.958 C 6.385,6.574 6.383,5.946 6.764,5.56 L 6.771,5.553 C 6.958,5.369 7.205,5.269 7.468,5.269 7.732,5.269 7.98,5.37 8.169,5.557 L 9.516,6.903 V 0 H 7.677 7.464 5.284 5.072 2.891 2.68 1.982 0.5 Z"/></g></g></g></g></svg>