<svg xmlns="http://www.w3.org/2000/svg" xmlns:xlink="http://www.w3.org/1999/xlink" width="36" height="31" viewBox="0 0 36 31"><defs><path id="e03oa" d="M941.999 468.742v-4.257c0-.27.216-.488.483-.488h35.034c.267 0 .483.218.483.488v30.027a.485.485 0 0 1-.483.487h-35.034a.485.485 0 0 1-.483-.487v-25.77zm35.033-3.772h-34.066v3.284h34.066zm-34.066 29.055h34.066v-24.797h-34.066zm3.291-26.964h-1.19v-.975h1.19zm2.42 0h-1.19v-.975h1.19zm2.42 0h-1.191v-.975h1.191zm24.112 0h-15.21v-.975h15.21zm0 7.3h-30.577a.486.486 0 0 1-.484-.487v-2.58c0-.269.217-.486.484-.486h30.577c.266 0 .483.217.483.486v2.58c0 .27-.217.488-.483.488zm-30.094-.973h29.61v-1.607h-29.61zm22.923 5.255h-16.236a.484.484 0 0 1-.484-.487v-2.58c0-.269.216-.486.484-.486h16.236c.266 0 .482.217.482.486v2.58a.484.484 0 0 1-.482.487zm-15.754-.973h15.27v-1.606h-15.27zm6.739 14.698h-13.957a.486.486 0 0 1-.483-.487v-11.764c0-.27.217-.487.483-.487h13.957c.267 0 .483.217.483.487v11.764a.486.486 0 0 1-.483.487zm-13.473-.975h12.99v-10.789h-12.99zm29.659.975h-13.958a.486.486 0 0 1-.483-.487v-11.764c0-.27.216-.487.483-.487h13.958c.266 0 .483.217.483.487v11.764a.487.487 0 0 1-.483.487zm-13.474-.975h12.99v-10.789h-12.99z"/></defs><g><g transform="translate(-942 -464)"><use xlink:href="#e03oa"/></g></g></svg>