<svg xmlns="http://www.w3.org/2000/svg" xmlns:xlink="http://www.w3.org/1999/xlink" preserveAspectRatio="xMidYMid" width="32" height="32" viewBox="0 0 32 32">
  <defs>
    
  </defs>
  <path d="M31.899,5.540 L28.040,9.382 C27.719,9.697 27.291,9.872 26.846,9.872 C26.805,9.872 26.761,9.872 26.718,9.869 L26.620,9.862 L24.414,9.694 L22.896,11.205 L20.383,13.706 L20.326,13.764 L17.894,16.185 L16.825,17.249 C16.680,17.397 16.481,17.484 16.271,17.494 L15.377,17.538 C15.361,17.538 15.347,17.538 15.334,17.538 C14.845,17.538 14.453,17.121 14.494,16.631 L14.561,15.788 C14.575,15.590 14.662,15.402 14.804,15.261 L15.884,14.187 L18.316,11.766 L18.373,11.709 L20.886,9.207 L22.282,7.817 L22.097,5.409 L22.087,5.258 C22.049,4.768 22.228,4.288 22.576,3.942 L26.438,0.097 C26.505,0.030 26.589,-0.000 26.674,-0.000 C26.839,-0.000 26.998,0.117 27.011,0.309 L27.214,2.911 L28.195,1.934 C28.387,1.739 28.647,1.642 28.900,1.642 C29.153,1.642 29.409,1.739 29.605,1.934 L30.199,2.528 C30.590,2.918 30.590,3.546 30.199,3.935 L29.342,4.788 L31.686,4.969 C31.973,4.990 32.101,5.339 31.899,5.540 ZM20.838,14.677 L20.896,14.620 C21.324,15.530 21.564,16.544 21.564,17.615 C21.564,21.527 18.380,24.697 14.450,24.697 C10.520,24.697 7.336,21.523 7.336,17.611 C7.336,13.700 10.520,10.530 14.450,10.530 C15.526,10.530 16.545,10.768 17.459,11.195 L17.401,11.252 L14.733,13.908 C14.639,13.901 14.544,13.898 14.450,13.898 C12.389,13.898 10.716,15.563 10.716,17.615 C10.716,19.667 12.382,21.332 14.447,21.332 C16.511,21.332 18.181,19.667 18.181,17.615 C18.181,17.521 18.177,17.427 18.170,17.333 L20.838,14.677 ZM20.042,8.626 C18.420,7.622 16.504,7.041 14.450,7.041 C8.584,7.041 3.828,11.776 3.828,17.615 C3.828,23.454 8.588,28.189 14.453,28.189 C20.319,28.189 25.075,23.454 25.075,17.615 C25.075,15.573 24.491,13.666 23.483,12.048 L24.805,10.731 L26.644,10.872 C26.714,10.876 26.785,10.879 26.853,10.879 C26.971,10.879 27.092,10.872 27.210,10.856 C28.290,12.870 28.900,15.170 28.900,17.615 C28.900,25.559 22.431,32.000 14.450,32.000 C6.469,32.000 -0.000,25.559 -0.000,17.615 C-0.000,9.670 6.469,3.230 14.447,3.230 C16.841,3.230 19.098,3.811 21.085,4.835 C21.068,5.000 21.065,5.167 21.078,5.335 L21.240,7.434 L20.042,8.626 Z" class="cls-1"/>
</svg>
