<svg xmlns="http://www.w3.org/2000/svg" xmlns:xlink="http://www.w3.org/1999/xlink" width="30" height="30" viewBox="0 0 30 30"><defs><path id="3mxea" d="M1194.998 279.997v4.56a4.48 4.48 0 0 1-1.688 3.512l-6.268 5.014a8.992 8.992 0 0 1-5.543 3.278v3.136h3a1.5 1.5 0 0 1 1.499 1.5v3h1.5v3h-15v-3h1.5v-3c0-.827.672-1.5 1.5-1.5h3v-3.136a8.993 8.993 0 0 1-5.544-3.278l-6.267-5.014a4.475 4.475 0 0 1-1.688-3.513v-4.56a1.5 1.5 0 0 1 1.499-1.5h4.917a2.993 2.993 0 0 1 2.583-1.5h12c1.106 0 2.063.609 2.584 1.5h4.916a1.5 1.5 0 0 1 1.5 1.5zm-12 22.5h-6v1.5h6zm-11.991-14.814c-.001-.061-.009-.123-.009-.185v-6.002h-3v3.06c0 .455.206.886.564 1.172zm14.99-.185v-7.501h-11.999v7.5c0 3.308 2.691 6 6 6 3.31 0 6-2.692 6-6zm6.001-6.002h-3v6.002c0 .062-.008.124-.008.186l2.446-1.956c.357-.286.562-.717.562-1.172z"/><linearGradient id="3mxeb" x1="1180" x2="1180" y1="307" y2="277" gradientUnits="userSpaceOnUse"><stop offset="0" stop-color="#e83431"/><stop offset="1" stop-color="#a3080c"/></linearGradient></defs><g><g transform="translate(-1165 -277)"><use fill="url(#3mxeb)" xlink:href="#3mxea"/></g></g></svg>